FiraCode-Regular.ufo
<glyph name="exclam" format="2">
  <advance width="1200.0"/>
  <unicode hex="0021"/>
  <outline>
    <contour>
      <point x="689.375" y="1376.75" type="line"/>
      <point x="501.375" y="1376.75" type="line"/>
      <point x="520.7916666666666" y="453.7291666666667" type="line"/>
      <point x="671.7291666666666" y="453.7291666666667" type="line"/>
    </contour>
    <contour>
      <point x="597.6875" y="244.75" type="curve" smooth="yes"/>
      <point x="522.5833333333334" y="244.75"/>
      <point x="465.25" y="185.10416666666666"/>
      <point x="465.25" y="112.3125" type="curve" smooth="yes"/>
      <point x="465.25" y="37.208333333333336"/>
      <point x="522.5833333333334" y="-23.208333333333332"/>
      <point x="597.6875" y="-23.208333333333332" type="curve" smooth="yes"/>
      <point x="674.7916666666666" y="-23.208333333333332"/>
      <point x="733.2083333333334" y="37.208333333333336"/>
      <point x="733.2083333333334" y="112.3125" type="curve" smooth="yes"/>
      <point x="733.2083333333334" y="185.10416666666666"/>
      <point x="674.7916666666666" y="244.75"/>
    </contour>
  </outline>
</glyph>
<glyph name="quotedbl" format="2">
  <advance width="1200.0"/>
  <unicode hex="0022"/>
  <outline>
    <contour>
      <point x="359.2083333333333" y="957.375" type="line"/>
      <point x="506.8958333333333" y="957.375" type="line"/>
      <point x="537.7291666666666" y="1477.0625" type="line"/>
      <point x="327.375" y="1477.0625" type="line"/>
    </contour>
    <contour>
      <point x="693.4166666666666" y="957.375" type="line"/>
      <point x="840.7916666666666" y="957.375" type="line"/>
      <point x="872.625" y="1477.0625" type="line"/>
      <point x="662.5833333333334" y="1477.0625" type="line"/>
    </contour>
  </outline>
</glyph>
<glyph name="numbersign" format="2">
  <advance width="1200.0"/>
  <unicode hex="0023"/>
  <outline>
    <contour>
      <point x="917.25" y="912.2708333333334" type="line"/>
      <point x="1094.0" y="912.2708333333334" type="line"/>
      <point x="1094.0" y="1043.4166666666667" type="line"/>
      <point x="933.6875" y="1043.4166666666667" type="line"/>
      <point x="980.9375" y="1376.75" type="line"/>
      <point x="837.1041666666666" y="1376.75" type="line"/>
      <point x="792.9375" y="1043.4166666666667" type="line"/>
      <point x="499.4166666666667" y="1043.4166666666667" type="line"/>
      <point x="546.8958333333334" y="1376.75" type="line"/>
      <point x="403.375" y="1376.75" type="line"/>
      <point x="358.8958333333333" y="1043.4166666666667" type="line"/>
      <point x="179.6875" y="1043.4166666666667" type="line"/>
      <point x="179.6875" y="912.2708333333334" type="line"/>
      <point x="341.6875" y="912.2708333333334" type="line"/>
      <point x="281.2083333333333" y="469.25" type="line"/>
      <point x="105.6875" y="469.25" type="line"/>
      <point x="105.6875" y="339.1041666666667" type="line"/>
      <point x="264.0" y="339.1041666666667" type="line"/>
      <point x="218.75" y="0.0" type="line"/>
      <point x="362.5833333333333" y="0.0" type="line"/>
      <point x="406.75" y="339.1041666666667" type="line"/>
      <point x="697.7291666666666" y="339.1041666666667" type="line"/>
      <point x="652.7916666666666" y="0.0" type="line"/>
      <point x="796.625" y="0.0" type="line"/>
      <point x="839.25" y="339.1041666666667" type="line"/>
      <point x="1020.0" y="339.1041666666667" type="line"/>
      <point x="1020.0" y="469.25" type="line"/>
      <point x="858.0" y="469.25" type="line"/>
    </contour>
    <contour>
      <point x="424.2708333333333" y="469.25" type="line"/>
      <point x="483.2083333333333" y="912.2708333333334" type="line"/>
      <point x="775.7291666666666" y="912.2708333333334" type="line"/>
      <point x="715.25" y="469.25" type="line"/>
    </contour>
  </outline>
</glyph>
<glyph name="dollar" format="2">
  <advance width="1200.0"/>
  <unicode hex="0024"/>
  <outline>
    <contour>
      <point x="691.0625" y="1696.5833333333333" type="line"/>
      <point x="556.2708333333334" y="1696.5833333333333" type="line"/>
      <point x="556.2708333333334" y="1396.2708333333333" type="line"/>
      <point x="310.5833333333333" y="1372.5833333333333"/>
      <point x="190.27083333333334" y="1215.1041666666667"/>
      <point x="190.27083333333334" y="1055.375" type="curve" smooth="yes"/>
      <point x="190.27083333333334" y="870.0"/>
      <point x="322.0" y="752.625"/>
      <point x="556.2708333333334" y="674.5833333333334" type="curve"/>
      <point x="556.2708333333334" y="121.375" type="line"/>
      <point x="424.9375" y="131.6875"/>
      <point x="321.375" y="192.79166666666666"/>
      <point x="238.3125" y="277.7291666666667" type="curve"/>
      <point x="137.72916666666666" y="167.25" type="line"/>
      <point x="227.25" y="79.41666666666667"/>
      <point x="366.75" y="-8.75"/>
      <point x="556.2708333333334" y="-21.208333333333332" type="curve"/>
      <point x="556.2708333333334" y="-306.2708333333333" type="line"/>
      <point x="691.0625" y="-306.2708333333333" type="line"/>
      <point x="691.0625" y="-15.208333333333332" type="line"/>
      <point x="945.4166666666666" y="18.791666666666668"/>
      <point x="1075.375" y="188.625"/>
      <point x="1075.375" y="379.25" type="curve" smooth="yes"/>
      <point x="1075.375" y="623.1041666666666"/>
      <point x="892.0" y="735.7291666666666"/>
      <point x="691.0625" y="801.0625" type="curve"/>
      <point x="691.0625" y="1257.2083333333333" type="line"/>
      <point x="790.7916666666666" y="1244.2708333333333"/>
      <point x="879.4166666666666" y="1200.9375"/>
      <point x="955.7291666666666" y="1129.375" type="curve"/>
      <point x="1058.625" y="1235.4166666666667" type="line"/>
      <point x="976.2708333333334" y="1311.25"/>
      <point x="851.2083333333334" y="1379.4166666666667"/>
      <point x="691.0625" y="1395.7291666666667" type="curve"/>
    </contour>
    <contour>
      <point x="691.0625" y="628.3125" type="line"/>
      <point x="843.25" y="565.2083333333334"/>
      <point x="893.6875" y="488.625"/>
      <point x="893.6875" y="376.9375" type="curve" smooth="yes"/>
      <point x="893.6875" y="237.0625"/>
      <point x="825.25" y="156.9375"/>
      <point x="691.0625" y="129.6875" type="curve"/>
    </contour>
    <contour>
      <point x="556.2708333333334" y="1252.8958333333333" type="curve"/>
      <point x="556.2708333333334" y="845.1041666666666" type="line"/>
      <point x="409.4166666666667" y="904.8958333333334"/>
      <point x="369.2083333333333" y="965.25"/>
      <point x="369.2083333333333" y="1057.6875" type="curve" smooth="yes"/>
      <point x="369.2083333333333" y="1170.7916666666667"/>
      <point x="446.75" y="1234.2708333333333"/>
    </contour>
  </outline>
</glyph>
<glyph name="percent" format="2">
  <advance width="1200.0"/>
  <unicode hex="0025"/>
  <outline>
    <contour>
      <point x="1008.7916666666666" y="1414.2708333333333" type="line"/>
      <point x="64.9375" y="29.729166666666668" type="line"/>
      <point x="170.27083333333331" y="-40.270833333333336" type="line"/>
      <point x="1116.8958333333333" y="1344.2708333333333" type="line"/>
    </contour>
    <contour>
      <point x="872.3125" y="511.4166666666667" type="curve" smooth="yes"/>
      <point x="951.4166666666666" y="511.4166666666667"/>
      <point x="1010.8958333333334" y="454.7916666666667"/>
      <point x="1010.8958333333334" y="310.7916666666667" type="curve" smooth="yes"/>
      <point x="1010.8958333333334" y="168.625"/>
      <point x="951.4166666666666" y="106.0"/>
      <point x="872.3125" y="106.0" type="curve" smooth="yes"/>
      <point x="790.2708333333334" y="106.0"/>
      <point x="731.4166666666666" y="181.10416666666666"/>
      <point x="731.4166666666666" y="310.7916666666667" type="curve" smooth="yes"/>
      <point x="731.4166666666666" y="451.4166666666667"/>
      <point x="793.2083333333334" y="511.4166666666667"/>
    </contour>
    <contour>
      <point x="332.3125" y="1279.1041666666667" type="curve" smooth="yes"/>
      <point x="411.4166666666667" y="1279.1041666666667"/>
      <point x="470.8958333333333" y="1223.25"/>
      <point x="470.8958333333333" y="1079.25" type="curve" smooth="yes"/>
      <point x="470.8958333333333" y="936.3125"/>
      <point x="411.4166666666667" y="873.6875"/>
      <point x="332.3125" y="873.6875" type="curve" smooth="yes"/>
      <point x="250.27083333333334" y="873.6875"/>
      <point x="191.41666666666666" y="948.7916666666666"/>
      <point x="191.41666666666666" y="1079.25" type="curve" smooth="yes"/>
      <point x="191.41666666666666" y="1215.25"/>
      <point x="253.20833333333334" y="1279.1041666666667"/>
    </contour>
    <contour>
      <point x="332.3125" y="1399.4166666666667" type="curve" smooth="yes"/>
      <point x="145.375" y="1399.4166666666667"/>
      <point x="37.0625" y="1252.0"/>
      <point x="37.0625" y="1079.25" type="curve" smooth="yes"/>
      <point x="37.0625" y="908.75"/>
      <point x="145.375" y="755.6875"/>
      <point x="332.3125" y="755.6875" type="curve" smooth="yes"/>
      <point x="518.7916666666666" y="755.6875"/>
      <point x="624.7916666666666" y="908.75"/>
      <point x="624.7916666666666" y="1079.25" type="curve" smooth="yes"/>
      <point x="624.7916666666666" y="1250.75"/>
      <point x="518.7916666666666" y="1399.4166666666667"/>
    </contour>
    <contour>
      <point x="872.3125" y="631.7291666666666" type="curve" smooth="yes"/>
      <point x="685.375" y="631.7291666666666"/>
      <point x="577.0625" y="484.3125"/>
      <point x="577.0625" y="310.7916666666667" type="curve" smooth="yes"/>
      <point x="577.0625" y="141.0625"/>
      <point x="685.375" y="-12.0"/>
      <point x="872.3125" y="-12.0" type="curve" smooth="yes"/>
      <point x="1058.7916666666667" y="-12.0"/>
      <point x="1164.7916666666667" y="141.0625"/>
      <point x="1164.7916666666667" y="310.7916666666667" type="curve" smooth="yes"/>
      <point x="1164.7916666666667" y="483.0625"/>
      <point x="1058.7916666666667" y="631.7291666666666"/>
    </contour>
  </outline>
</glyph>
<glyph name="parenleft" format="2">
  <advance width="1200.0"/>
  <unicode hex="0028"/>
  <outline>
    <contour>
      <point x="425.4166666666667" y="700.0" type="curve" smooth="yes"/>
      <point x="425.4166666666667" y="1119.4166666666667"/>
      <point x="564.9375" y="1332.3125"/>
      <point x="853.2083333333334" y="1588.3125" type="curve"/>
      <point x="764.7916666666666" y="1680.3125" type="line"/>
      <point x="440.3125" y="1415.25"/>
      <point x="248.79166666666666" y="1155.7291666666667"/>
      <point x="248.79166666666666" y="700.0" type="curve" smooth="yes"/>
      <point x="248.79166666666666" y="244.27083333333334"/>
      <point x="440.3125" y="-15.25"/>
      <point x="764.7916666666666" y="-280.3125" type="curve"/>
      <point x="853.2083333333334" y="-188.3125" type="line"/>
      <point x="566.75" y="65.10416666666666"/>
      <point x="425.4166666666667" y="282.8958333333333"/>
    </contour>
  </outline>
</glyph>
<glyph name="parenright" format="2">
  <advance width="1200.0"/>
  <unicode hex="0029"/>
  <outline>
    <contour>
      <point x="774.5833333333334" y="700.0" type="curve" smooth="yes"/>
      <point x="774.5833333333334" y="282.8958333333333"/>
      <point x="633.25" y="65.10416666666666"/>
      <point x="346.7916666666667" y="-188.3125" type="curve"/>
      <point x="435.2083333333333" y="-280.3125" type="line"/>
      <point x="759.6875" y="-15.25"/>
      <point x="951.2083333333334" y="244.27083333333334"/>
      <point x="951.2083333333334" y="700.0" type="curve" smooth="yes"/>
      <point x="951.2083333333334" y="1155.7291666666667"/>
      <point x="759.6875" y="1415.25"/>
      <point x="435.2083333333333" y="1680.3125" type="curve"/>
      <point x="346.7916666666667" y="1588.3125" type="line"/>
      <point x="635.0625" y="1332.3125"/>
      <point x="774.5833333333334" y="1119.4166666666667"/>
    </contour>
  </outline>
</glyph>
<glyph name="asterisk" format="2">
  <advance width="1200.0"/>
  <unicode hex="002A"/>
  <outline>
    <contour>
      <point x="514.75" y="1157.25" type="line"/>
      <point x="685.25" y="1157.25" type="line"/>
      <point x="672.3125" y="751.7291666666666" type="line"/>
      <point x="1052.0" y="887.375" type="line"/>
      <point x="1103.375" y="728.7916666666666" type="line"/>
      <point x="715.7291666666666" y="615.25" type="line"/>
      <point x="963.25" y="294.9375" type="line"/>
      <point x="828.625" y="197.25" type="line"/>
      <point x="600.0" y="531.4166666666666" type="line"/>
      <point x="371.375" y="197.25" type="line"/>
      <point x="236.75" y="294.9375" type="line"/>
      <point x="484.2708333333333" y="615.25" type="line"/>
      <point x="96.625" y="728.7916666666666" type="line"/>
      <point x="148.0" y="887.375" type="line"/>
      <point x="527.6875" y="751.7291666666666" type="line"/>
    </contour>
  </outline>
</glyph>
<glyph name="plus" format="2">
  <advance width="1200.0"/>
  <unicode hex="002B"/>
  <outline>
    <contour>
      <point x="676.2708333333334" y="1090.9375" type="line"/>
      <point x="519.4166666666666" y="1090.9375" type="line"/>
      <point x="519.4166666666666" y="692.2708333333334" type="line"/>
      <point x="130.75" y="692.2708333333334" type="line"/>
      <point x="130.75" y="550.7916666666666" type="line"/>
      <point x="519.4166666666666" y="550.7916666666666" type="line"/>
      <point x="519.4166666666666" y="155.20833333333334" type="line"/>
      <point x="676.2708333333334" y="155.20833333333334" type="line"/>
      <point x="676.2708333333334" y="550.7916666666666" type="line"/>
      <point x="1069.25" y="550.7916666666666" type="line"/>
      <point x="1069.25" y="692.2708333333334" type="line"/>
      <point x="676.2708333333334" y="692.2708333333334" type="line"/>
    </contour>
  </outline>
</glyph>
<glyph name="comma" format="2">
  <advance width="1200.0"/>
  <unicode hex="002C"/>
  <outline>
    <contour>
      <point x="600.0" y="328.75" type="curve" smooth="yes"/>
      <point x="509.375" y="328.75"/>
      <point x="440.2708333333333" y="257.1041666666667"/>
      <point x="440.2708333333333" y="169.25" type="curve" smooth="yes"/>
      <point x="440.2708333333333" y="115.0625"/>
      <point x="464.7916666666667" y="65.25"/>
      <point x="505.2083333333333" y="35.729166666666664" type="curve"/>
      <point x="409.375" y="-359.2083333333333" type="line"/>
      <point x="560.7916666666666" y="-359.2083333333333" type="line"/>
      <point x="722.75" y="11.729166666666668" type="line" smooth="yes"/>
      <point x="752.0" y="74.89583333333333"/>
      <point x="761.7291666666666" y="120.625"/>
      <point x="761.7291666666666" y="168.79166666666666" type="curve" smooth="yes"/>
      <point x="761.7291666666666" y="257.1041666666667"/>
      <point x="692.625" y="328.75"/>
    </contour>
  </outline>
</glyph>
<glyph name="period" format="2">
  <advance width="1200.0"/>
  <unicode hex="002E"/>
  <outline>
    <contour>
      <point x="423.25" y="154.3125" type="curve" smooth="yes"/>
      <point x="423.25" y="54.895833333333336"/>
      <point x="498.5833333333333" y="-23.208333333333332"/>
      <point x="597.6875" y="-23.208333333333332" type="curve" smooth="yes"/>
      <point x="699.1041666666666" y="-23.208333333333332"/>
      <point x="775.2083333333334" y="54.895833333333336"/>
      <point x="775.2083333333334" y="154.3125" type="curve" smooth="yes"/>
      <point x="775.2083333333334" y="251.41666666666666"/>
      <point x="699.1041666666666" y="328.75"/>
      <point x="597.6875" y="328.75" type="curve" smooth="yes"/>
      <point x="498.5833333333333" y="328.75"/>
      <point x="423.25" y="251.41666666666666"/>
    </contour>
  </outline>
</glyph>
<glyph name="slash" format="2">
  <advance width="1200.0"/>
  <unicode hex="002F"/>
  <outline>
    <contour>
      <point x="240.79166666666666" y="-206.27083333333334" type="line"/>
      <point x="1095.2083333333333" y="1553.375" type="line"/>
      <point x="961.2083333333334" y="1618.5833333333333" type="line"/>
      <point x="104.79166666666667" y="-145.6875" type="line"/>
    </contour>
  </outline>
</glyph>
<glyph name="zero" format="2">
  <advance width="1200.0"/>
  <unicode hex="0030"/>
  <outline>
    <contour>
      <point x="600.0" y="1399.4166666666667" type="curve" smooth="yes"/>
      <point x="304.0" y="1399.4166666666667"/>
      <point x="149.10416666666666" y="1145.0625"/>
      <point x="149.10416666666666" y="689.0625" type="curve" smooth="yes"/>
      <point x="149.10416666666666" y="231.0625"/>
      <point x="304.0" y="-23.208333333333332"/>
      <point x="600.0" y="-23.208333333333332" type="curve" smooth="yes"/>
      <point x="896.3125" y="-23.208333333333332"/>
      <point x="1050.8958333333333" y="231.0625"/>
      <point x="1050.8958333333333" y="689.0625" type="curve" smooth="yes"/>
      <point x="1050.8958333333333" y="1145.0625"/>
      <point x="896.3125" y="1399.4166666666667"/>
    </contour>
    <contour>
      <point x="600.0" y="1263.6875" type="curve" smooth="yes"/>
      <point x="791.6875" y="1263.6875"/>
      <point x="873.6875" y="1101.6875"/>
      <point x="873.6875" y="689.0625" type="curve" smooth="yes"/>
      <point x="873.6875" y="281.0625"/>
      <point x="771.0625" y="113.0625"/>
      <point x="600.0" y="113.0625" type="curve" smooth="yes"/>
      <point x="410.9375" y="113.0625"/>
      <point x="326.625" y="275.375"/>
      <point x="326.625" y="689.0625" type="curve" smooth="yes"/>
      <point x="326.625" y="1096.625"/>
      <point x="431.25" y="1263.6875"/>
    </contour>
    <contour>
      <point x="803.25" y="1215.0625" type="line"/>
      <point x="346.9375" y="298.2708333333333" type="line"/>
      <point x="409.4166666666667" y="180.9375" type="line"/>
      <point x="847.25" y="1068.2708333333333" type="line"/>
    </contour>
  </outline>
</glyph>
<glyph name="one" format="2">
  <advance width="1200.0"/>
  <unicode hex="0031"/>
  <outline>
    <contour>
      <point x="747.4166666666666" y="1376.75" type="line"/>
      <point x="600.0" y="1376.75" type="line"/>
      <point x="190.0" y="1123.25" type="line"/>
      <point x="263.1041666666667" y="1003.375" type="line"/>
      <point x="578.9375" y="1195.25" type="line"/>
      <point x="578.9375" y="40.0" type="line"/>
      <point x="747.4166666666666" y="40.0" type="line"/>
    </contour>
    <contour>
      <point x="1034.9375" y="137.25" type="line"/>
      <point x="240.3125" y="137.25" type="line"/>
      <point x="240.3125" y="0.0" type="line"/>
      <point x="1034.9375" y="0.0" type="line"/>
    </contour>
  </outline>
</glyph>
<glyph name="two" format="2">
  <advance width="1200.0"/>
  <unicode hex="0032"/>
  <outline>
    <contour>
      <point x="538.8958333333334" y="1399.4166666666667" type="curve" smooth="yes"/>
      <point x="352.8958333333333" y="1399.4166666666667"/>
      <point x="226.9375" y="1334.9375"/>
      <point x="118.3125" y="1201.7291666666667" type="curve"/>
      <point x="233.6875" y="1112.0" type="line"/>
      <point x="321.1041666666667" y="1214.625"/>
      <point x="395.4166666666667" y="1258.9375"/>
      <point x="531.25" y="1258.9375" type="curve" smooth="yes"/>
      <point x="684.9375" y="1258.9375"/>
      <point x="777.375" y="1164.2708333333333"/>
      <point x="777.375" y="1009.1041666666666" type="curve" smooth="yes"/>
      <point x="777.375" y="784.75"/>
      <point x="664.75" y="634.9375"/>
      <point x="146.3125" y="136.89583333333334" type="curve"/>
      <point x="146.3125" y="0.0" type="line"/>
      <point x="964.7916666666666" y="0.0" type="line"/>
      <point x="985.6875" y="143.10416666666666" type="line"/>
      <point x="337.4166666666667" y="143.10416666666666" type="line"/>
      <point x="790.7916666666666" y="557.1041666666666"/>
      <point x="953.6875" y="762.0"/>
      <point x="953.6875" y="1014.75" type="curve" smooth="yes"/>
      <point x="953.6875" y="1233.6875"/>
      <point x="798.625" y="1399.4166666666667"/>
    </contour>
  </outline>
</glyph>
<glyph name="three" format="2">
  <advance width="1200.0"/>
  <unicode hex="0033"/>
  <outline>
    <contour>
      <point x="537.0625" y="1399.4166666666667" type="curve" smooth="yes"/>
      <point x="396.9375" y="1399.4166666666667"/>
      <point x="263.0625" y="1351.375"/>
      <point x="146.3125" y="1240.9375" type="curve"/>
      <point x="238.9375" y="1137.6875" type="line"/>
      <point x="330.2708333333333" y="1223.25"/>
      <point x="411.1041666666667" y="1264.625"/>
      <point x="530.5833333333334" y="1264.625" type="curve" smooth="yes"/>
      <point x="674.7916666666666" y="1264.625"/>
      <point x="790.9375" y="1182.8958333333333"/>
      <point x="790.9375" y="1031.1041666666667" type="curve" smooth="yes"/>
      <point x="790.9375" y="866.9375"/>
      <point x="662.3125" y="790.75"/>
      <point x="528.75" y="790.75" type="curve" smooth="yes"/>
      <point x="448.0" y="790.75" type="line"/>
      <point x="427.4166666666667" y="658.3125" type="line"/>
      <point x="542.625" y="658.3125" type="line" smooth="yes"/>
      <point x="706.2708333333334" y="658.3125"/>
      <point x="827.7291666666666" y="593.6875"/>
      <point x="827.7291666666666" y="396.5833333333333" type="curve" smooth="yes"/>
      <point x="827.7291666666666" y="223.72916666666666"/>
      <point x="714.0" y="116.27083333333333"/>
      <point x="522.2708333333334" y="116.27083333333333" type="curve" smooth="yes"/>
      <point x="409.4166666666667" y="116.27083333333333"/>
      <point x="294.0" y="160.89583333333334"/>
      <point x="216.3125" y="252.89583333333334" type="curve"/>
      <point x="103.0625" y="160.89583333333334" type="line"/>
      <point x="208.27083333333334" y="32.75"/>
      <point x="371.7291666666667" y="-23.208333333333332"/>
      <point x="526.3125" y="-23.208333333333332" type="curve" smooth="yes"/>
      <point x="810.75" y="-23.208333333333332"/>
      <point x="1003.7291666666666" y="158.3125"/>
      <point x="1003.7291666666666" y="396.9375" type="curve" smooth="yes"/>
      <point x="1003.7291666666666" y="609.375"/>
      <point x="852.3125" y="721.1041666666666"/>
      <point x="691.375" y="734.0" type="curve"/>
      <point x="836.9375" y="761.4166666666666"/>
      <point x="959.7291666666666" y="887.6875"/>
      <point x="959.7291666666666" y="1055.2083333333333" type="curve" smooth="yes"/>
      <point x="959.7291666666666" y="1242.2708333333333"/>
      <point x="796.75" y="1399.4166666666667"/>
    </contour>
  </outline>
</glyph>
<glyph name="four" format="2">
  <advance width="1200.0"/>
  <unicode hex="0034"/>
  <outline>
    <contour>
      <point x="548.0" y="1399.4166666666667" type="line"/>
      <point x="143.72916666666666" y="457.0625" type="line"/>
      <point x="143.72916666666666" y="334.9375" type="line"/>
      <point x="1056.8958333333333" y="334.9375" type="line"/>
      <point x="1056.8958333333333" y="469.4166666666667" type="line"/>
      <point x="321.7291666666667" y="469.4166666666667" type="line"/>
      <point x="688.2708333333334" y="1339.7291666666667" type="line"/>
    </contour>
    <contour>
      <point x="878.5833333333334" y="859.6875" type="line"/>
      <point x="738.7708333333334" y="859.6875" type="line"/>
      <point x="715.7291666666666" y="437.4166666666667" type="line"/>
      <point x="716.6458333333334" y="0.0" type="line"/>
      <point x="878.5833333333334" y="0.0" type="line"/>
    </contour>
  </outline>
</glyph>
<glyph name="five" format="2">
  <advance width="1200.0"/>
  <unicode hex="0035"/>
  <outline>
    <contour>
      <point x="973.7291666666666" y="1376.75" type="line"/>
      <point x="244.58333333333334" y="1376.75" type="line"/>
      <point x="244.58333333333334" y="688.7916666666666" type="line"/>
      <point x="379.7291666666667" y="688.7916666666666" type="line"/>
      <point x="460.0" y="718.9375"/>
      <point x="513.375" y="734.7916666666666"/>
      <point x="595.2083333333334" y="734.7916666666666" type="curve" smooth="yes"/>
      <point x="733.4166666666666" y="734.7916666666666"/>
      <point x="843.1041666666666" y="662.625"/>
      <point x="843.1041666666666" y="440.75" type="curve" smooth="yes"/>
      <point x="843.1041666666666" y="227.375"/>
      <point x="736.3125" y="116.27083333333333"/>
      <point x="554.625" y="116.27083333333333" type="curve" smooth="yes"/>
      <point x="436.2708333333333" y="116.27083333333333"/>
      <point x="341.4166666666667" y="157.41666666666666"/>
      <point x="257.6875" y="243.41666666666666" type="curve"/>
      <point x="154.3125" y="142.9375" type="line"/>
      <point x="260.9375" y="38.75"/>
      <point x="387.1041666666667" y="-23.208333333333332"/>
      <point x="553.4166666666666" y="-23.208333333333332" type="curve" smooth="yes"/>
      <point x="836.7916666666666" y="-23.208333333333332"/>
      <point x="1018.7916666666666" y="160.89583333333334"/>
      <point x="1018.7916666666666" y="435.7291666666667" type="curve" smooth="yes"/>
      <point x="1018.7916666666666" y="711.1041666666666"/>
      <point x="867.6875" y="868.0"/>
      <point x="642.8958333333334" y="868.0" type="curve" smooth="yes"/>
      <point x="560.3125" y="868.0"/>
      <point x="488.9375" y="853.6875"/>
      <point x="404.75" y="808.5833333333334" type="curve"/>
      <point x="404.75" y="1243.25" type="line"/>
      <point x="948.75" y="1243.25" type="line"/>
    </contour>
  </outline>
</glyph>
<glyph name="six" format="2">
  <advance width="1200.0"/>
  <unicode hex="0036"/>
  <outline>
    <contour>
      <point x="670.9375" y="1399.4166666666667" type="curve"/>
      <point x="348.5833333333333" y="1399.4166666666667"/>
      <point x="158.58333333333334" y="1107.1041666666667"/>
      <point x="158.58333333333334" y="650.8958333333334" type="curve" smooth="yes"/>
      <point x="158.58333333333334" y="241.25"/>
      <point x="281.375" y="-23.208333333333332"/>
      <point x="616.0" y="-23.208333333333332" type="curve" smooth="yes"/>
      <point x="854.7916666666666" y="-23.208333333333332"/>
      <point x="1049.4166666666667" y="158.625"/>
      <point x="1049.4166666666667" y="463.0625" type="curve" smooth="yes"/>
      <point x="1049.4166666666667" y="757.0625"/>
      <point x="871.25" y="896.625"/>
      <point x="659.1041666666666" y="896.625" type="curve"/>
      <point x="513.1041666666666" y="896.625"/>
      <point x="397.7291666666667" y="833.2083333333334"/>
      <point x="307.1041666666667" y="679.1041666666666" type="curve"/>
      <point x="311.4166666666667" y="530.75" type="line"/>
      <point x="378.5833333333333" y="664.3125"/>
      <point x="489.25" y="758.7916666666666"/>
      <point x="633.375" y="758.7916666666666" type="curve"/>
      <point x="778.9375" y="758.7916666666666"/>
      <point x="876.7916666666666" y="684.9375"/>
      <point x="876.7916666666666" y="458.9375" type="curve" smooth="yes"/>
      <point x="876.7916666666666" y="244.79166666666666"/>
      <point x="789.1041666666666" y="113.375"/>
      <point x="615.375" y="113.375" type="curve" smooth="yes"/>
      <point x="411.4166666666667" y="113.375"/>
      <point x="329.1041666666667" y="265.0625"/>
      <point x="328.7916666666667" y="604.2708333333334" type="curve"/>
      <point x="326.7916666666667" y="668.8958333333334" type="line"/>
      <point x="324.625" y="1029.2083333333333"/>
      <point x="446.7916666666667" y="1263.0625"/>
      <point x="667.6875" y="1263.0625" type="curve"/>
      <point x="743.4166666666666" y="1263.0625"/>
      <point x="814.8958333333334" y="1242.75"/>
      <point x="877.375" y="1204.75" type="curve"/>
      <point x="943.4166666666666" y="1318.8958333333333" type="line"/>
      <point x="865.4166666666666" y="1370.5833333333333"/>
      <point x="776.75" y="1399.4166666666667"/>
    </contour>
  </outline>
</glyph>
<glyph name="seven" format="2">
  <advance width="1200.0"/>
  <unicode hex="0037"/>
  <outline>
    <contour>
      <point x="460.9375" y="-18.895833333333332" type="line"/>
      <point x="1010.2708333333334" y="1248.3125" type="line"/>
      <point x="1010.2708333333334" y="1376.75" type="line"/>
      <point x="194.58333333333334" y="1376.75" type="line"/>
      <point x="194.58333333333334" y="1237.4166666666667" type="line"/>
      <point x="840.5833333333334" y="1237.4166666666667" type="line"/>
      <point x="304.3125" y="28.625" type="line"/>
    </contour>
  </outline>
</glyph>
<glyph name="eight" format="2">
  <advance width="1200.0"/>
  <unicode hex="0038"/>
  <outline>
    <contour>
      <point x="1013.2083333333334" y="1049.375" type="curve" smooth="yes"/>
      <point x="1013.2083333333334" y="1293.1041666666667"/>
      <point x="800.3125" y="1399.4166666666667"/>
      <point x="599.6875" y="1399.4166666666667" type="curve" smooth="yes"/>
      <point x="418.9375" y="1399.4166666666667"/>
      <point x="186.79166666666666" y="1291.7291666666667"/>
      <point x="186.79166666666666" y="1040.3125" type="curve" smooth="yes"/>
      <point x="186.79166666666666" y="886.3125"/>
      <point x="261.2083333333333" y="794.75"/>
      <point x="407.0625" y="724.7916666666666" type="curve"/>
      <point x="240.27083333333334" y="648.3125"/>
      <point x="131.25" y="535.25"/>
      <point x="131.25" y="365.6875" type="curve" smooth="yes"/>
      <point x="131.25" y="147.0625"/>
      <point x="301.25" y="-23.208333333333332"/>
      <point x="596.3125" y="-23.208333333333332" type="curve" smooth="yes"/>
      <point x="886.5833333333334" y="-23.208333333333332"/>
      <point x="1068.75" y="144.27083333333334"/>
      <point x="1068.75" y="369.0625" type="curve" smooth="yes"/>
      <point x="1068.75" y="538.9375"/>
      <point x="953.375" y="664.625"/>
      <point x="774.3125" y="738.5833333333334" type="curve"/>
      <point x="926.9375" y="822.5833333333334"/>
      <point x="1013.2083333333334" y="914.75"/>
    </contour>
    <contour>
      <point x="892.2708333333334" y="367.2083333333333" type="curve" smooth="yes"/>
      <point x="892.2708333333334" y="221.72916666666666"/>
      <point x="786.7916666666666" y="113.375"/>
      <point x="595.0625" y="113.375" type="curve" smooth="yes"/>
      <point x="404.7916666666667" y="113.375"/>
      <point x="307.7291666666667" y="208.79166666666666"/>
      <point x="307.7291666666667" y="365.4166666666667" type="curve" smooth="yes"/>
      <point x="307.7291666666667" y="538.625"/>
      <point x="409.0625" y="624.7916666666666"/>
      <point x="523.2083333333334" y="676.7916666666666" type="curve"/>
      <point x="740.2708333333334" y="602.3125"/>
      <point x="892.2708333333334" y="552.0"/>
    </contour>
    <contour>
      <point x="352.8958333333333" y="1038.0" type="curve" smooth="yes"/>
      <point x="352.8958333333333" y="1183.6875"/>
      <point x="444.2708333333333" y="1269.2083333333333"/>
      <point x="599.6875" y="1269.2083333333333" type="curve" smooth="yes"/>
      <point x="757.1041666666666" y="1269.2083333333333"/>
      <point x="847.1041666666666" y="1181.25"/>
      <point x="847.1041666666666" y="1042.9375" type="curve" smooth="yes"/>
      <point x="847.1041666666666" y="917.375"/>
      <point x="783.1041666666666" y="853.0625"/>
      <point x="655.1041666666666" y="780.8958333333334" type="curve"/>
      <point x="468.3125" y="841.375"/>
      <point x="352.8958333333333" y="879.1041666666666"/>
    </contour>
  </outline>
</glyph>
<glyph name="nine" format="2">
  <advance width="1200.0"/>
  <unicode hex="0039"/>
  <outline>
    <contour>
      <point x="578.8958333333334" y="1397.1041666666667" type="curve" smooth="yes"/>
      <point x="331.2083333333333" y="1397.1041666666667"/>
      <point x="133.25" y="1239.7291666666667"/>
      <point x="133.25" y="944.5833333333334" type="curve"/>
      <point x="133.25" y="669.4166666666666"/>
      <point x="298.0" y="505.2083333333333"/>
      <point x="526.7916666666666" y="505.2083333333333" type="curve" smooth="yes"/>
      <point x="682.75" y="505.2083333333333"/>
      <point x="794.9375" y="589.1041666666666"/>
      <point x="877.2916666666666" y="706.8333333333334" type="curve"/>
      <point x="878.2083333333334" y="853.2291666666666" type="line"/>
      <point x="789.1041666666666" y="721.7291666666666"/>
      <point x="695.2083333333334" y="639.1041666666666"/>
      <point x="557.7291666666666" y="639.1041666666666" type="curve" smooth="yes"/>
      <point x="401.0625" y="639.1041666666666"/>
      <point x="307.1041666666667" y="728.625"/>
      <point x="307.1041666666667" y="938.9375" type="curve"/>
      <point x="307.1041666666667" y="1150.0"/>
      <point x="399.6875" y="1260.75"/>
      <point x="579.2083333333334" y="1260.75" type="curve" smooth="yes"/>
      <point x="766.875" y="1260.75"/>
      <point x="854.0" y="1134.9375"/>
      <point x="853.0833333333334" y="790.8333333333334" type="curve"/>
      <point x="850.0" y="695.3958333333334" type="line"/>
      <point x="839.6875" y="349.9791666666667"/>
      <point x="645.8958333333334" y="194.95833333333334"/>
      <point x="255.20833333333334" y="85.6875" type="curve"/>
      <point x="294.0" y="-42.270833333333336" type="line"/>
      <point x="808.9375" y="99.54166666666667"/>
      <point x="1028.0" y="277.4166666666667"/>
      <point x="1028.0" y="834.0833333333334" type="curve" smooth="yes"/>
      <point x="1028.0" y="1179.8125"/>
      <point x="878.5833333333334" y="1397.1041666666667"/>
    </contour>
  </outline>
</glyph>
<glyph name="colon" format="2">
  <advance width="1200.0"/>
  <unicode hex="003A"/>
  <outline>
    <contour>
      <point x="436.7916666666667" y="140.0" type="curve" smooth="yes"/>
      <point x="436.7916666666667" y="48.895833333333336"/>
      <point x="506.8958333333333" y="-23.208333333333332"/>
      <point x="597.6875" y="-23.208333333333332" type="curve" smooth="yes"/>
      <point x="690.7916666666666" y="-23.208333333333332"/>
      <point x="761.2083333333334" y="48.895833333333336"/>
      <point x="761.2083333333334" y="140.0" type="curve" smooth="yes"/>
      <point x="761.2083333333334" y="226.79166666666666"/>
      <point x="690.7916666666666" y="300.75"/>
      <point x="597.6875" y="300.75" type="curve" smooth="yes"/>
      <point x="506.8958333333333" y="300.75"/>
      <point x="436.7916666666667" y="226.79166666666666"/>
    </contour>
    <contour>
      <point x="436.7916666666667" y="861.0625" type="curve" smooth="yes"/>
      <point x="436.7916666666667" y="771.7291666666666"/>
      <point x="506.8958333333333" y="698.3125"/>
      <point x="597.6875" y="698.3125" type="curve" smooth="yes"/>
      <point x="690.7916666666666" y="698.3125"/>
      <point x="761.2083333333334" y="771.7291666666666"/>
      <point x="761.2083333333334" y="861.0625" type="curve" smooth="yes"/>
      <point x="761.2083333333334" y="950.9375"/>
      <point x="690.7916666666666" y="1021.7291666666666"/>
      <point x="597.6875" y="1021.7291666666666" type="curve" smooth="yes"/>
      <point x="506.8958333333333" y="1021.7291666666666"/>
      <point x="436.7916666666667" y="950.9375"/>
    </contour>
  </outline>
</glyph>
<glyph name="semicolon" format="2">
  <advance width="1200.0"/>
  <unicode hex="003B"/>
  <outline>
    <contour>
      <point x="597.6875" y="330.7916666666667" type="curve" smooth="yes"/>
      <point x="507.2083333333333" y="330.7916666666667"/>
      <point x="436.7916666666667" y="258.75"/>
      <point x="436.7916666666667" y="170.27083333333334" type="curve" smooth="yes"/>
      <point x="436.7916666666667" y="116.3125"/>
      <point x="462.3125" y="65.10416666666667"/>
      <point x="502.5833333333333" y="36.583333333333336" type="curve"/>
      <point x="406.8958333333333" y="-360.3125" type="line"/>
      <point x="559.25" y="-360.3125" type="line"/>
      <point x="721.375" y="11.729166666666668" type="line" smooth="yes"/>
      <point x="751.25" y="75.375"/>
      <point x="761.2083333333334" y="121.25"/>
      <point x="761.2083333333334" y="170.58333333333334" type="curve" smooth="yes"/>
      <point x="761.2083333333334" y="258.75"/>
      <point x="691.25" y="330.7916666666667"/>
    </contour>
    <contour>
      <point x="597.6875" y="1021.7291666666666" type="curve" smooth="yes"/>
      <point x="506.8958333333333" y="1021.7291666666666"/>
      <point x="436.7916666666667" y="950.9375"/>
      <point x="436.7916666666667" y="861.0625" type="curve" smooth="yes"/>
      <point x="436.7916666666667" y="771.7291666666666"/>
      <point x="506.8958333333333" y="698.3125"/>
      <point x="597.6875" y="698.3125" type="curve" smooth="yes"/>
      <point x="690.7916666666666" y="698.3125"/>
      <point x="761.2083333333334" y="771.7291666666666"/>
      <point x="761.2083333333334" y="861.0625" type="curve" smooth="yes"/>
      <point x="761.2083333333334" y="950.9375"/>
      <point x="690.7916666666666" y="1021.7291666666666"/>
    </contour>
  </outline>
</glyph>
<glyph name="less" format="2">
  <advance width="1200.0"/>
  <unicode hex="003C"/>
  <outline>
    <contour>
      <point x="944.5833333333334" y="1188.0" type="line"/>
      <point x="176.0" y="712.7916666666666" type="line"/>
      <point x="176.0" y="541.2083333333334" type="line"/>
      <point x="935.7291666666666" y="65.6875" type="line"/>
      <point x="1026.3125" y="188.9375" type="line"/>
      <point x="320.2708333333333" y="625.6875" type="line"/>
      <point x="1026.3125" y="1059.4166666666667" type="line"/>
    </contour>
  </outline>
</glyph>
<glyph name="greater" format="2">
  <advance width="1200.0"/>
  <unicode hex="003E"/>
  <outline>
    <contour>
      <point x="257.4166666666667" y="1188.0" type="line"/>
      <point x="176.0" y="1061.2083333333333" type="line"/>
      <point x="882.2708333333334" y="625.6875" type="line"/>
      <point x="176.0" y="189.72916666666666" type="line"/>
      <point x="266.5833333333333" y="65.6875" type="line"/>
      <point x="1026.3125" y="541.2083333333334" type="line"/>
      <point x="1026.3125" y="713.25" type="line"/>
    </contour>
  </outline>
</glyph>
<glyph name="question" format="2">
  <advance width="1200.0"/>
  <unicode hex="003F"/>
  <outline>
    <contour>
      <point x="598.9375" y="1399.4166666666667" type="curve" smooth="yes"/>
      <point x="437.7291666666667" y="1399.4166666666667"/>
      <point x="295.375" y="1337.6875"/>
      <point x="179.0625" y="1201.375" type="curve"/>
      <point x="298.8958333333333" y="1113.2083333333333" type="line"/>
      <point x="381.6875" y="1215.25"/>
      <point x="487.4166666666667" y="1259.1041666666667"/>
      <point x="582.2708333333334" y="1259.1041666666667" type="curve" smooth="yes"/>
      <point x="716.8958333333334" y="1259.1041666666667"/>
      <point x="818.5833333333334" y="1195.2083333333333"/>
      <point x="818.5833333333334" y="1080.5833333333333" type="curve" smooth="yes"/>
      <point x="818.5833333333334" y="862.1666666666666"/>
      <point x="463.6875" y="857.2083333333334"/>
      <point x="463.6875" y="533.25" type="curve" smooth="yes"/>
      <point x="463.6875" y="453.7291666666667" type="line"/>
      <point x="633.2083333333334" y="453.7291666666667" type="line"/>
      <point x="633.2083333333334" y="523.25" type="line" smooth="yes"/>
      <point x="633.2083333333334" y="800.4166666666666"/>
      <point x="993.4166666666666" y="771.25"/>
      <point x="993.4166666666666" y="1090.625" type="curve" smooth="yes"/>
      <point x="993.4166666666666" y="1248.5833333333333"/>
      <point x="844.5833333333334" y="1399.4166666666667"/>
    </contour>
    <contour>
      <point x="553.1041666666666" y="244.75" type="curve" smooth="yes"/>
      <point x="478.3125" y="244.75"/>
      <point x="420.8958333333333" y="185.10416666666666"/>
      <point x="420.8958333333333" y="112.3125" type="curve" smooth="yes"/>
      <point x="420.8958333333333" y="37.208333333333336"/>
      <point x="478.3125" y="-23.208333333333332"/>
      <point x="553.1041666666666" y="-23.208333333333332" type="curve" smooth="yes"/>
      <point x="630.75" y="-23.208333333333332"/>
      <point x="688.625" y="37.208333333333336"/>
      <point x="688.625" y="112.3125" type="curve" smooth="yes"/>
      <point x="688.625" y="185.10416666666666"/>
      <point x="630.75" y="244.75"/>
    </contour>
  </outline>
</glyph>
<glyph name="at" format="2">
  <advance width="1200.0"/>
  <unicode hex="0040"/>
  <outline>
    <contour>
      <point x="567.0625" y="1399.4166666666667" type="curve" smooth="yes"/>
      <point x="389.375" y="1399.4166666666667"/>
      <point x="198.27083333333334" y="1336.8958333333333"/>
      <point x="18.583333333333336" y="1180.75" type="curve"/>
      <point x="115.0625" y="1069.2083333333333" type="line"/>
      <point x="285.25" y="1218.625"/>
      <point x="438.8958333333333" y="1253.2083333333333"/>
      <point x="568.7916666666666" y="1253.2083333333333" type="curve" smooth="yes"/>
      <point x="936.5833333333334" y="1253.2083333333333"/>
      <point x="998.9375" y="949.0625"/>
      <point x="998.9375" y="567.0625" type="curve" smooth="yes"/>
      <point x="998.9375" y="225.20833333333334"/>
      <point x="999.1041666666666" y="-45.72916666666667"/>
      <point x="874.3125" y="-45.72916666666667" type="curve" smooth="yes"/>
      <point x="795.4166666666666" y="-45.72916666666667"/>
      <point x="733.4166666666666" y="1.4166666666666643"/>
      <point x="733.4166666666666" y="217.25" type="curve" smooth="yes"/>
      <point x="733.4166666666666" y="808.0" type="line"/>
      <point x="621.1041666666666" y="868.0"/>
      <point x="544.2708333333334" y="882.8958333333334"/>
      <point x="451.375" y="882.8958333333334" type="curve" smooth="yes"/>
      <point x="204.3125" y="882.8958333333334"/>
      <point x="58.75" y="714.75"/>
      <point x="58.75" y="367.25" type="curve" smooth="yes"/>
      <point x="58.75" y="102.3125"/>
      <point x="143.20833333333334" y="-91.0625"/>
      <point x="360.9375" y="-91.0625" type="curve" smooth="yes"/>
      <point x="520.8958333333334" y="-91.0625"/>
      <point x="596.9375" y="10.895833333333334"/>
      <point x="634.0" y="103.41666666666667" type="curve"/>
      <point x="642.0" y="103.41666666666667" type="line"/>
      <point x="639.7291666666666" y="5.0625"/>
      <point x="709.7291666666666" y="-181.0625"/>
      <point x="877.375" y="-181.0625" type="curve" smooth="yes"/>
      <point x="1117.7291666666667" y="-181.0625"/>
      <point x="1170.7916666666667" y="65.41666666666667"/>
      <point x="1170.7916666666667" y="569.4166666666666" type="curve" smooth="yes"/>
      <point x="1170.7916666666667" y="977.6875"/>
      <point x="1083.6875" y="1399.4166666666667"/>
    </contour>
    <contour>
      <point x="459.25" y="758.8958333333334" type="curve" smooth="yes"/>
      <point x="507.2083333333333" y="758.8958333333334"/>
      <point x="544.9375" y="750.5833333333334"/>
      <point x="586.8958333333334" y="729.1041666666666" type="curve"/>
      <point x="586.8958333333334" y="210.9375" type="line"/>
      <point x="563.25" y="152.79166666666666"/>
      <point x="520.2708333333334" y="35.25"/>
      <point x="380.9375" y="35.25" type="curve" smooth="yes"/>
      <point x="259.6875" y="35.25"/>
      <point x="222.27083333333334" y="171.375"/>
      <point x="222.27083333333334" y="367.25" type="curve" smooth="yes"/>
      <point x="222.27083333333334" y="624.7916666666666"/>
      <point x="276.9375" y="758.8958333333334"/>
    </contour>
  </outline>
</glyph>
<glyph name="A" format="2">
  <advance width="1200.0"/>
  <unicode hex="0041"/>
  <anchor x="595.6875" y="0.0" name="bottom"/>
  <anchor x="1096.7916666666667" y="0.0" name="ogonek"/>
  <anchor x="600.0" y="1376.75" name="top"/>
  <anchor x="395.6875" y="1376.75" name="topleft"/>
  <outline>
    <contour>
      <point x="867.0625" y="351.4166666666667" type="line"/>
      <point x="977.0625" y="0.0" type="line"/>
      <point x="1159.25" y="0.0" type="line"/>
      <point x="710.5833333333334" y="1376.75" type="line"/>
      <point x="489.1041666666667" y="1376.75" type="line"/>
      <point x="41.208333333333336" y="0.0" type="line"/>
      <point x="212.3125" y="0.0" type="line"/>
      <point x="322.3125" y="351.4166666666667" type="line"/>
    </contour>
    <contour>
      <point x="367.375" y="495.375" type="line"/>
      <point x="596.0" y="1230.9375" type="line"/>
      <point x="822.3125" y="495.375" type="line"/>
    </contour>
  </outline>
</glyph>
<glyph name="B" format="2">
  <advance width="1200.0"/>
  <unicode hex="0042"/>
  <anchor x="600.0" y="0.0" name="bottom"/>
  <anchor x="600.0" y="1376.75" name="top"/>
  <outline>
    <contour>
      <point x="895.7291666666666" y="386.625" type="curve" smooth="yes"/>
      <point x="895.7291666666666" y="183.20833333333334"/>
      <point x="728.3125" y="143.41666666666666"/>
      <point x="593.375" y="143.41666666666666" type="curve" smooth="yes"/>
      <point x="366.0" y="143.41666666666666" type="line"/>
      <point x="366.0" y="647.6875" type="line"/>
      <point x="601.2083333333334" y="647.6875" type="line" smooth="yes"/>
      <point x="760.7916666666666" y="647.6875"/>
      <point x="895.7291666666666" y="595.0625"/>
    </contour>
    <contour>
      <point x="841.4166666666666" y="1020.5833333333334" type="curve" smooth="yes"/>
      <point x="841.4166666666666" y="859.4166666666666"/>
      <point x="750.5833333333334" y="791.375"/>
      <point x="588.0" y="791.375" type="curve" smooth="yes"/>
      <point x="366.0" y="791.375" type="line"/>
      <point x="366.0" y="1237.25" type="line"/>
      <point x="571.0625" y="1237.25" type="line" smooth="yes"/>
      <point x="737.4166666666666" y="1237.25"/>
      <point x="841.4166666666666" y="1177.375"/>
    </contour>
    <contour>
      <point x="1078.7916666666667" y="392.8958333333333" type="curve" smooth="yes"/>
      <point x="1078.7916666666667" y="625.6875"/>
      <point x="915.1041666666666" y="703.0625"/>
      <point x="763.25" y="729.375" type="curve"/>
      <point x="894.625" y="758.75"/>
      <point x="1018.7916666666666" y="852.8958333333334"/>
      <point x="1018.7916666666666" y="1029.6875" type="curve" smooth="yes"/>
      <point x="1018.7916666666666" y="1299.6875"/>
      <point x="772.7916666666666" y="1376.75"/>
      <point x="531.7291666666666" y="1376.75" type="curve" smooth="yes"/>
      <point x="192.9375" y="1376.75" type="line"/>
      <point x="192.9375" y="0.0" type="line"/>
      <point x="562.75" y="0.0" type="line" smooth="yes"/>
      <point x="815.7291666666666" y="0.0"/>
      <point x="1078.7916666666667" y="92.9375"/>
    </contour>
  </outline>
</glyph>
<glyph name="C" format="2">
  <advance width="1200.0"/>
  <unicode hex="0043"/>
  <anchor x="699.375" y="0.0" name="bottom"/>
  <anchor x="731.25" y="1376.75" name="top"/>
  <outline>
    <contour>
      <point x="716.0" y="1399.4166666666667" type="curve" smooth="yes"/>
      <point x="396.7916666666667" y="1399.4166666666667"/>
      <point x="126.58333333333334" y="1153.0625"/>
      <point x="126.58333333333334" y="689.0625" type="curve" smooth="yes"/>
      <point x="126.58333333333334" y="226.9375"/>
      <point x="387.4166666666667" y="-23.208333333333332"/>
      <point x="722.7916666666666" y="-23.208333333333332" type="curve" smooth="yes"/>
      <point x="919.0625" y="-23.208333333333332"/>
      <point x="1051.1041666666667" y="45.375"/>
      <point x="1135.0625" y="126.79166666666667" type="curve"/>
      <point x="1045.4166666666667" y="241.25" type="line"/>
      <point x="972.2708333333334" y="180.79166666666666"/>
      <point x="878.7916666666666" y="125.72916666666666"/>
      <point x="725.375" y="125.72916666666666" type="curve" smooth="yes"/>
      <point x="490.8958333333333" y="125.72916666666666"/>
      <point x="306.7916666666667" y="278.75"/>
      <point x="306.7916666666667" y="689.0625" type="curve" smooth="yes"/>
      <point x="306.7916666666667" y="1110.0"/>
      <point x="502.75" y="1254.3125"/>
      <point x="728.625" y="1254.3125" type="curve" smooth="yes"/>
      <point x="834.3125" y="1254.3125"/>
      <point x="930.9375" y="1225.1041666666667"/>
      <point x="1017.7291666666666" y="1152.3125" type="curve"/>
      <point x="1114.75" y="1265.375" type="line"/>
      <point x="1005.6875" y="1352.8958333333333"/>
      <point x="895.7291666666666" y="1399.4166666666667"/>
    </contour>
  </outline>
</glyph>
<glyph name="D" format="2">
  <advance width="1200.0"/>
  <unicode hex="0044"/>
  <anchor x="600.0" y="0.0" name="bottom"/>
  <anchor x="600.0" y="689.375" name="center"/>
  <anchor x="567.0625" y="1376.75" name="top"/>
  <outline>
    <contour>
      <point x="920.0" y="695.375" type="curve" smooth="yes"/>
      <point x="920.0" y="239.41666666666666"/>
      <point x="701.7291666666666" y="139.10416666666666"/>
      <point x="504.3125" y="139.10416666666666" type="curve" smooth="yes"/>
      <point x="340.2708333333333" y="139.10416666666666" type="line"/>
      <point x="340.2708333333333" y="1235.1041666666667" type="line"/>
      <point x="502.0" y="1235.1041666666667" type="line" smooth="yes"/>
      <point x="691.4166666666666" y="1235.1041666666667"/>
      <point x="920.0" y="1174.75"/>
    </contour>
    <contour>
      <point x="1105.0625" y="695.375" type="curve" smooth="yes"/>
      <point x="1105.0625" y="1267.375"/>
      <point x="782.7916666666666" y="1376.75"/>
      <point x="460.9375" y="1376.75" type="curve" smooth="yes"/>
      <point x="167.20833333333334" y="1376.75" type="line"/>
      <point x="167.20833333333334" y="0.0" type="line"/>
      <point x="482.625" y="0.0" type="line" smooth="yes"/>
      <point x="768.2708333333334" y="0.0"/>
      <point x="1105.0625" y="118.27083333333333"/>
    </contour>
  </outline>
</glyph>
<glyph name="E" format="2">
  <advance width="1200.0"/>
  <unicode hex="0045"/>
  <anchor x="650.7916666666666" y="0.0" name="bottom"/>
  <anchor x="956.3125" y="0.0" name="ogonek"/>
  <anchor x="642.3125" y="1376.75" name="top"/>
  <anchor x="230.75" y="1376.75" name="topleft"/>
  <outline>
    <contour>
      <point x="424.5833333333333" y="1235.25" type="line"/>
      <point x="1012.75" y="1235.25" type="line"/>
      <point x="1033.4166666666667" y="1376.75" type="line"/>
      <point x="250.75" y="1376.75" type="line"/>
      <point x="250.75" y="0.0" type="line"/>
      <point x="1051.375" y="0.0" type="line"/>
      <point x="1051.375" y="139.41666666666666" type="line"/>
      <point x="424.5833333333333" y="139.41666666666666" type="line"/>
      <point x="424.5833333333333" y="628.3125" type="line"/>
      <point x="935.4166666666666" y="628.3125" type="line"/>
      <point x="935.4166666666666" y="771.2083333333334" type="line"/>
      <point x="424.5833333333333" y="771.2083333333334" type="line"/>
    </contour>
  </outline>
</glyph>
<glyph name="F" format="2">
  <advance width="1200.0"/>
  <unicode hex="0046"/>
  <anchor x="600.0" y="0.0" name="bottom"/>
  <anchor x="600.0" y="1376.75" name="top"/>
  <outline>
    <contour>
      <point x="449.4166666666667" y="1235.25" type="line"/>
      <point x="1066.7916666666667" y="1235.25" type="line"/>
      <point x="1087.6875" y="1376.75" type="line"/>
      <point x="276.8958333333333" y="1376.75" type="line"/>
      <point x="276.8958333333333" y="0.0" type="line"/>
      <point x="449.4166666666667" y="0.0" type="line"/>
      <point x="449.4166666666667" y="613.2083333333334" type="line"/>
      <point x="989.375" y="613.2083333333334" type="line"/>
      <point x="989.375" y="752.625" type="line"/>
      <point x="449.4166666666667" y="752.625" type="line"/>
    </contour>
  </outline>
</glyph>
<glyph name="G" format="2">
  <advance width="1200.0"/>
  <unicode hex="0047"/>
  <anchor x="660.9375" y="0.0" name="bottom"/>
  <anchor x="660.0" y="1376.75" name="top"/>
  <outline>
    <contour>
      <point x="627.1041666666666" y="-23.208333333333332" type="curve" smooth="yes"/>
      <point x="822.2708333333334" y="-23.208333333333332"/>
      <point x="953.0625" y="29.25"/>
      <point x="1077.4166666666667" y="96.75" type="curve"/>
      <point x="1077.4166666666667" y="753.375" type="line"/>
      <point x="613.0625" y="753.375" type="line"/>
      <point x="634.2708333333334" y="608.9375" type="line"/>
      <point x="904.625" y="608.9375" type="line"/>
      <point x="904.625" y="189.41666666666666" type="line"/>
      <point x="824.7916666666666" y="145.6875"/>
      <point x="738.2708333333334" y="122.75"/>
      <point x="643.2083333333334" y="122.75" type="curve" smooth="yes"/>
      <point x="402.9375" y="122.75"/>
      <point x="276.625" y="289.375"/>
      <point x="276.625" y="689.375" type="curve" smooth="yes"/>
      <point x="276.625" y="1113.6875"/>
      <point x="468.8958333333333" y="1253.6875"/>
      <point x="668.0" y="1253.6875" type="curve" smooth="yes"/>
      <point x="781.4166666666666" y="1253.6875"/>
      <point x="871.6875" y="1217.6875"/>
      <point x="955.6875" y="1139.0625" type="curve"/>
      <point x="1060.625" y="1247.6875" type="line"/>
      <point x="952.625" y="1347.375"/>
      <point x="847.0625" y="1399.4166666666667"/>
      <point x="667.4166666666666" y="1399.4166666666667" type="curve" smooth="yes"/>
      <point x="370.625" y="1399.4166666666667"/>
      <point x="91.25" y="1163.375"/>
      <point x="91.25" y="689.0625" type="curve" smooth="yes"/>
      <point x="91.25" y="213.0625"/>
      <point x="300.9375" y="-23.208333333333332"/>
    </contour>
  </outline>
</glyph>
<glyph name="H" format="2">
  <advance width="1200.0"/>
  <unicode hex="0048"/>
  <anchor x="600.0" y="0.0" name="bottom"/>
  <anchor x="1052.7916666666667" y="0.0" name="bottomright"/>
  <anchor x="600.0" y="689.375" name="center"/>
  <anchor x="600.0" y="1376.75" name="top"/>
  <anchor x="147.20833333333334" y="1376.75" name="topleft"/>
  <outline>
    <contour>
      <point x="859.7291666666666" y="0.0" type="line"/>
      <point x="1032.7916666666667" y="0.0" type="line"/>
      <point x="1032.7916666666667" y="1376.75" type="line"/>
      <point x="859.7291666666666" y="1376.75" type="line"/>
      <point x="859.7291666666666" y="795.4166666666666" type="line"/>
      <point x="340.2708333333333" y="795.4166666666666" type="line"/>
      <point x="340.2708333333333" y="1376.75" type="line"/>
      <point x="167.20833333333334" y="1376.75" type="line"/>
      <point x="167.20833333333334" y="0.0" type="line"/>
      <point x="340.2708333333333" y="0.0" type="line"/>
      <point x="340.2708333333333" y="653.375" type="line"/>
      <point x="859.7291666666666" y="653.375" type="line"/>
    </contour>
  </outline>
</glyph>
<glyph name="I" format="2">
  <advance width="1200.0"/>
  <unicode hex="0049"/>
  <anchor x="600.0" y="0.0" name="bottom"/>
  <anchor x="707.6875" y="0.0" name="ogonek"/>
  <anchor x="600.0" y="1376.75" name="top"/>
  <anchor x="186.27083333333334" y="1376.75" name="topleft"/>
  <outline>
    <contour>
      <point x="993.7291666666666" y="1376.75" type="line"/>
      <point x="206.27083333333334" y="1376.75" type="line"/>
      <point x="206.27083333333334" y="1237.7291666666667" type="line"/>
      <point x="512.3125" y="1237.7291666666667" type="line"/>
      <point x="512.3125" y="139.25" type="line"/>
      <point x="206.27083333333334" y="139.25" type="line"/>
      <point x="206.27083333333334" y="0.0" type="line"/>
      <point x="993.7291666666666" y="0.0" type="line"/>
      <point x="993.7291666666666" y="139.25" type="line"/>
      <point x="687.6875" y="139.25" type="line"/>
      <point x="687.6875" y="1237.7291666666667" type="line"/>
      <point x="993.7291666666666" y="1237.7291666666667" type="line"/>
    </contour>
  </outline>
</glyph>
<glyph name="J" format="2">
  <advance width="1200.0"/>
  <unicode hex="004A"/>
  <anchor x="600.0" y="0.0" name="bottom"/>
  <anchor x="699.375" y="1376.75" name="top"/>
  <outline>
    <contour>
      <point x="993.1041666666666" y="1376.75" type="line"/>
      <point x="412.0" y="1376.75" type="line"/>
      <point x="412.0" y="1235.4166666666667" type="line"/>
      <point x="820.2708333333334" y="1235.4166666666667" type="line"/>
      <point x="820.2708333333334" y="467.25" type="line" smooth="yes"/>
      <point x="820.2708333333334" y="252.89583333333334"/>
      <point x="712.2708333333334" y="122.27083333333333"/>
      <point x="520.9375" y="122.27083333333333" type="curve" smooth="yes"/>
      <point x="439.0625" y="122.27083333333333"/>
      <point x="340.9375" y="141.41666666666666"/>
      <point x="222.27083333333334" y="217.20833333333334" type="curve"/>
      <point x="145.0625" y="102.3125" type="line"/>
      <point x="254.27083333333334" y="20.3125"/>
      <point x="387.375" y="-23.0625"/>
      <point x="523.2083333333334" y="-23.0625" type="curve" smooth="yes"/>
      <point x="885.6875" y="-23.0625"/>
      <point x="993.1041666666666" y="227.41666666666666"/>
      <point x="993.1041666666666" y="457.375" type="curve" smooth="yes"/>
    </contour>
  </outline>
</glyph>
<glyph name="K" format="2">
  <advance width="1200.0"/>
  <unicode hex="004B"/>
  <anchor x="644.9375" y="0.0" name="bottom"/>
  <anchor x="653.4166666666666" y="1376.75" name="top"/>
  <outline>
    <contour>
      <point x="382.7916666666667" y="0.0" type="line"/>
      <point x="382.7916666666667" y="1376.75" type="line"/>
      <point x="209.72916666666666" y="1376.75" type="line"/>
      <point x="209.72916666666666" y="0.0" type="line"/>
    </contour>
    <contour>
      <point x="392.7916666666667" y="735.375" type="line"/>
      <point x="957.25" y="0.0" type="line"/>
      <point x="1173.0625" y="0.0" type="line"/>
      <point x="597.375" y="746.2708333333334" type="line"/>
      <point x="1135.0625" y="1376.75" type="line"/>
      <point x="935.2083333333334" y="1376.75" type="line"/>
    </contour>
  </outline>
</glyph>
<glyph name="L" format="2">
  <advance width="1200.0"/>
  <unicode hex="004C"/>
  <anchor x="662.75" y="0.0" name="bottom"/>
  <anchor x="942.7916666666666" y="759.2083333333334" name="center"/>
  <anchor x="359.25" y="1376.75" name="top"/>
  <anchor x="544.625" y="1376.75" name="topright"/>
  <outline>
    <contour>
      <point x="270.7916666666667" y="0.0" type="line"/>
      <point x="1053.25" y="0.0" type="line"/>
      <point x="1073.375" y="154.9375" type="line"/>
      <point x="444.625" y="154.9375" type="line"/>
      <point x="444.625" y="1376.75" type="line"/>
      <point x="270.7916666666667" y="1376.75" type="line"/>
    </contour>
  </outline>
</glyph>
<glyph name="M" format="2">
  <advance width="1200.0"/>
  <unicode hex="004D"/>
  <anchor x="600.0" y="0.0" name="bottom"/>
  <anchor x="1122.3125" y="0.0" name="bottomright"/>
  <anchor x="600.0" y="1376.75" name="top"/>
  <outline>
    <contour>
      <point x="1060.7916666666667" y="1376.75" type="line"/>
      <point x="817.0625" y="1376.75" type="line"/>
      <point x="604.0" y="433.7291666666667" type="line"/>
      <point x="380.625" y="1376.75" type="line"/>
      <point x="139.20833333333334" y="1376.75" type="line"/>
      <point x="61.208333333333336" y="0.0" type="line"/>
      <point x="224.27083333333334" y="0.0" type="line"/>
      <point x="261.25" y="720.5833333333334" type="line" smooth="yes"/>
      <point x="269.1041666666667" y="893.25"/>
      <point x="265.9583333333333" y="1140.8958333333333"/>
      <point x="263.0625" y="1218.0" type="curve"/>
      <point x="512.0" y="246.79166666666666" type="line"/>
      <point x="686.0" y="246.79166666666666" type="line"/>
      <point x="918.3125" y="1218.0" type="line"/>
      <point x="916.6458333333334" y="1138.6041666666667"/>
      <point x="918.4375" y="910.8958333333334"/>
      <point x="929.0625" y="719.4166666666666" type="curve" smooth="yes"/>
      <point x="972.2708333333334" y="0.0" type="line"/>
      <point x="1138.7916666666667" y="0.0" type="line"/>
    </contour>
  </outline>
</glyph>
<glyph name="N" format="2">
  <advance width="1200.0"/>
  <unicode hex="004E"/>
  <anchor x="600.0" y="0.0" name="bottom"/>
  <anchor x="597.4166666666666" y="1376.75" name="top"/>
  <outline>
    <contour>
      <point x="789.7291666666666" y="0.0" type="line"/>
      <point x="1032.7916666666667" y="0.0" type="line"/>
      <point x="1032.7916666666667" y="1376.75" type="line"/>
      <point x="871.7291666666666" y="1376.75" type="line"/>
      <point x="871.7291666666666" y="687.7291666666666" type="line" smooth="yes"/>
      <point x="871.7291666666666" y="440.2708333333333"/>
      <point x="892.7916666666666" y="218.0"/>
      <point x="894.75" y="161.375" type="curve"/>
      <point x="402.0" y="1376.75" type="line"/>
      <point x="167.20833333333334" y="1376.75" type="line"/>
      <point x="167.20833333333334" y="0.0" type="line"/>
      <point x="328.2708333333333" y="0.0" type="line"/>
      <point x="328.2708333333333" y="690.2708333333334" type="line" smooth="yes"/>
      <point x="328.2708333333333" y="903.2083333333334"/>
      <point x="307.0625" y="1150.9375"/>
      <point x="305.25" y="1210.5833333333333" type="curve"/>
    </contour>
  </outline>
</glyph>
<glyph name="O" format="2">
  <advance width="1200.0"/>
  <unicode hex="004F"/>
  <anchor x="600.0" y="0.0" name="bottom"/>
  <anchor x="600.0" y="1376.75" name="top"/>
  <anchor x="210.58333333333334" y="1376.75" name="topleft"/>
  <outline>
    <contour>
      <point x="1107.2083333333333" y="687.0625" type="curve" smooth="yes"/>
      <point x="1107.2083333333333" y="1112.9375"/>
      <point x="935.25" y="1399.4166666666667"/>
      <point x="600.0" y="1399.4166666666667" type="curve" smooth="yes"/>
      <point x="264.75" y="1399.4166666666667"/>
      <point x="92.79166666666667" y="1102.9375"/>
      <point x="92.79166666666667" y="684.75" type="curve" smooth="yes"/>
      <point x="92.79166666666667" y="259.4166666666667"/>
      <point x="264.75" y="-23.208333333333332"/>
      <point x="600.0" y="-23.208333333333332" type="curve" smooth="yes"/>
      <point x="935.25" y="-23.208333333333332"/>
      <point x="1107.2083333333333" y="269.4166666666667"/>
    </contour>
    <contour>
      <point x="925.375" y="687.0625" type="curve" smooth="yes"/>
      <point x="925.375" y="320.0"/>
      <point x="831.6875" y="122.75"/>
      <point x="600.0" y="122.75" type="curve" smooth="yes"/>
      <point x="374.3125" y="122.75"/>
      <point x="274.625" y="318.3125"/>
      <point x="274.625" y="684.75" type="curve" smooth="yes"/>
      <point x="274.625" y="1051.7291666666667"/>
      <point x="367.6875" y="1253.6875"/>
      <point x="600.0" y="1253.6875" type="curve" smooth="yes"/>
      <point x="832.3125" y="1253.6875"/>
      <point x="925.375" y="1054.2708333333333"/>
    </contour>
  </outline>
</glyph>
<glyph name="P" format="2">
  <advance width="1200.0"/>
  <unicode hex="0050"/>
  <anchor x="600.0" y="0.0" name="bottom"/>
  <anchor x="600.0" y="1376.75" name="top"/>
  <anchor x="211.375" y="1376.75" name="topleft"/>
  <outline>
    <contour>
      <point x="928.3125" y="951.7291666666666" type="curve" smooth="yes"/>
      <point x="928.3125" y="716.2708333333334"/>
      <point x="788.8958333333334" y="651.2083333333334"/>
      <point x="597.4166666666666" y="651.2083333333334" type="curve" smooth="yes"/>
      <point x="405.2083333333333" y="651.2083333333334" type="line"/>
      <point x="405.2083333333333" y="1239.1041666666667" type="line"/>
      <point x="604.3125" y="1239.1041666666667" type="line" smooth="yes"/>
      <point x="790.5833333333334" y="1239.1041666666667"/>
      <point x="928.3125" y="1165.25"/>
    </contour>
    <contour>
      <point x="1113.6875" y="954.2708333333334" type="curve" smooth="yes"/>
      <point x="1113.6875" y="1242.625"/>
      <point x="910.7916666666666" y="1376.75"/>
      <point x="582.5833333333334" y="1376.75" type="curve" smooth="yes"/>
      <point x="231.375" y="1376.75" type="line"/>
      <point x="231.375" y="0.0" type="line"/>
      <point x="405.2083333333333" y="0.0" type="line"/>
      <point x="405.2083333333333" y="511.1041666666667" type="line"/>
      <point x="581.4166666666666" y="511.1041666666667" type="line" smooth="yes"/>
      <point x="891.6875" y="511.1041666666667"/>
      <point x="1113.6875" y="632.2708333333334"/>
    </contour>
  </outline>
</glyph>
<glyph name="Q" format="2">
  <advance width="1200.0"/>
  <unicode hex="0051"/>
  <anchor x="600.0" y="0.0" name="bottom"/>
  <anchor x="600.0" y="1376.75" name="top"/>
  <outline>
    <contour>
      <point x="1107.375" y="687.0625" type="curve" smooth="yes"/>
      <point x="1107.375" y="1112.9375"/>
      <point x="934.3125" y="1399.4166666666667"/>
      <point x="599.0625" y="1399.4166666666667" type="curve" smooth="yes"/>
      <point x="264.5833333333333" y="1399.4166666666667"/>
      <point x="91.20833333333333" y="1102.9375"/>
      <point x="91.20833333333333" y="684.75" type="curve" smooth="yes"/>
      <point x="91.20833333333333" y="259.4166666666667"/>
      <point x="263.0625" y="-18.75"/>
      <point x="580.0" y="-18.75" type="curve" smooth="yes"/>
      <point x="817.375" y="-18.75"/>
      <point x="918.9375" y="-133.375"/>
      <point x="1002.3125" y="-346.0" type="curve"/>
      <point x="1184.75" y="-274.2708333333333" type="line"/>
      <point x="1118.0" y="-72.625"/>
      <point x="1015.4166666666666" y="15.25"/>
      <point x="822.3125" y="52.791666666666664" type="curve"/>
      <point x="1033.0625" y="169.41666666666666"/>
      <point x="1107.375" y="394.7916666666667"/>
    </contour>
    <contour>
      <point x="927.25" y="687.0625" type="curve" smooth="yes"/>
      <point x="927.25" y="320.0"/>
      <point x="830.75" y="122.75"/>
      <point x="599.0625" y="122.75" type="curve" smooth="yes"/>
      <point x="373.375" y="122.75"/>
      <point x="271.4166666666667" y="318.0"/>
      <point x="271.4166666666667" y="684.75" type="curve" smooth="yes"/>
      <point x="271.4166666666667" y="1052.5833333333333"/>
      <point x="366.75" y="1254.0"/>
      <point x="599.0625" y="1254.0" type="curve" smooth="yes"/>
      <point x="831.0625" y="1254.0"/>
      <point x="927.25" y="1054.5833333333333"/>
    </contour>
  </outline>
</glyph>
<glyph name="R" format="2">
  <advance width="1200.0"/>
  <unicode hex="0052"/>
  <anchor x="597.4166666666666" y="0.0" name="bottom"/>
  <anchor x="600.0" y="1376.75" name="top"/>
  <outline>
    <contour>
      <point x="1075.2083333333333" y="991.2083333333334" type="curve" smooth="yes"/>
      <point x="1075.2083333333333" y="1245.0625"/>
      <point x="896.625" y="1376.75"/>
      <point x="556.625" y="1376.75" type="curve" smooth="yes"/>
      <point x="203.10416666666666" y="1376.75" type="line"/>
      <point x="203.10416666666666" y="0.0" type="line"/>
      <point x="376.9375" y="0.0" type="line"/>
      <point x="376.9375" y="590.8958333333334" type="line"/>
      <point x="563.2083333333334" y="590.8958333333334" type="line"/>
      <point x="938.75" y="0.0" type="line"/>
      <point x="1147.1041666666667" y="0.0" type="line"/>
      <point x="738.625" y="611.2083333333334" type="line"/>
      <point x="928.3125" y="656.7916666666666"/>
      <point x="1075.2083333333333" y="783.7291666666666"/>
    </contour>
    <contour>
      <point x="889.0625" y="991.2083333333334" type="curve" smooth="yes"/>
      <point x="889.0625" y="800.2708333333334"/>
      <point x="775.0625" y="727.25"/>
      <point x="576.7916666666666" y="727.25" type="curve" smooth="yes"/>
      <point x="376.9375" y="727.25" type="line"/>
      <point x="376.9375" y="1239.25" type="line"/>
      <point x="576.8958333333334" y="1239.25" type="line" smooth="yes"/>
      <point x="789.25" y="1239.25"/>
      <point x="889.0625" y="1167.375"/>
    </contour>
  </outline>
</glyph>
<glyph name="S" format="2">
  <advance width="1200.0"/>
  <unicode hex="0053"/>
  <anchor x="593.0625" y="0.0" name="bottom"/>
  <anchor x="610.75" y="1376.75" name="top"/>
  <outline>
    <contour>
      <point x="1072.7916666666667" y="381.1041666666667" type="curve" smooth="yes"/>
      <point x="1072.7916666666667" y="644.5833333333334"/>
      <point x="885.4166666666666" y="734.0"/>
      <point x="671.2083333333334" y="795.7291666666666" type="curve" smooth="yes"/>
      <point x="408.5833333333333" y="873.2083333333334"/>
      <point x="324.0" y="931.1041666666666"/>
      <point x="324.0" y="1050.9375" type="curve" smooth="yes"/>
      <point x="324.0" y="1187.7291666666667"/>
      <point x="448.625" y="1254.0"/>
      <point x="599.0625" y="1254.0" type="curve" smooth="yes"/>
      <point x="715.6875" y="1254.0"/>
      <point x="832.625" y="1216.0"/>
      <point x="931.25" y="1128.75" type="curve"/>
      <point x="1033.0625" y="1242.0" type="line"/>
      <point x="917.6875" y="1342.8958333333333"/>
      <point x="783.2083333333334" y="1399.4166666666667"/>
      <point x="593.1041666666666" y="1399.4166666666667" type="curve" smooth="yes"/>
      <point x="330.0" y="1399.4166666666667"/>
      <point x="147.41666666666666" y="1251.4166666666667"/>
      <point x="147.41666666666666" y="1045.2083333333333" type="curve" smooth="yes"/>
      <point x="147.41666666666666" y="825.7291666666666"/>
      <point x="319.2083333333333" y="726.625"/>
      <point x="590.7916666666666" y="646.8958333333334" type="curve" smooth="yes"/>
      <point x="827.7291666666666" y="577.1041666666666"/>
      <point x="892.8958333333334" y="511.0625"/>
      <point x="892.8958333333334" y="377.6875" type="curve" smooth="yes"/>
      <point x="892.8958333333334" y="204.9375"/>
      <point x="740.3125" y="122.89583333333333"/>
      <point x="573.25" y="122.89583333333333" type="curve" smooth="yes"/>
      <point x="405.2083333333333" y="122.89583333333333"/>
      <point x="285.0625" y="179.0625"/>
      <point x="190.0" y="269.0625" type="curve"/>
      <point x="87.20833333333334" y="152.89583333333334" type="line"/>
      <point x="203.20833333333334" y="41.208333333333336"/>
      <point x="368.5833333333333" y="-23.208333333333332"/>
      <point x="569.6875" y="-23.208333333333332" type="curve" smooth="yes"/>
      <point x="890.3125" y="-23.208333333333332"/>
      <point x="1072.7916666666667" y="143.6875"/>
    </contour>
  </outline>
</glyph>
<glyph name="T" format="2">
  <advance width="1200.0"/>
  <unicode hex="0054"/>
  <anchor x="598.0" y="0.0" name="bottom"/>
  <anchor x="703.375" y="0.0" name="bottomright"/>
  <anchor x="600.0" y="689.375" name="center"/>
  <anchor x="598.0" y="1376.75" name="top"/>
  <outline>
    <contour>
      <point x="683.375" y="1228.2708333333333" type="line"/>
      <point x="1100.625" y="1228.2708333333333" type="line"/>
      <point x="1119.2083333333333" y="1376.75" type="line"/>
      <point x="79.6875" y="1376.75" type="line"/>
      <point x="79.6875" y="1228.2708333333333" type="line"/>
      <point x="510.3125" y="1228.2708333333333" type="line"/>
      <point x="510.3125" y="0.0" type="line"/>
      <point x="683.375" y="0.0" type="line"/>
    </contour>
  </outline>
</glyph>
<glyph name="U" format="2">
  <advance width="1200.0"/>
  <unicode hex="0055"/>
  <anchor x="600.0" y="0.0" name="bottom"/>
  <anchor x="771.4166666666666" y="0.0" name="ogonek"/>
  <anchor x="600.0" y="1376.75" name="top"/>
  <outline>
    <contour>
      <point x="1055.1041666666667" y="1376.75" type="line"/>
      <point x="880.2708333333334" y="1376.75" type="line"/>
      <point x="880.2708333333334" y="440.3125" type="line" smooth="yes"/>
      <point x="880.2708333333334" y="230.625"/>
      <point x="778.2708333333334" y="126.75"/>
      <point x="597.6875" y="126.75" type="curve" smooth="yes"/>
      <point x="419.4166666666667" y="126.75"/>
      <point x="317.4166666666667" y="230.625"/>
      <point x="317.4166666666667" y="440.3125" type="curve" smooth="yes"/>
      <point x="317.4166666666667" y="1376.75" type="line"/>
      <point x="144.89583333333334" y="1376.75" type="line"/>
      <point x="144.89583333333334" y="446.2708333333333" type="line" smooth="yes"/>
      <point x="144.89583333333334" y="168.0"/>
      <point x="314.8958333333333" y="-23.208333333333332"/>
      <point x="597.6875" y="-23.208333333333332" type="curve" smooth="yes"/>
      <point x="876.9375" y="-23.208333333333332"/>
      <point x="1055.1041666666667" y="166.89583333333334"/>
      <point x="1055.1041666666667" y="446.2708333333333" type="curve" smooth="yes"/>
    </contour>
  </outline>
</glyph>
<glyph name="V" format="2">
  <advance width="1200.0"/>
  <unicode hex="0056"/>
  <anchor x="600.0" y="0.0" name="bottom"/>
  <anchor x="600.0" y="1376.75" name="top"/>
  <outline>
    <contour>
      <point x="603.6875" y="197.41666666666666" type="line"/>
      <point x="236.0" y="1376.75" type="line"/>
      <point x="49.10416666666667" y="1376.75" type="line"/>
      <point x="510.3125" y="0.0" type="line"/>
      <point x="689.6875" y="0.0" type="line"/>
      <point x="1150.5833333333333" y="1376.75" type="line"/>
      <point x="975.6875" y="1376.75" type="line"/>
    </contour>
  </outline>
</glyph>
<glyph name="W" format="2">
  <advance width="1200.0"/>
  <unicode hex="0057"/>
  <anchor x="600.0" y="0.0" name="bottom"/>
  <anchor x="600.0" y="1376.75" name="top"/>
  <outline>
    <contour>
      <point x="1190.5833333333333" y="1376.75" type="line"/>
      <point x="1029.6875" y="1376.75" type="line"/>
      <point x="865.1041666666666" y="190.58333333333334" type="line"/>
      <point x="708.0" y="1216.75" type="line"/>
      <point x="495.375" y="1216.75" type="line"/>
      <point x="330.2708333333333" y="190.58333333333334" type="line"/>
      <point x="183.0625" y="1376.75" type="line"/>
      <point x="9.416666666666668" y="1376.75" type="line"/>
      <point x="202.58333333333334" y="0.0" type="line"/>
      <point x="436.2708333333333" y="0.0" type="line"/>
      <point x="595.0625" y="1038.7916666666667" type="line"/>
      <point x="753.1041666666666" y="0.0" type="line"/>
      <point x="980.7916666666666" y="0.0" type="line"/>
    </contour>
  </outline>
</glyph>
<glyph name="X" format="2">
  <advance width="1200.0"/>
  <unicode hex="0058"/>
  <anchor x="600.0" y="0.0" name="bottom"/>
  <anchor x="1046.3125" y="0.0" name="bottomright"/>
  <anchor x="600.0" y="1376.75" name="top"/>
  <outline>
    <contour>
      <point x="98.89583333333334" y="1376.75" type="line"/>
      <point x="494.2708333333333" y="733.6875" type="line"/>
      <point x="61.72916666666667" y="0.0" type="line"/>
      <point x="248.625" y="0.0" type="line"/>
      <point x="596.0" y="622.2708333333334" type="line"/>
      <point x="938.8958333333334" y="0.0" type="line"/>
      <point x="1137.7291666666667" y="0.0" type="line"/>
      <point x="700.2708333333334" y="743.0625" type="line"/>
      <point x="1090.625" y="1376.75" type="line"/>
      <point x="903.4166666666666" y="1376.75" type="line"/>
      <point x="600.0" y="847.7291666666666" type="line"/>
      <point x="297.7291666666667" y="1376.75" type="line"/>
    </contour>
  </outline>
</glyph>
<glyph name="Y" format="2">
  <advance width="1200.0"/>
  <unicode hex="0059"/>
  <anchor x="600.0" y="0.0" name="bottom"/>
  <anchor x="606.9375" y="1376.75" name="top"/>
  <anchor x="47.208333333333336" y="1376.75" name="topleft"/>
  <outline>
    <contour>
      <point x="687.6875" y="530.7916666666666" type="line"/>
      <point x="1152.7916666666667" y="1376.75" type="line"/>
      <point x="972.75" y="1376.75" type="line"/>
      <point x="603.6875" y="687.25" type="line"/>
      <point x="238.9375" y="1376.75" type="line"/>
      <point x="47.208333333333336" y="1376.75" type="line"/>
      <point x="512.3125" y="528.7916666666666" type="line"/>
      <point x="512.3125" y="0.0" type="line"/>
      <point x="687.6875" y="0.0" type="line"/>
    </contour>
  </outline>
</glyph>
<glyph name="Z" format="2">
  <advance width="1200.0"/>
  <unicode hex="005A"/>
  <anchor x="600.0" y="0.0" name="bottom"/>
  <anchor x="636.7916666666666" y="1376.75" name="top"/>
  <outline>
    <contour>
      <point x="333.7291666666667" y="150.0" type="line"/>
      <point x="1056.5833333333333" y="1234.5833333333333" type="line"/>
      <point x="1056.5833333333333" y="1376.75" type="line"/>
      <point x="214.75" y="1376.75" type="line"/>
      <point x="214.75" y="1228.5833333333333" type="line"/>
      <point x="870.8958333333334" y="1228.5833333333333" type="line"/>
      <point x="142.75" y="140.9375" type="line"/>
      <point x="142.75" y="0.0" type="line"/>
      <point x="1033.7291666666667" y="0.0" type="line"/>
      <point x="1054.625" y="150.0" type="line"/>
    </contour>
  </outline>
</glyph>
<glyph name="bracketleft" format="2">
  <advance width="1200.0"/>
  <unicode hex="005B"/>
  <outline>
    <contour>
      <point x="368.2708333333333" y="-230.58333333333334" type="line"/>
      <point x="869.4166666666666" y="-230.58333333333334" type="line"/>
      <point x="869.4166666666666" y="-88.3125" type="line"/>
      <point x="526.75" y="-88.3125" type="line"/>
      <point x="526.75" y="1486.3125" type="line"/>
      <point x="869.4166666666666" y="1486.3125" type="line"/>
      <point x="869.4166666666666" y="1630.5833333333333" type="line"/>
      <point x="368.2708333333333" y="1630.5833333333333" type="line"/>
    </contour>
  </outline>
</glyph>
<glyph name="backslash" format="2">
  <advance width="1200.0"/>
  <unicode hex="005C"/>
  <outline>
    <contour>
      <point x="104.79166666666667" y="1553.375" type="line"/>
      <point x="959.2083333333334" y="-206.27083333333334" type="line"/>
      <point x="1095.2083333333333" y="-145.6875" type="line"/>
      <point x="239.25" y="1618.5833333333333" type="line"/>
    </contour>
  </outline>
</glyph>
<glyph name="bracketright" format="2">
  <advance width="1200.0"/>
  <unicode hex="005D"/>
  <outline>
    <contour>
      <point x="831.7291666666666" y="1630.5833333333333" type="line"/>
      <point x="330.5833333333333" y="1630.5833333333333" type="line"/>
      <point x="330.5833333333333" y="1486.3125" type="line"/>
      <point x="673.25" y="1486.3125" type="line"/>
      <point x="673.25" y="-88.625" type="line"/>
      <point x="330.5833333333333" y="-88.625" type="line"/>
      <point x="330.5833333333333" y="-230.58333333333334" type="line"/>
      <point x="831.7291666666666" y="-230.58333333333334" type="line"/>
    </contour>
  </outline>
</glyph>
<glyph name="asciicircum" format="2">
  <advance width="1200.0"/>
  <unicode hex="005E"/>
  <outline>
    <contour>
      <point x="674.625" y="1678.75" type="line"/>
      <point x="525.375" y="1678.75" type="line"/>
      <point x="147.375" y="1054.0" type="line"/>
      <point x="326.7916666666667" y="1054.0" type="line"/>
      <point x="598.0" y="1528.3125" type="line"/>
      <point x="870.2708333333334" y="1054.0" type="line"/>
      <point x="1052.625" y="1054.0" type="line"/>
    </contour>
  </outline>
</glyph>
<glyph name="grave" format="2">
  <advance width="1200.0"/>
  <unicode hex="0060"/>
  <anchor x="600.0" y="1052.75" name="_top"/>
  <outline>
    <contour>
      <point x="773.1041666666666" y="1244.0" type="line"/>
      <point x="827.7291666666666" y="1336.9375" type="line"/>
      <point x="458.7916666666667" y="1573.4166666666667" type="line"/>
      <point x="368.9375" y="1429.6875" type="line"/>
    </contour>
  </outline>
</glyph>
<glyph name="a" format="2">
  <advance width="1200.0"/>
  <unicode hex="0061"/>
  <anchor x="600.0" y="0.0" name="bottom"/>
  <anchor x="1019.6875" y="-23.0625" name="ogonek"/>
  <anchor x="583.6875" y="1052.75" name="top"/>
  <outline>
    <contour>
      <point x="955.375" y="229.6875" type="curve" smooth="yes"/>
      <point x="955.375" y="735.1041666666666" type="line" smooth="yes"/>
      <point x="955.375" y="943.4166666666666"/>
      <point x="822.7916666666666" y="1075.4166666666667"/>
      <point x="560.75" y="1075.4166666666667" type="curve" smooth="yes"/>
      <point x="458.9375" y="1075.4166666666667"/>
      <point x="345.4166666666667" y="1056.8958333333333"/>
      <point x="216.89583333333334" y="1008.75" type="curve"/>
      <point x="261.375" y="882.0" type="line"/>
      <point x="369.6875" y="920.3125"/>
      <point x="465.1041666666667" y="935.6875"/>
      <point x="535.4166666666666" y="935.6875" type="curve" smooth="yes"/>
      <point x="691.6875" y="935.6875"/>
      <point x="786.2708333333334" y="879.0625"/>
      <point x="786.2708333333334" y="727.2083333333334" type="curve" smooth="yes"/>
      <point x="786.2708333333334" y="639.4166666666666" type="line"/>
      <point x="630.9375" y="639.4166666666666" type="line" smooth="yes"/>
      <point x="311.4166666666667" y="639.4166666666666"/>
      <point x="137.0625" y="519.2083333333334"/>
      <point x="137.0625" y="302.3125" type="curve" smooth="yes"/>
      <point x="137.0625" y="106.3125"/>
      <point x="266.2708333333333" y="-23.208333333333332"/>
      <point x="476.7916666666667" y="-23.208333333333332" type="curve" smooth="yes"/>
      <point x="613.4166666666666" y="-23.208333333333332"/>
      <point x="731.6875" y="27.416666666666668"/>
      <point x="806.75" y="125.41666666666667" type="curve"/>
      <point x="837.25" y="31.25"/>
      <point x="909.375" y="-11.0625"/>
      <point x="999.6875" y="-23.0625" type="curve"/>
      <point x="1040.7916666666667" y="94.75" type="line"/>
      <point x="982.3125" y="112.75"/>
      <point x="955.375" y="145.0625"/>
    </contour>
    <contour>
      <point x="520.2708333333334" y="104.89583333333333" type="curve" smooth="yes"/>
      <point x="383.25" y="104.89583333333333"/>
      <point x="317.375" y="172.9375"/>
      <point x="317.375" y="304.2708333333333" type="curve" smooth="yes"/>
      <point x="317.375" y="439.1041666666667"/>
      <point x="402.0" y="524.9375"/>
      <point x="634.2708333333334" y="524.9375" type="curve" smooth="yes"/>
      <point x="786.2708333333334" y="524.9375" type="line"/>
      <point x="786.2708333333334" y="254.27083333333334" type="line"/>
      <point x="723.375" y="160.0"/>
      <point x="623.7291666666666" y="104.89583333333333"/>
    </contour>
  </outline>
</glyph>
<glyph name="b" format="2">
  <advance width="1200.0"/>
  <unicode hex="0062"/>
  <anchor x="600.0" y="0.0" name="bottom"/>
  <anchor x="600.0" y="1477.0625" name="top"/>
  <outline>
    <contour>
      <point x="368.8958333333333" y="916.0" type="curve"/>
      <point x="368.8958333333333" y="1497.7291666666667" type="line"/>
      <point x="200.89583333333334" y="1477.0625" type="line"/>
      <point x="200.89583333333334" y="0.0" type="line"/>
      <point x="348.3125" y="0.0" type="line"/>
      <point x="360.3125" y="109.10416666666667" type="line"/>
      <point x="430.7916666666667" y="18.9375"/>
      <point x="524.7916666666666" y="-23.208333333333332"/>
      <point x="647.2083333333334" y="-23.208333333333332" type="curve" smooth="yes"/>
      <point x="918.5833333333334" y="-23.208333333333332"/>
      <point x="1063.7291666666667" y="208.3125"/>
      <point x="1063.7291666666667" y="527.0625" type="curve" smooth="yes"/>
      <point x="1063.7291666666667" y="857.4166666666666"/>
      <point x="950.8958333333334" y="1075.4166666666667"/>
      <point x="669.4166666666666" y="1075.4166666666667" type="curve" smooth="yes"/>
      <point x="548.3125" y="1075.4166666666667"/>
      <point x="445.6875" y="1017.1041666666666"/>
    </contour>
    <contour>
      <point x="607.375" y="112.75" type="curve" smooth="yes"/>
      <point x="510.625" y="112.75"/>
      <point x="424.3125" y="165.25"/>
      <point x="368.8958333333333" y="249.0625" type="curve"/>
      <point x="368.8958333333333" y="771.0625" type="line"/>
      <point x="425.6875" y="856.3125"/>
      <point x="515.375" y="940.3125"/>
      <point x="632.625" y="940.3125" type="curve" smooth="yes"/>
      <point x="795.0625" y="940.3125"/>
      <point x="881.1041666666666" y="803.25"/>
      <point x="881.1041666666666" y="527.6875" type="curve" smooth="yes"/>
      <point x="881.1041666666666" y="247.0625"/>
      <point x="782.5833333333334" y="112.75"/>
    </contour>
  </outline>
</glyph>
<glyph name="d" format="2">
  <advance width="1200.0"/>
  <unicode hex="0064"/>
  <anchor x="600.0" y="0.0" name="bottom"/>
  <anchor x="600.0" y="527.375" name="center"/>
  <anchor x="600.0" y="1477.0625" name="top"/>
  <anchor x="1061.6875" y="1477.0625" name="topright"/>
  <outline>
    <contour>
      <point x="831.1041666666666" y="1497.7291666666667" type="line"/>
      <point x="831.1041666666666" y="951.2083333333334" type="line"/>
      <point x="760.9375" y="1032.9375"/>
      <point x="669.6875" y="1075.4166666666667"/>
      <point x="549.25" y="1075.4166666666667" type="curve" smooth="yes"/>
      <point x="288.7916666666667" y="1075.4166666666667"/>
      <point x="136.27083333333334" y="841.7291666666666"/>
      <point x="136.27083333333334" y="524.75" type="curve" smooth="yes"/>
      <point x="136.27083333333334" y="198.9375"/>
      <point x="262.2708333333333" y="-23.208333333333332"/>
      <point x="537.0625" y="-23.208333333333332" type="curve" smooth="yes"/>
      <point x="652.9375" y="-23.208333333333332"/>
      <point x="757.4166666666666" y="27.0625"/>
      <point x="835.6875" y="138.58333333333334" type="curve"/>
      <point x="851.6875" y="0.0" type="line"/>
      <point x="999.1041666666666" y="0.0" type="line"/>
      <point x="999.1041666666666" y="1477.0625" type="line"/>
    </contour>
    <contour>
      <point x="592.625" y="940.0" type="curve" smooth="yes"/>
      <point x="690.0" y="940.0"/>
      <point x="774.0" y="890.2708333333334"/>
      <point x="831.1041666666666" y="805.2083333333334" type="curve"/>
      <point x="831.1041666666666" y="279.375" type="line"/>
      <point x="774.3125" y="192.58333333333334"/>
      <point x="691.1041666666666" y="113.20833333333333"/>
      <point x="572.3125" y="113.20833333333333" type="curve" smooth="yes"/>
      <point x="406.9375" y="113.20833333333333"/>
      <point x="318.8958333333333" y="252.27083333333334"/>
      <point x="318.8958333333333" y="525.0625" type="curve" smooth="yes"/>
      <point x="318.8958333333333" y="803.375"/>
      <point x="417.1041666666667" y="940.0"/>
    </contour>
  </outline>
</glyph>
<glyph name="e" format="2">
  <advance width="1200.0"/>
  <unicode hex="0065"/>
  <anchor x="600.0" y="0.0" name="bottom"/>
  <anchor x="818.3125" y="0.0" name="ogonek"/>
  <anchor x="620.9375" y="1052.75" name="top"/>
  <outline>
    <contour>
      <point x="333.0625" y="466.75" type="curve"/>
      <point x="1041.1041666666667" y="466.75" type="line"/>
      <point x="1042.7916666666667" y="490.2708333333333"/>
      <point x="1044.7916666666667" y="522.9375"/>
      <point x="1044.7916666666667" y="558.9375" type="curve" smooth="yes"/>
      <point x="1044.7916666666667" y="878.5833333333334"/>
      <point x="882.9375" y="1075.4166666666667"/>
      <point x="616.9375" y="1075.4166666666667" type="curve" smooth="yes"/>
      <point x="336.8958333333333" y="1075.4166666666667"/>
      <point x="156.75" y="844.0"/>
      <point x="156.75" y="525.375" type="curve" smooth="yes"/>
      <point x="156.75" y="197.6875"/>
      <point x="331.4166666666667" y="-23.208333333333332"/>
      <point x="639.375" y="-23.208333333333332" type="curve" smooth="yes"/>
      <point x="770.2708333333334" y="-23.208333333333332"/>
      <point x="903.25" y="23.6875"/>
      <point x="1000.9375" y="101.20833333333333" type="curve"/>
      <point x="921.7291666666666" y="212.3125" type="line"/>
      <point x="829.25" y="149.0625"/>
      <point x="748.2708333333334" y="117.375"/>
      <point x="641.25" y="117.375" type="curve" smooth="yes"/>
      <point x="477.7291666666667" y="117.375"/>
      <point x="341.7291666666667" y="223.375"/>
    </contour>
    <contour>
      <point x="619.25" y="937.4166666666666" type="curve" smooth="yes"/>
      <point x="777.375" y="937.4166666666666"/>
      <point x="878.9375" y="822.3125"/>
      <point x="883.25" y="596.625" type="curve"/>
      <point x="333.6875" y="596.625" type="line"/>
      <point x="347.6875" y="828.5833333333334"/>
      <point x="462.3125" y="937.4166666666666"/>
    </contour>
  </outline>
</glyph>
<glyph name="f" format="2">
  <advance width="1200.0"/>
  <unicode hex="0066"/>
  <anchor x="523.2083333333334" y="0.0" name="bottom"/>
  <anchor x="740.0" y="1477.0625" name="top"/>
  <outline>
    <contour>
      <point x="822.9375" y="1497.7291666666667" type="curve" smooth="yes"/>
      <point x="604.3125" y="1497.7291666666667"/>
      <point x="439.2083333333333" y="1375.7291666666667"/>
      <point x="439.2083333333333" y="1181.375" type="curve" smooth="yes"/>
      <point x="439.2083333333333" y="971.1041666666666" type="line"/>
      <point x="187.6875" y="971.1041666666666" type="line"/>
      <point x="187.6875" y="839.2083333333334" type="line"/>
      <point x="439.2083333333333" y="839.2083333333334" type="line"/>
      <point x="439.2083333333333" y="0.0" type="line"/>
      <point x="606.75" y="0.0" type="line"/>
      <point x="606.75" y="839.2083333333334" type="line"/>
      <point x="946.2708333333334" y="839.2083333333334" type="line"/>
      <point x="964.3125" y="971.1041666666666" type="line"/>
      <point x="606.75" y="971.1041666666666" type="line"/>
      <point x="606.75" y="1184.7916666666667" type="line" smooth="yes"/>
      <point x="606.75" y="1302.8958333333333"/>
      <point x="681.4166666666666" y="1360.3125"/>
      <point x="828.0" y="1360.3125" type="curve" smooth="yes"/>
      <point x="908.625" y="1360.3125"/>
      <point x="986.625" y="1346.0"/>
      <point x="1053.6875" y="1315.6875" type="curve"/>
      <point x="1108.3125" y="1440.75" type="line"/>
      <point x="1025.1041666666667" y="1476.8958333333333"/>
      <point x="936.3125" y="1497.7291666666667"/>
    </contour>
  </outline>
</glyph>
<glyph name="g" format="2">
  <advance width="1200.0"/>
  <unicode hex="0067"/>
  <anchor x="600.0" y="-399.0625" name="bottom "/>
  <anchor x="586.5833333333334" y="1052.75" name="top"/>
  <outline>
    <contour>
      <point x="1056.7916666666667" y="1164.9375" type="line"/>
      <point x="933.4166666666666" y="1110.75"/>
      <point x="842.5833333333334" y="1076.8958333333333"/>
      <point x="577.0625" y="1075.7291666666667" type="curve" smooth="yes"/>
      <point x="328.5833333333333" y="1075.7291666666667"/>
      <point x="156.79166666666666" y="923.1041666666666"/>
      <point x="156.79166666666666" y="710.3125" type="curve" smooth="yes"/>
      <point x="156.79166666666666" y="574.625"/>
      <point x="213.10416666666666" y="482.9375"/>
      <point x="333.6875" y="419.4166666666667" type="curve"/>
      <point x="257.6875" y="369.1041666666667"/>
      <point x="218.3125" y="302.5833333333333"/>
      <point x="218.3125" y="235.375" type="curve" smooth="yes"/>
      <point x="218.3125" y="130.625"/>
      <point x="300.8958333333333" y="37.25"/>
      <point x="483.1041666666667" y="37.25" type="curve" smooth="yes"/>
      <point x="671.375" y="37.25" type="line" smooth="yes"/>
      <point x="806.8958333333334" y="37.25"/>
      <point x="908.625" y="-14.0"/>
      <point x="908.625" y="-114.0" type="curve" smooth="yes"/>
      <point x="908.625" y="-229.25"/>
      <point x="806.5833333333334" y="-287.4166666666667"/>
      <point x="574.75" y="-287.4166666666667" type="curve" smooth="yes"/>
      <point x="339.0625" y="-287.4166666666667"/>
      <point x="283.4166666666667" y="-229.6875"/>
      <point x="283.4166666666667" y="-106.625" type="curve"/>
      <point x="131.375" y="-106.625" type="line"/>
      <point x="131.375" y="-321.25"/>
      <point x="239.6875" y="-423.7291666666667"/>
      <point x="576.0" y="-423.7291666666667" type="curve" smooth="yes"/>
      <point x="895.7291666666666" y="-423.7291666666667"/>
      <point x="1079.25" y="-310.0"/>
      <point x="1079.25" y="-102.79166666666667" type="curve" smooth="yes"/>
      <point x="1079.25" y="58.791666666666664"/>
      <point x="918.9375" y="182.625"/>
      <point x="706.625" y="182.625" type="curve" smooth="yes"/>
      <point x="517.2083333333334" y="182.625" type="line" smooth="yes"/>
      <point x="408.2708333333333" y="182.625"/>
      <point x="376.3125" y="220.79166666666666"/>
      <point x="376.3125" y="270.75" type="curve" smooth="yes"/>
      <point x="376.3125" y="310.9375"/>
      <point x="399.1041666666667" y="350.5833333333333"/>
      <point x="430.5833333333333" y="373.375" type="curve"/>
      <point x="474.75" y="359.2083333333333"/>
      <point x="517.0625" y="352.8958333333333"/>
      <point x="588.2708333333334" y="352.8958333333333" type="curve" smooth="yes"/>
      <point x="837.0625" y="352.8958333333333"/>
      <point x="984.3125" y="502.8958333333333"/>
      <point x="984.3125" y="711.2083333333334" type="curve" smooth="yes"/>
      <point x="984.3125" y="831.25"/>
      <point x="923.1041666666666" y="920.2708333333334"/>
      <point x="800.8958333333334" y="975.7291666666666" type="curve"/>
      <point x="919.25" y="975.7291666666666"/>
      <point x="1018.7916666666666" y="979.25"/>
      <point x="1109.2083333333333" y="1006.9375" type="curve"/>
    </contour>
    <contour>
      <point x="576.5833333333334" y="953.2083333333334" type="curve" smooth="yes"/>
      <point x="731.375" y="953.2083333333334"/>
      <point x="810.2708333333334" y="869.6875"/>
      <point x="810.2708333333334" y="711.375" type="curve" smooth="yes"/>
      <point x="810.2708333333334" y="556.0"/>
      <point x="729.375" y="465.25"/>
      <point x="581.2083333333334" y="465.25" type="curve" smooth="yes"/>
      <point x="409.2083333333333" y="465.25"/>
      <point x="328.7916666666667" y="567.25"/>
      <point x="328.7916666666667" y="709.6875" type="curve" smooth="yes"/>
      <point x="328.7916666666667" y="850.75"/>
      <point x="407.2083333333333" y="953.2083333333334"/>
    </contour>
  </outline>
</glyph>
<glyph name="h" format="2">
  <advance width="1200.0"/>
  <unicode hex="0068"/>
  <anchor x="600.0" y="0.0" name="bottom"/>
  <anchor x="600.0" y="527.375" name="center"/>
  <anchor x="600.0" y="1477.0625" name="top"/>
  <outline>
    <contour>
      <point x="368.8958333333333" y="1493.4166666666667" type="line"/>
      <point x="200.89583333333334" y="1474.75" type="line"/>
      <point x="200.89583333333334" y="0.0" type="line"/>
      <point x="368.8958333333333" y="0.0" type="line"/>
      <point x="368.8958333333333" y="767.375" type="line"/>
      <point x="424.2708333333333" y="849.6875"/>
      <point x="531.0625" y="942.625"/>
      <point x="651.25" y="942.625" type="curve" smooth="yes"/>
      <point x="776.2708333333334" y="942.625"/>
      <point x="833.4166666666666" y="887.0625"/>
      <point x="833.4166666666666" y="761.375" type="curve" smooth="yes"/>
      <point x="833.4166666666666" y="0.0" type="line"/>
      <point x="1001.4166666666666" y="0.0" type="line"/>
      <point x="1001.4166666666666" y="764.5833333333334" type="line" smooth="yes"/>
      <point x="1001.4166666666666" y="959.4166666666666"/>
      <point x="910.75" y="1075.4166666666667"/>
      <point x="704.7916666666666" y="1075.4166666666667" type="curve" smooth="yes"/>
      <point x="580.625" y="1075.4166666666667"/>
      <point x="451.7291666666667" y="1018.625"/>
      <point x="368.8958333333333" y="909.2083333333334" type="curve"/>
    </contour>
  </outline>
</glyph>
<glyph name="i" format="2">
  <advance width="1200.0"/>
  <unicode hex="0069"/>
  <anchor x="600.0" y="0.0" name="bottom"/>
  <outline>
    <contour>
      <point x="734.2708333333334" y="1052.75" type="line"/>
      <point x="251.375" y="1052.75" type="line"/>
      <point x="251.375" y="920.0" type="line"/>
      <point x="566.2708333333334" y="920.0" type="line"/>
      <point x="566.2708333333334" y="132.75" type="line"/>
      <point x="241.375" y="132.75" type="line"/>
      <point x="241.375" y="0.0" type="line"/>
      <point x="1031.25" y="0.0" type="line"/>
      <point x="1031.25" y="132.75" type="line"/>
      <point x="734.2708333333334" y="132.75" type="line"/>
    </contour>
    <contour>
      <point x="600.3125" y="1546.3125" type="curve" smooth="yes"/>
      <point x="528.625" y="1546.3125"/>
      <point x="479.375" y="1494.75"/>
      <point x="479.375" y="1429.2083333333333" type="curve" smooth="yes"/>
      <point x="479.375" y="1360.5833333333333"/>
      <point x="528.625" y="1308.7916666666667"/>
      <point x="600.3125" y="1308.7916666666667" type="curve" smooth="yes"/>
      <point x="674.625" y="1308.7916666666667"/>
      <point x="723.1041666666666" y="1360.5833333333333"/>
      <point x="723.1041666666666" y="1429.2083333333333" type="curve" smooth="yes"/>
      <point x="723.1041666666666" y="1494.75"/>
      <point x="674.625" y="1546.3125"/>
    </contour>
  </outline>
</glyph>
<glyph name="j" format="2">
  <advance width="1200.0"/>
  <unicode hex="006A"/>
  <anchor x="600.0" y="-399.0625" name="bottom "/>
  <anchor x="735.375" y="1052.75" name="top"/>
  <outline>
    <contour>
      <point x="890.2708333333334" y="1052.75" type="line"/>
      <point x="284.0" y="1052.75" type="line"/>
      <point x="284.0" y="920.0" type="line"/>
      <point x="722.2708333333334" y="920.0" type="line"/>
      <point x="722.2708333333334" y="157.72916666666666" type="line" smooth="yes"/>
      <point x="722.2708333333334" y="-125.0625"/>
      <point x="502.625" y="-242.3125"/>
      <point x="191.41666666666666" y="-293.7291666666667" type="curve"/>
      <point x="219.0625" y="-423.7291666666667" type="line"/>
      <point x="643.375" y="-352.9375"/>
      <point x="890.2708333333334" y="-183.0625"/>
      <point x="890.2708333333334" y="169.25" type="curve" smooth="yes"/>
    </contour>
    <contour>
      <point x="733.0625" y="1546.3125" type="curve" smooth="yes"/>
      <point x="661.375" y="1546.3125"/>
      <point x="612.8958333333334" y="1494.75"/>
      <point x="612.8958333333334" y="1429.2083333333333" type="curve" smooth="yes"/>
      <point x="612.8958333333334" y="1360.5833333333333"/>
      <point x="661.375" y="1308.7916666666667"/>
      <point x="733.0625" y="1308.7916666666667" type="curve" smooth="yes"/>
      <point x="807.375" y="1308.7916666666667"/>
      <point x="856.625" y="1360.5833333333333"/>
      <point x="856.625" y="1429.2083333333333" type="curve" smooth="yes"/>
      <point x="856.625" y="1494.75"/>
      <point x="807.375" y="1546.3125"/>
    </contour>
  </outline>
</glyph>
<glyph name="k" format="2">
  <advance width="1200.0"/>
  <unicode hex="006B"/>
  <anchor x="610.7916666666666" y="0.0" name="bottom"/>
  <anchor x="600.0" y="1477.0625" name="top"/>
  <outline>
    <contour>
      <point x="1083.25" y="1052.75" type="line"/>
      <point x="864.7916666666666" y="1052.75" type="line"/>
      <point x="398.625" y="575.0625" type="line"/>
      <point x="917.2083333333334" y="0.0" type="line"/>
      <point x="1137.6875" y="0.0" type="line"/>
      <point x="609.375" y="578.8958333333334" type="line"/>
    </contour>
    <contour>
      <point x="379.6875" y="1497.7291666666667" type="line"/>
      <point x="211.6875" y="1477.0625" type="line"/>
      <point x="211.6875" y="0.0" type="line"/>
      <point x="379.6875" y="0.0" type="line"/>
    </contour>
  </outline>
</glyph>
<glyph name="l" format="2">
  <advance width="1200.0"/>
  <unicode hex="006C"/>
  <anchor x="720.7916666666666" y="0.0" name="bottom"/>
  <anchor x="1120.5833333333333" y="766.0" name="center"/>
  <anchor x="529.7291666666666" y="1477.0625" name="top"/>
  <anchor x="693.1041666666666" y="1477.0625" name="topright"/>
  <outline>
    <contour>
      <point x="610.75" y="1477.0625" type="line"/>
      <point x="119.72916666666667" y="1477.0625" type="line"/>
      <point x="119.72916666666667" y="1344.3125" type="line"/>
      <point x="442.75" y="1344.3125" type="line"/>
      <point x="442.75" y="268.9375" type="line" smooth="yes"/>
      <point x="442.75" y="85.6875"/>
      <point x="570.3125" y="-23.208333333333332"/>
      <point x="756.9375" y="-23.208333333333332" type="curve" smooth="yes"/>
      <point x="863.4166666666666" y="-23.208333333333332"/>
      <point x="950.3125" y="2.625"/>
      <point x="1006.8958333333334" y="31.375" type="curve"/>
      <point x="961.7291666666666" y="153.72916666666666" type="line"/>
      <point x="904.625" y="131.10416666666666"/>
      <point x="848.0" y="117.10416666666666"/>
      <point x="784.75" y="117.10416666666666" type="curve" smooth="yes"/>
      <point x="682.7916666666666" y="117.10416666666666"/>
      <point x="610.75" y="156.27083333333334"/>
      <point x="610.75" y="260.0" type="curve" smooth="yes"/>
    </contour>
  </outline>
</glyph>
<glyph name="m" format="2">
  <advance width="1200.0"/>
  <unicode hex="006D"/>
  <anchor x="600.0" y="0.0" name="bottom"/>
  <anchor x="600.0" y="1052.75" name="top"/>
  <outline>
    <contour>
      <point x="894.9375" y="1075.4166666666667" type="curve" smooth="yes"/>
      <point x="787.0625" y="1075.4166666666667"/>
      <point x="720.3125" y="1018.7916666666666"/>
      <point x="663.25" y="936.3125" type="curve"/>
      <point x="630.0" y="1044.8958333333333"/>
      <point x="551.7291666666666" y="1075.4166666666667"/>
      <point x="471.7291666666667" y="1075.4166666666667" type="curve" smooth="yes"/>
      <point x="366.9375" y="1075.4166666666667"/>
      <point x="300.3125" y="1012.0"/>
      <point x="242.79166666666666" y="931.25" type="curve"/>
      <point x="232.58333333333334" y="1052.75" type="line"/>
      <point x="100.79166666666667" y="1052.75" type="line"/>
      <point x="100.79166666666667" y="0.0" type="line"/>
      <point x="256.3125" y="0.0" type="line"/>
      <point x="256.3125" y="817.6875" type="line"/>
      <point x="313.7291666666667" y="907.6875"/>
      <point x="374.9375" y="943.7291666666666"/>
      <point x="440.3125" y="943.7291666666666" type="curve" smooth="yes"/>
      <point x="515.6875" y="943.7291666666666"/>
      <point x="521.0625" y="888.75"/>
      <point x="521.0625" y="756.9375" type="curve" smooth="yes"/>
      <point x="521.0625" y="0.0" type="line"/>
      <point x="678.3125" y="0.0" type="line"/>
      <point x="678.3125" y="817.6875" type="line"/>
      <point x="735.7291666666666" y="907.6875"/>
      <point x="799.25" y="943.7291666666666"/>
      <point x="862.3125" y="943.7291666666666" type="curve" smooth="yes"/>
      <point x="937.6875" y="943.7291666666666"/>
      <point x="943.0625" y="888.75"/>
      <point x="943.0625" y="756.9375" type="curve" smooth="yes"/>
      <point x="943.0625" y="0.0" type="line"/>
      <point x="1099.2083333333333" y="0.0" type="line"/>
      <point x="1099.2083333333333" y="783.6875" type="line" smooth="yes"/>
      <point x="1099.2083333333333" y="1026.5833333333333"/>
      <point x="995.0625" y="1075.4166666666667"/>
    </contour>
  </outline>
</glyph>
<glyph name="n" format="2">
  <advance width="1200.0"/>
  <unicode hex="006E"/>
  <anchor x="602.0" y="0.0" name="bottom"/>
  <anchor x="599.6875" y="1052.75" name="top"/>
  <outline>
    <contour>
      <point x="200.89583333333334" y="0.0" type="line"/>
      <point x="368.8958333333333" y="0.0" type="line"/>
      <point x="368.8958333333333" y="766.8958333333334" type="line"/>
      <point x="424.2708333333333" y="849.0625"/>
      <point x="528.75" y="942.625"/>
      <point x="652.7916666666666" y="942.625" type="curve" smooth="yes"/>
      <point x="811.7291666666666" y="942.625"/>
      <point x="833.4166666666666" y="856.0"/>
      <point x="833.4166666666666" y="641.2083333333334" type="curve" smooth="yes"/>
      <point x="833.4166666666666" y="0.0" type="line"/>
      <point x="1001.4166666666666" y="0.0" type="line"/>
      <point x="1001.4166666666666" y="764.5833333333334" type="line" smooth="yes"/>
      <point x="1001.4166666666666" y="959.4166666666666"/>
      <point x="912.0" y="1075.4166666666667"/>
      <point x="704.7916666666666" y="1075.4166666666667" type="curve" smooth="yes"/>
      <point x="582.8958333333334" y="1075.4166666666667"/>
      <point x="442.5833333333333" y="1014.9375"/>
      <point x="357.0625" y="906.625" type="curve"/>
      <point x="344.3125" y="1052.75" type="line"/>
      <point x="200.89583333333334" y="1052.75" type="line"/>
    </contour>
  </outline>
</glyph>
<glyph name="o" format="2">
  <advance width="1200.0"/>
  <unicode hex="006F"/>
  <anchor x="600.0" y="0.0" name="bottom"/>
  <anchor x="600.0" y="1052.75" name="top"/>
  <outline>
    <contour>
      <point x="602.3125" y="1075.4166666666667" type="curve" smooth="yes"/>
      <point x="305.0625" y="1075.4166666666667"/>
      <point x="147.20833333333334" y="849.7291666666666"/>
      <point x="147.20833333333334" y="525.0625" type="curve" smooth="yes"/>
      <point x="147.20833333333334" y="194.27083333333334"/>
      <point x="302.75" y="-23.208333333333332"/>
      <point x="600.0" y="-23.208333333333332" type="curve" smooth="yes"/>
      <point x="894.9375" y="-23.208333333333332"/>
      <point x="1052.7916666666667" y="205.20833333333334"/>
      <point x="1052.7916666666667" y="527.0625" type="curve" smooth="yes"/>
      <point x="1052.7916666666667" y="860.8958333333334"/>
      <point x="899.25" y="1075.4166666666667"/>
    </contour>
    <contour>
      <point x="602.3125" y="938.0" type="curve" smooth="yes"/>
      <point x="781.4166666666666" y="938.0"/>
      <point x="873.25" y="806.9375"/>
      <point x="873.25" y="527.0625" type="curve" smooth="yes"/>
      <point x="873.25" y="246.89583333333334"/>
      <point x="781.4166666666666" y="114.75"/>
      <point x="600.0" y="114.75" type="curve" smooth="yes"/>
      <point x="418.5833333333333" y="114.75"/>
      <point x="326.75" y="246.89583333333334"/>
      <point x="326.75" y="525.0625" type="curve" smooth="yes"/>
      <point x="326.75" y="806.9375"/>
      <point x="420.8958333333333" y="938.0"/>
    </contour>
  </outline>
</glyph>
<glyph name="q" format="2">
  <advance width="1200.0"/>
  <unicode hex="0071"/>
  <anchor x="600.0" y="0.0" name="bottom"/>
  <anchor x="600.0" y="-399.0625" name="bottom "/>
  <anchor x="600.0" y="1052.75" name="top"/>
  <outline>
    <contour>
      <point x="548.3125" y="1075.4166666666667" type="curve" smooth="yes"/>
      <point x="287.1041666666667" y="1075.4166666666667"/>
      <point x="147.20833333333334" y="841.7291666666666"/>
      <point x="147.20833333333334" y="524.75" type="curve" smooth="yes"/>
      <point x="147.20833333333334" y="194.625"/>
      <point x="251.41666666666666" y="-23.208333333333332"/>
      <point x="535.2083333333334" y="-23.208333333333332" type="curve" smooth="yes"/>
      <point x="649.4166666666666" y="-23.208333333333332"/>
      <point x="753.6875" y="25.25"/>
      <point x="831.1041666666666" y="132.9375" type="curve"/>
      <point x="831.1041666666666" y="-403.0625" type="line"/>
      <point x="999.1041666666666" y="-423.7291666666667" type="line"/>
      <point x="999.1041666666666" y="1052.75" type="line"/>
      <point x="855.6875" y="1052.75" type="line"/>
      <point x="841.6875" y="937.6875" type="line"/>
      <point x="770.75" y="1027.25"/>
      <point x="674.8958333333334" y="1075.4166666666667"/>
    </contour>
    <contour>
      <point x="589.6875" y="940.0" type="curve" smooth="yes"/>
      <point x="689.375" y="940.0"/>
      <point x="776.0" y="890.2708333333334"/>
      <point x="831.1041666666666" y="805.2083333333334" type="curve"/>
      <point x="831.1041666666666" y="279.375" type="line"/>
      <point x="774.0" y="192.58333333333334"/>
      <point x="686.625" y="116.75"/>
      <point x="569.6875" y="116.75" type="curve" smooth="yes"/>
      <point x="406.9375" y="116.75"/>
      <point x="326.75" y="252.27083333333334"/>
      <point x="326.75" y="525.0625" type="curve" smooth="yes"/>
      <point x="326.75" y="803.375"/>
      <point x="415.1041666666667" y="940.0"/>
    </contour>
  </outline>
</glyph>
<glyph name="r" format="2">
  <advance width="1200.0"/>
  <unicode hex="0072"/>
  <anchor x="458.7916666666667" y="0.0" name="bottom"/>
  <anchor x="660.7916666666666" y="1052.75" name="top"/>
  <outline>
    <contour>
      <point x="210.89583333333334" y="0.0" type="line"/>
      <point x="757.4166666666666" y="0.0" type="line"/>
      <point x="757.4166666666666" y="128.75" type="line"/>
      <point x="542.7916666666666" y="128.75" type="line"/>
      <point x="542.7916666666666" y="574.5833333333334" type="line"/>
      <point x="613.2083333333334" y="806.625"/>
      <point x="727.375" y="921.0625"/>
      <point x="890.2708333333334" y="921.0625" type="curve" smooth="yes"/>
      <point x="935.7291666666666" y="921.0625"/>
      <point x="967.1041666666666" y="915.0625"/>
      <point x="1012.2708333333334" y="902.75" type="curve"/>
      <point x="1061.25" y="1052.75" type="line"/>
      <point x="1012.7916666666666" y="1066.5833333333333"/>
      <point x="970.5833333333334" y="1076.2708333333333"/>
      <point x="911.6875" y="1076.2708333333333" type="curve" smooth="yes"/>
      <point x="721.4166666666666" y="1076.2708333333333"/>
      <point x="614.8958333333334" y="977.25"/>
      <point x="534.2708333333334" y="803.7291666666666" type="curve"/>
      <point x="503.25" y="1052.75" type="line"/>
      <point x="210.89583333333334" y="1052.75" type="line"/>
      <point x="210.89583333333334" y="923.6875" type="line"/>
      <point x="374.7916666666667" y="923.6875" type="line"/>
      <point x="374.7916666666667" y="128.75" type="line"/>
      <point x="210.89583333333334" y="128.75" type="line"/>
    </contour>
    <contour>
      <point x="899.0625" y="696.625" type="line"/>
      <point x="1036.9375" y="696.625" type="line"/>
      <point x="1061.25" y="1052.75" type="line"/>
      <point x="916.0" y="1052.75" type="line"/>
      <point x="899.0625" y="925.6875" type="line"/>
    </contour>
  </outline>
</glyph>
<glyph name="s" format="2">
  <advance width="1200.0"/>
  <unicode hex="0073"/>
  <anchor x="592.75" y="0.0" name="bottom"/>
  <anchor x="615.2083333333334" y="1052.75" name="top"/>
  <outline>
    <contour>
      <point x="559.0625" y="115.6875" type="curve" smooth="yes"/>
      <point x="435.0625" y="115.6875"/>
      <point x="325.2083333333333" y="161.375"/>
      <point x="243.20833333333334" y="230.0" type="curve"/>
      <point x="147.41666666666666" y="119.0625" type="line"/>
      <point x="237.375" y="40.791666666666664"/>
      <point x="368.9375" y="-23.208333333333332"/>
      <point x="558.75" y="-23.208333333333332" type="curve" smooth="yes"/>
      <point x="784.2708333333334" y="-23.208333333333332"/>
      <point x="1002.9375" y="66.27083333333333"/>
      <point x="1002.9375" y="290.7916666666667" type="curve" smooth="yes"/>
      <point x="1002.9375" y="488.0"/>
      <point x="866.625" y="560.3125"/>
      <point x="660.625" y="616.0" type="curve" smooth="yes"/>
      <point x="448.0" y="673.6875"/>
      <point x="381.1041666666667" y="707.25"/>
      <point x="381.1041666666667" y="800.7916666666666" type="curve" smooth="yes"/>
      <point x="381.1041666666667" y="882.0"/>
      <point x="443.2083333333333" y="939.0625"/>
      <point x="609.4166666666666" y="939.0625" type="curve" smooth="yes"/>
      <point x="744.7916666666666" y="939.0625"/>
      <point x="835.6875" y="899.2083333333334"/>
      <point x="915.2083333333334" y="845.2083333333334" type="curve"/>
      <point x="988.7916666666666" y="958.75" type="line"/>
      <point x="901.2083333333334" y="1023.7291666666666"/>
      <point x="776.3125" y="1075.4166666666667"/>
      <point x="606.5833333333334" y="1075.4166666666667" type="curve" smooth="yes"/>
      <point x="369.25" y="1075.4166666666667"/>
      <point x="207.25" y="964.9375"/>
      <point x="207.25" y="788.2708333333334" type="curve" smooth="yes"/>
      <point x="207.25" y="604.8958333333334"/>
      <point x="347.4166666666667" y="538.9375"/>
      <point x="566.3125" y="484.625" type="curve" smooth="yes"/>
      <point x="789.1041666666666" y="428.9375"/>
      <point x="820.625" y="377.7291666666667"/>
      <point x="820.625" y="282.75" type="curve" smooth="yes"/>
      <point x="820.625" y="181.0625"/>
      <point x="721.1041666666666" y="115.6875"/>
    </contour>
  </outline>
</glyph>
<glyph name="t" format="2">
  <advance width="1200.0"/>
  <unicode hex="0074"/>
  <anchor x="742.5833333333334" y="0.0" name="bottom"/>
  <anchor x="600.0" y="527.375" name="center"/>
  <anchor x="485.2083333333333" y="1304.0" name="top"/>
  <anchor x="656.5833333333334" y="1505.375" name="topright"/>
  <outline>
    <contour>
      <point x="1037.4166666666667" y="52.75" type="curve"/>
      <point x="971.7291666666666" y="167.41666666666666" type="line"/>
      <point x="914.7916666666666" y="137.10416666666666"/>
      <point x="848.9375" y="117.10416666666666"/>
      <point x="770.3125" y="117.10416666666666" type="curve" smooth="yes"/>
      <point x="626.0" y="117.10416666666666"/>
      <point x="569.2083333333334" y="179.6875"/>
      <point x="569.2083333333334" y="297.25" type="curve" smooth="yes"/>
      <point x="569.2083333333334" y="922.625" type="line"/>
      <point x="912.5833333333334" y="922.625" type="line"/>
      <point x="932.7916666666666" y="1052.75" type="line"/>
      <point x="569.2083333333334" y="1052.75" type="line"/>
      <point x="569.2083333333334" y="1312.2708333333333" type="line"/>
      <point x="401.2083333333333" y="1292.0" type="line"/>
      <point x="401.2083333333333" y="1052.75" type="line"/>
      <point x="158.9375" y="1052.75" type="line"/>
      <point x="158.9375" y="922.625" type="line"/>
      <point x="401.2083333333333" y="922.625" type="line"/>
      <point x="401.2083333333333" y="294.9375" type="line" smooth="yes"/>
      <point x="401.2083333333333" y="108.75"/>
      <point x="528.5833333333334" y="-23.208333333333332"/>
      <point x="754.9375" y="-23.208333333333332" type="curve" smooth="yes"/>
      <point x="853.375" y="-23.208333333333332"/>
      <point x="965.2083333333334" y="5.6875"/>
    </contour>
  </outline>
</glyph>
<glyph name="u" format="2">
  <advance width="1200.0"/>
  <unicode hex="0075"/>
  <anchor x="1019.1041666666666" y="0.0" name="ogonek"/>
  <anchor x="600.0" y="1052.75" name="top"/>
  <outline>
    <contour>
      <point x="368.8958333333333" y="1052.75" type="line"/>
      <point x="200.89583333333334" y="1052.75" type="line"/>
      <point x="200.89583333333334" y="286.75" type="line" smooth="yes"/>
      <point x="200.89583333333334" y="91.6875"/>
      <point x="301.2083333333333" y="-23.208333333333332"/>
      <point x="504.8958333333333" y="-23.208333333333332" type="curve" smooth="yes"/>
      <point x="628.2708333333334" y="-23.208333333333332"/>
      <point x="758.8958333333334" y="35.416666666666664"/>
      <point x="841.6875" y="141.72916666666666" type="curve"/>
      <point x="855.6875" y="0.0" type="line"/>
      <point x="999.1041666666666" y="0.0" type="line"/>
      <point x="999.1041666666666" y="1052.75" type="line"/>
      <point x="831.1041666666666" y="1052.75" type="line"/>
      <point x="831.1041666666666" y="278.0" type="line"/>
      <point x="774.0" y="187.72916666666666"/>
      <point x="661.375" y="110.58333333333333"/>
      <point x="546.2708333333334" y="110.58333333333333" type="curve" smooth="yes"/>
      <point x="424.3125" y="110.58333333333333"/>
      <point x="368.8958333333333" y="168.79166666666666"/>
      <point x="368.8958333333333" y="307.25" type="curve" smooth="yes"/>
    </contour>
  </outline>
</glyph>
<glyph name="v" format="2">
  <advance width="1200.0"/>
  <unicode hex="0076"/>
  <anchor x="600.0" y="0.0" name="bottom"/>
  <anchor x="600.0" y="1052.75" name="top"/>
  <outline>
    <contour>
      <point x="1078.7916666666667" y="1052.75" type="line"/>
      <point x="905.25" y="1052.75" type="line"/>
      <point x="603.6875" y="152.58333333333334" type="line"/>
      <point x="298.7916666666667" y="1052.75" type="line"/>
      <point x="121.20833333333334" y="1052.75" type="line"/>
      <point x="500.7916666666667" y="0.0" type="line"/>
      <point x="696.2708333333334" y="0.0" type="line"/>
    </contour>
  </outline>
</glyph>
<glyph name="w" format="2">
  <advance width="1200.0"/>
  <unicode hex="0077"/>
  <anchor x="600.0" y="0.0" name="bottom"/>
  <anchor x="600.0" y="1052.75" name="top"/>
  <outline>
    <contour>
      <point x="981.1041666666666" y="0.0" type="line"/>
      <point x="1165.25" y="1052.75" type="line"/>
      <point x="1001.1041666666666" y="1052.75" type="line"/>
      <point x="866.8958333333334" y="103.72916666666666" type="line"/>
      <point x="708.3125" y="918.75" type="line"/>
      <point x="509.375" y="918.75" type="line"/>
      <point x="341.1041666666667" y="103.72916666666666" type="line"/>
      <point x="206.58333333333334" y="1052.75" type="line"/>
      <point x="34.75" y="1052.75" type="line"/>
      <point x="227.20833333333334" y="0.0" type="line"/>
      <point x="459.2083333333333" y="0.0" type="line"/>
      <point x="606.625" y="772.5833333333334" type="line"/>
      <point x="743.1041666666666" y="0.0" type="line"/>
    </contour>
  </outline>
</glyph>
<glyph name="x" format="2">
  <advance width="1200.0"/>
  <unicode hex="0078"/>
  <anchor x="600.0" y="0.0" name="bottom"/>
  <anchor x="979.7291666666666" y="0.0" name="bottomright"/>
  <anchor x="600.0" y="1052.75" name="top"/>
  <outline>
    <contour>
      <point x="302.75" y="0.0" type="line"/>
      <point x="594.9375" y="451.7291666666667" type="line"/>
      <point x="882.7916666666666" y="0.0" type="line"/>
      <point x="1088.9375" y="0.0" type="line"/>
      <point x="700.5833333333334" y="563.0625" type="line"/>
      <point x="1041.1041666666667" y="1052.75" type="line"/>
      <point x="849.25" y="1052.75" type="line"/>
      <point x="602.0" y="661.1041666666666" type="line"/>
      <point x="358.0" y="1052.75" type="line"/>
      <point x="158.9375" y="1052.75" type="line"/>
      <point x="499.7291666666667" y="555.6875" type="line"/>
      <point x="111.0625" y="0.0" type="line"/>
    </contour>
  </outline>
</glyph>
<glyph name="y" format="2">
  <advance width="1200.0"/>
  <unicode hex="0079"/>
  <anchor x="600.0" y="-399.0625" name="bottom "/>
  <anchor x="600.0" y="1052.75" name="top"/>
  <outline>
    <contour>
      <point x="1076.9375" y="1052.75" type="line"/>
      <point x="903.25" y="1052.75" type="line"/>
      <point x="605.25" y="128.0" type="line"/>
      <point x="302.8958333333333" y="1052.75" type="line"/>
      <point x="123.0625" y="1052.75" type="line"/>
      <point x="490.8958333333333" y="0.0" type="line"/>
      <point x="547.25" y="0.0" type="line"/>
      <point x="490.7916666666667" y="-163.20833333333334"/>
      <point x="428.8958333333333" y="-252.27083333333334"/>
      <point x="211.41666666666666" y="-289.0625" type="curve"/>
      <point x="236.625" y="-423.4166666666667" type="line"/>
      <point x="515.6875" y="-394.625"/>
      <point x="632.7916666666666" y="-221.10416666666666"/>
      <point x="706.75" y="-6.9375" type="curve" smooth="yes"/>
    </contour>
  </outline>
</glyph>
<glyph name="z" format="2">
  <advance width="1200.0"/>
  <unicode hex="007A"/>
  <anchor x="600.0" y="0.0" name="bottom"/>
  <anchor x="620.9375" y="1052.75" name="top"/>
  <outline>
    <contour>
      <point x="410.625" y="143.41666666666666" type="line"/>
      <point x="991.2083333333334" y="923.25" type="line"/>
      <point x="991.2083333333334" y="1052.75" type="line"/>
      <point x="251.20833333333334" y="1052.75" type="line"/>
      <point x="251.20833333333334" y="907.25" type="line"/>
      <point x="788.9375" y="907.25" type="line"/>
      <point x="204.89583333333334" y="127.41666666666666" type="line"/>
      <point x="204.89583333333334" y="0.0" type="line"/>
      <point x="975.0625" y="0.0" type="line"/>
      <point x="996.5833333333334" y="143.41666666666666" type="line"/>
    </contour>
  </outline>
</glyph>
<glyph name="braceleft" format="2">
  <advance width="1200.0"/>
  <unicode hex="007B"/>
  <outline>
    <contour>
      <point x="902.9375" y="1670.75" type="line"/>
      <point x="678.3125" y="1670.75"/>
      <point x="470.4791666666667" y="1604.5833333333333"/>
      <point x="496.625" y="1359.1041666666667" type="curve" smooth="yes"/>
      <point x="537.4166666666666" y="977.2083333333334" type="line" smooth="yes"/>
      <point x="551.875" y="840.625"/>
      <point x="503.1041666666667" y="767.1041666666666"/>
      <point x="234.89583333333334" y="767.1041666666666" type="curve"/>
      <point x="234.89583333333334" y="632.8958333333334" type="line"/>
      <point x="502.7916666666667" y="632.8958333333334"/>
      <point x="551.875" y="557.0625"/>
      <point x="537.4166666666666" y="421.25" type="curve" smooth="yes"/>
      <point x="496.625" y="41.20833333333333" type="line" smooth="yes"/>
      <point x="470.1666666666667" y="-204.89583333333334"/>
      <point x="678.3125" y="-270.75"/>
      <point x="902.9375" y="-270.75" type="curve"/>
      <point x="902.9375" y="-138.625" type="line"/>
      <point x="755.7291666666666" y="-138.625"/>
      <point x="639.1041666666666" y="-103.375"/>
      <point x="651.4166666666666" y="20.75" type="curve" smooth="yes"/>
      <point x="693.2083333333334" y="431.375" type="line" smooth="yes"/>
      <point x="711.0416666666666" y="608.2708333333334"/>
      <point x="646.3125" y="674.9375"/>
      <point x="506.3125" y="700.0" type="curve"/>
      <point x="642.7916666666666" y="725.375"/>
      <point x="710.2708333333334" y="800.8958333333334"/>
      <point x="693.2083333333334" y="968.625" type="curve" smooth="yes"/>
      <point x="651.4166666666666" y="1379.25" type="line" smooth="yes"/>
      <point x="639.1041666666666" y="1501.0625"/>
      <point x="756.2708333333334" y="1538.625"/>
      <point x="902.9375" y="1538.625" type="curve"/>
    </contour>
  </outline>
</glyph>
<glyph name="bar" format="2">
  <advance width="1200.0"/>
  <unicode hex="007C"/>
  <outline>
    <contour>
      <point x="674.3125" y="1613.0625" type="line"/>
      <point x="523.6875" y="1613.0625" type="line"/>
      <point x="523.6875" y="-203.0625" type="line"/>
      <point x="674.3125" y="-203.0625" type="line"/>
    </contour>
  </outline>
</glyph>
<glyph name="braceright" format="2">
  <advance width="1200.0"/>
  <unicode hex="007D"/>
  <outline>
    <contour>
      <point x="297.0625" y="1670.75" type="curve"/>
      <point x="297.0625" y="1538.625" type="line"/>
      <point x="444.2708333333333" y="1538.625"/>
      <point x="560.8958333333334" y="1501.0625"/>
      <point x="548.5833333333334" y="1379.25" type="curve" smooth="yes"/>
      <point x="506.7916666666667" y="968.625" type="line" smooth="yes"/>
      <point x="489.7291666666667" y="801.2083333333334"/>
      <point x="558.3125" y="725.0625"/>
      <point x="716.2708333333334" y="697.6875" type="curve"/>
      <point x="552.5833333333334" y="674.625"/>
      <point x="488.9583333333333" y="608.5833333333334"/>
      <point x="506.7916666666667" y="431.375" type="curve" smooth="yes"/>
      <point x="548.5833333333334" y="20.75" type="line" smooth="yes"/>
      <point x="560.8958333333334" y="-103.375"/>
      <point x="443.7291666666667" y="-138.625"/>
      <point x="297.0625" y="-138.625" type="curve"/>
      <point x="297.0625" y="-270.75" type="line"/>
      <point x="521.6875" y="-270.75"/>
      <point x="729.5208333333334" y="-204.58333333333334"/>
      <point x="703.375" y="40.89583333333333" type="curve" smooth="yes"/>
      <point x="662.5833333333334" y="421.25" type="line" smooth="yes"/>
      <point x="648.125" y="557.0625"/>
      <point x="719.25" y="632.8958333333334"/>
      <point x="965.1041666666666" y="632.8958333333334" type="curve"/>
      <point x="965.1041666666666" y="767.1041666666666" type="line"/>
      <point x="718.7916666666666" y="767.1041666666666"/>
      <point x="648.125" y="840.625"/>
      <point x="662.5833333333334" y="977.2083333333334" type="curve" smooth="yes"/>
      <point x="703.375" y="1358.7916666666667" type="line" smooth="yes"/>
      <point x="729.8333333333334" y="1604.8958333333333"/>
      <point x="521.6875" y="1670.75"/>
    </contour>
  </outline>
</glyph>
<glyph name="asciitilde" format="2">
  <advance width="1200.0"/>
  <unicode hex="007E"/>
  <outline>
    <contour>
      <point x="410.625" y="801.4166666666666" type="curve" smooth="yes"/>
      <point x="232.9375" y="801.4166666666666"/>
      <point x="146.58333333333334" y="663.2083333333334"/>
      <point x="86.9375" y="546.3125" type="curve"/>
      <point x="206.89583333333334" y="486.5833333333333" type="line"/>
      <point x="258.8958333333333" y="582.5833333333334"/>
      <point x="317.6875" y="655.6875"/>
      <point x="404.9375" y="655.6875" type="curve" smooth="yes"/>
      <point x="531.1041666666666" y="655.6875"/>
      <point x="602.0" y="455.6875"/>
      <point x="789.375" y="455.6875" type="curve" smooth="yes"/>
      <point x="965.0625" y="455.6875"/>
      <point x="1054.2708333333333" y="594.9375"/>
      <point x="1113.0625" y="709.25" type="curve"/>
      <point x="993.1041666666666" y="770.75" type="line"/>
      <point x="941.4166666666666" y="675.6875"/>
      <point x="878.0" y="601.4166666666666"/>
      <point x="795.0625" y="601.4166666666666" type="curve" smooth="yes"/>
      <point x="672.75" y="601.4166666666666"/>
      <point x="611.25" y="801.4166666666666"/>
    </contour>
  </outline>
</glyph>
<glyph name="exclamdown" format="2">
  <advance width="1200.0"/>
  <unicode hex="00A1"/>
  <outline>
    <contour>
      <point x="669.7291666666666" y="520.625" type="line"/>
      <point x="525.4166666666666" y="520.625" type="line"/>
      <point x="501.375" y="-394.5833333333333" type="line"/>
      <point x="696.0" y="-394.5833333333333" type="line"/>
    </contour>
    <contour>
      <point x="597.6875" y="996.7916666666666" type="curve" smooth="yes"/>
      <point x="522.5833333333334" y="996.7916666666666"/>
      <point x="465.25" y="937.6875"/>
      <point x="465.25" y="862.5833333333334" type="curve" smooth="yes"/>
      <point x="465.25" y="789.25"/>
      <point x="522.5833333333334" y="729.0625"/>
      <point x="597.6875" y="729.0625" type="curve" smooth="yes"/>
      <point x="673.25" y="729.0625"/>
      <point x="733.2083333333334" y="789.25"/>
      <point x="733.2083333333334" y="862.5833333333334" type="curve" smooth="yes"/>
      <point x="733.2083333333334" y="937.6875"/>
      <point x="673.25" y="996.7916666666666"/>
    </contour>
  </outline>
</glyph>
<glyph name="cent" format="2">
  <advance width="1200.0"/>
  <unicode hex="00A2"/>
  <anchor x="661.0625" y="0.0" name="bottomAttach"/>
  <outline>
    <contour>
      <point x="745.6875" y="1366.2708333333333" type="line"/>
      <point x="598.3125" y="1366.2708333333333" type="line"/>
      <point x="598.3125" y="1064.2708333333333" type="line"/>
      <point x="342.0" y="1027.6875"/>
      <point x="211.72916666666666" y="809.6875"/>
      <point x="211.72916666666666" y="521.6875" type="curve" smooth="yes"/>
      <point x="211.72916666666666" y="220.27083333333334"/>
      <point x="342.625" y="21.208333333333332"/>
      <point x="596.3125" y="-11.0625" type="curve"/>
      <point x="596.3125" y="-306.5833333333333" type="line"/>
      <point x="745.6875" y="-306.5833333333333" type="line"/>
      <point x="745.6875" y="-13.208333333333332" type="line"/>
      <point x="830.8958333333334" y="-1.0625"/>
      <point x="912.5833333333334" y="27.6875"/>
      <point x="988.2708333333334" y="92.0" type="curve"/>
      <point x="906.9375" y="210.75" type="line"/>
      <point x="819.375" y="143.72916666666666"/>
      <point x="751.7291666666666" y="121.72916666666666"/>
      <point x="673.25" y="121.72916666666666" type="curve" smooth="yes"/>
      <point x="500.3125" y="121.72916666666666"/>
      <point x="393.7291666666667" y="240.75"/>
      <point x="393.7291666666667" y="521.6875" type="curve" smooth="yes"/>
      <point x="393.7291666666667" y="800.0"/>
      <point x="498.9375" y="934.9375"/>
      <point x="672.9375" y="934.9375" type="curve" smooth="yes"/>
      <point x="749.4166666666666" y="934.9375"/>
      <point x="816.2708333333334" y="917.25"/>
      <point x="903.6875" y="852.3125" type="curve"/>
      <point x="988.2708333333334" y="963.6875" type="line"/>
      <point x="912.2708333333334" y="1025.375"/>
      <point x="830.8958333333334" y="1056.8958333333333"/>
      <point x="745.6875" y="1065.7291666666667" type="curve"/>
    </contour>
  </outline>
</glyph>
<glyph name="sterling" format="2">
  <advance width="1200.0"/>
  <unicode hex="00A3"/>
  <outline>
    <contour>
      <point x="692.8958333333334" y="1399.4166666666667" type="curve" smooth="yes"/>
      <point x="455.25" y="1399.4166666666667"/>
      <point x="313.2083333333333" y="1241.6875"/>
      <point x="313.2083333333333" y="1031.2083333333333" type="curve"/>
      <point x="313.2083333333333" y="775.25" type="line"/>
      <point x="149.25" y="775.25" type="line"/>
      <point x="149.25" y="658.2708333333334" type="line"/>
      <point x="313.2083333333333" y="658.2708333333334" type="line"/>
      <point x="313.2083333333333" y="401.7291666666667" type="line" smooth="yes"/>
      <point x="313.2083333333333" y="278.9375"/>
      <point x="307.6875" y="186.58333333333334"/>
      <point x="148.75" y="136.27083333333334" type="curve"/>
      <point x="148.75" y="0.0" type="line"/>
      <point x="1014.625" y="0.0" type="line"/>
      <point x="1034.8958333333333" y="143.41666666666666" type="line"/>
      <point x="357.6875" y="143.41666666666666" type="line"/>
      <point x="461.6875" y="201.41666666666666"/>
      <point x="481.0625" y="300.75"/>
      <point x="481.0625" y="409.6875" type="curve" smooth="yes"/>
      <point x="481.0625" y="658.2708333333334" type="line"/>
      <point x="894.625" y="658.2708333333334" type="line"/>
      <point x="894.625" y="775.25" type="line"/>
      <point x="481.0625" y="775.25" type="line"/>
      <point x="481.0625" y="1016.2708333333334" type="line" smooth="yes"/>
      <point x="481.0625" y="1174.7916666666667"/>
      <point x="556.9375" y="1258.0"/>
      <point x="698.625" y="1258.0" type="curve" smooth="yes"/>
      <point x="796.5833333333334" y="1258.0"/>
      <point x="870.3125" y="1223.0625"/>
      <point x="937.4166666666666" y="1141.2083333333333" type="curve"/>
      <point x="1051.25" y="1227.25" type="line"/>
      <point x="961.7291666666666" y="1349.0625"/>
      <point x="836.8958333333334" y="1399.4166666666667"/>
    </contour>
  </outline>
</glyph>
<glyph name="currency" format="2">
  <advance width="1200.0"/>
  <unicode hex="00A4"/>
  <outline>
    <contour>
      <point x="176.79166666666666" y="1219.375" type="line"/>
      <point x="68.9375" y="1110.75" type="line"/>
      <point x="244.89583333333334" y="931.25" type="line"/>
      <point x="202.58333333333334" y="865.25"/>
      <point x="175.41666666666666" y="780.9375"/>
      <point x="175.41666666666666" y="684.0" type="curve" smooth="yes"/>
      <point x="175.41666666666666" y="585.375"/>
      <point x="202.27083333333334" y="500.75"/>
      <point x="246.89583333333334" y="432.8958333333333" type="curve"/>
      <point x="68.9375" y="255.25" type="line"/>
      <point x="176.79166666666666" y="146.625" type="line"/>
      <point x="354.75" y="324.5833333333333" type="line"/>
      <point x="422.75" y="281.7291666666667"/>
      <point x="507.0625" y="259.1041666666667"/>
      <point x="602.0" y="259.1041666666667" type="curve" smooth="yes"/>
      <point x="694.9375" y="259.1041666666667"/>
      <point x="776.9375" y="281.7291666666667"/>
      <point x="842.9375" y="324.5833333333333" type="curve"/>
      <point x="1023.2083333333334" y="148.3125" type="line"/>
      <point x="1131.0625" y="257.25" type="line"/>
      <point x="955.1041666666666" y="430.8958333333333" type="line"/>
      <point x="999.7291666666666" y="498.75"/>
      <point x="1030.5833333333333" y="583.0625"/>
      <point x="1030.5833333333333" y="684.0" type="curve" smooth="yes"/>
      <point x="1030.5833333333333" y="780.625"/>
      <point x="1001.7291666666666" y="866.7916666666666"/>
      <point x="957.1041666666666" y="932.7916666666666" type="curve"/>
      <point x="1131.0625" y="1108.75" type="line"/>
      <point x="1023.2083333333334" y="1217.375" type="line"/>
      <point x="845.25" y="1039.4166666666667" type="line"/>
      <point x="778.7916666666666" y="1084.2708333333333"/>
      <point x="694.9375" y="1106.8958333333333"/>
      <point x="602.0" y="1106.8958333333333" type="curve" smooth="yes"/>
      <point x="507.375" y="1106.8958333333333"/>
      <point x="422.75" y="1081.7291666666667"/>
      <point x="355.2083333333333" y="1039.4166666666667" type="curve"/>
    </contour>
    <contour>
      <point x="602.0" y="970.75" type="curve" smooth="yes"/>
      <point x="770.3125" y="970.75"/>
      <point x="856.8958333333334" y="862.3125"/>
      <point x="856.8958333333334" y="684.0" type="curve" smooth="yes"/>
      <point x="856.8958333333334" y="503.6875"/>
      <point x="770.3125" y="396.7916666666667"/>
      <point x="602.0" y="396.7916666666667" type="curve" smooth="yes"/>
      <point x="434.0" y="396.7916666666667"/>
      <point x="345.4166666666667" y="503.6875"/>
      <point x="345.4166666666667" y="684.0" type="curve" smooth="yes"/>
      <point x="345.4166666666667" y="862.3125"/>
      <point x="434.0" y="970.75"/>
    </contour>
  </outline>
</glyph>
<glyph name="yen" format="2">
  <advance width="1200.0"/>
  <unicode hex="00A5"/>
  <outline>
    <contour>
      <point x="1120.7916666666667" y="1376.75" type="line"/>
      <point x="942.7916666666666" y="1376.75" type="line"/>
      <point x="609.6875" y="744.3125" type="line"/>
      <point x="601.6875" y="744.3125" type="line"/>
      <point x="268.75" y="1376.75" type="line"/>
      <point x="79.20833333333334" y="1376.75" type="line"/>
      <point x="463.7291666666667" y="690.8958333333334" type="line"/>
      <point x="231.41666666666666" y="690.8958333333334" type="line"/>
      <point x="231.41666666666666" y="573.375" type="line"/>
      <point x="511.0625" y="573.375" type="line"/>
      <point x="511.0625" y="401.6875" type="line"/>
      <point x="231.41666666666666" y="401.6875" type="line"/>
      <point x="231.41666666666666" y="285.25" type="line"/>
      <point x="511.0625" y="285.25" type="line"/>
      <point x="511.0625" y="0.0" type="line"/>
      <point x="688.3125" y="0.0" type="line"/>
      <point x="688.3125" y="285.25" type="line"/>
      <point x="971.7291666666666" y="285.25" type="line"/>
      <point x="971.7291666666666" y="401.6875" type="line"/>
      <point x="688.3125" y="401.6875" type="line"/>
      <point x="688.3125" y="573.375" type="line"/>
      <point x="971.7291666666666" y="573.375" type="line"/>
      <point x="971.7291666666666" y="690.8958333333334" type="line"/>
      <point x="733.4166666666666" y="690.8958333333334" type="line"/>
    </contour>
  </outline>
</glyph>
<glyph name="brokenbar" format="2">
  <advance width="1200.0"/>
  <unicode hex="00A6"/>
  <outline>
    <contour>
      <point x="674.3125" y="1613.0625" type="line"/>
      <point x="523.6875" y="1613.0625" type="line"/>
      <point x="523.6875" y="902.7916666666666" type="line"/>
      <point x="674.3125" y="902.7916666666666" type="line"/>
    </contour>
    <contour>
      <point x="674.3125" y="507.2083333333333" type="line"/>
      <point x="523.6875" y="507.2083333333333" type="line"/>
      <point x="523.6875" y="-203.0625" type="line"/>
      <point x="674.3125" y="-203.0625" type="line"/>
    </contour>
  </outline>
</glyph>
<glyph name="section" format="2">
  <advance width="1200.0"/>
  <unicode hex="00A7"/>
  <outline>
    <contour>
      <point x="633.375" y="1399.4166666666667" type="curve" smooth="yes"/>
      <point x="425.4166666666667" y="1399.4166666666667"/>
      <point x="255.41666666666666" y="1288.625"/>
      <point x="255.41666666666666" y="1106.7916666666667" type="curve" smooth="yes"/>
      <point x="255.41666666666666" y="1017.1041666666666"/>
      <point x="300.2708333333333" y="945.7291666666666"/>
      <point x="373.7291666666667" y="890.5833333333334" type="curve"/>
      <point x="286.2708333333333" y="836.8958333333334"/>
      <point x="212.27083333333334" y="748.2708333333334"/>
      <point x="212.27083333333334" y="641.2083333333334" type="curve" smooth="yes"/>
      <point x="212.27083333333334" y="482.3125"/>
      <point x="304.0" y="406.9375"/>
      <point x="521.2083333333334" y="332.75" type="curve" smooth="yes"/>
      <point x="721.4166666666666" y="266.75"/>
      <point x="767.6875" y="230.58333333333334"/>
      <point x="767.6875" y="139.0625" type="curve" smooth="yes"/>
      <point x="767.6875" y="51.6875"/>
      <point x="680.9375" y="-1.7291666666666679"/>
      <point x="566.75" y="-1.7291666666666679" type="curve" smooth="yes"/>
      <point x="454.7916666666667" y="-1.7291666666666679"/>
      <point x="375.4166666666667" y="27.729166666666664"/>
      <point x="296.5833333333333" y="84.27083333333333" type="curve"/>
      <point x="214.79166666666666" y="-28.791666666666664" type="line"/>
      <point x="302.0" y="-95.25"/>
      <point x="411.7291666666667" y="-139.25"/>
      <point x="558.625" y="-139.25" type="curve" smooth="yes"/>
      <point x="783.375" y="-139.25"/>
      <point x="944.2708333333334" y="-29.375"/>
      <point x="944.2708333333334" y="151.375" type="curve" smooth="yes"/>
      <point x="944.2708333333334" y="244.75"/>
      <point x="897.1041666666666" y="314.8958333333333"/>
      <point x="825.1041666666666" y="368.5833333333333" type="curve"/>
      <point x="913.1041666666666" y="422.2708333333333"/>
      <point x="985.4166666666666" y="510.5833333333333"/>
      <point x="985.4166666666666" y="619.4166666666666" type="curve" smooth="yes"/>
      <point x="985.4166666666666" y="775.6875"/>
      <point x="896.3125" y="853.375"/>
      <point x="679.1041666666666" y="925.25" type="curve" smooth="yes"/>
      <point x="477.1041666666667" y="993.4166666666666"/>
      <point x="431.6875" y="1030.8958333333333"/>
      <point x="431.6875" y="1121.1041666666667" type="curve" smooth="yes"/>
      <point x="431.6875" y="1206.9375"/>
      <point x="509.2083333333333" y="1262.8958333333333"/>
      <point x="623.25" y="1262.8958333333333" type="curve" smooth="yes"/>
      <point x="735.0625" y="1262.8958333333333"/>
      <point x="807.7291666666666" y="1231.7291666666667"/>
      <point x="887.1041666666666" y="1177.4166666666667" type="curve"/>
      <point x="968.2708333333334" y="1292.2708333333333" type="line"/>
      <point x="879.6875" y="1355.4166666666667"/>
      <point x="779.375" y="1399.4166666666667"/>
    </contour>
    <contour>
      <point x="477.0625" y="833.25" type="curve"/>
      <point x="754.0" y="730.5833333333334"/>
      <point x="819.4166666666666" y="708.75"/>
      <point x="819.4166666666666" y="597.6875" type="curve" smooth="yes"/>
      <point x="819.4166666666666" y="539.4166666666666"/>
      <point x="783.6875" y="476.0"/>
      <point x="723.25" y="425.0625" type="curve"/>
      <point x="446.0" y="525.4166666666666"/>
      <point x="380.5833333333333" y="545.25"/>
      <point x="380.5833333333333" y="662.3125" type="curve" smooth="yes"/>
      <point x="380.5833333333333" y="718.2708333333334"/>
      <point x="414.625" y="782.0"/>
    </contour>
  </outline>
</glyph>
<glyph name="dieresis" format="2">
  <advance width="1200.0"/>
  <unicode hex="00A8"/>
  <anchor x="600.0" y="1052.75" name="_top"/>
  <anchor x="600.0" y="1400.3125" name="top"/>
  <outline>
    <contour>
      <point x="392.8958333333333" y="1296.5833333333333" type="curve" smooth="yes"/>
      <point x="452.75" y="1296.5833333333333"/>
      <point x="500.625" y="1341.6875"/>
      <point x="500.625" y="1402.625" type="curve" smooth="yes"/>
      <point x="500.625" y="1465.4166666666667"/>
      <point x="452.75" y="1510.75"/>
      <point x="392.8958333333333" y="1510.75" type="curve" smooth="yes"/>
      <point x="329.4166666666667" y="1510.75"/>
      <point x="282.625" y="1465.4166666666667"/>
      <point x="282.625" y="1402.625" type="curve" smooth="yes"/>
      <point x="282.625" y="1341.6875"/>
      <point x="329.4166666666667" y="1296.5833333333333"/>
    </contour>
    <contour>
      <point x="804.7916666666666" y="1296.5833333333333" type="curve" smooth="yes"/>
      <point x="867.7291666666666" y="1296.5833333333333"/>
      <point x="915.0625" y="1341.6875"/>
      <point x="915.0625" y="1402.625" type="curve" smooth="yes"/>
      <point x="915.0625" y="1465.4166666666667"/>
      <point x="867.7291666666666" y="1510.75"/>
      <point x="804.7916666666666" y="1510.75" type="curve" smooth="yes"/>
      <point x="744.3125" y="1510.75"/>
      <point x="697.0625" y="1465.4166666666667"/>
      <point x="697.0625" y="1402.625" type="curve" smooth="yes"/>
      <point x="697.0625" y="1341.6875"/>
      <point x="744.3125" y="1296.5833333333333"/>
    </contour>
  </outline>
</glyph>
<glyph name="copyright" format="2">
  <advance width="1200.0"/>
  <unicode hex="00A9"/>
  <outline>
    <contour>
      <point x="602.0" y="1493.1041666666667" type="curve" smooth="yes"/>
      <point x="256.8958333333333" y="1493.1041666666667"/>
      <point x="58.625" y="1215.0625"/>
      <point x="58.625" y="870.5833333333334" type="curve" smooth="yes"/>
      <point x="58.625" y="527.1041666666666"/>
      <point x="258.0" y="248.75"/>
      <point x="602.0" y="248.75" type="curve" smooth="yes"/>
      <point x="944.7916666666666" y="248.75"/>
      <point x="1141.375" y="527.1041666666666"/>
      <point x="1141.375" y="870.5833333333334" type="curve" smooth="yes"/>
      <point x="1141.375" y="1215.0625"/>
      <point x="944.7916666666666" y="1493.1041666666667"/>
    </contour>
    <contour>
      <point x="609.2083333333334" y="1250.9375" type="curve" smooth="yes"/>
      <point x="435.1041666666667" y="1250.9375"/>
      <point x="284.3125" y="1120.8958333333333"/>
      <point x="284.3125" y="872.5833333333334" type="curve" smooth="yes"/>
      <point x="284.3125" y="627.0625"/>
      <point x="421.25" y="494.3125"/>
      <point x="611.2083333333334" y="494.3125" type="curve" smooth="yes"/>
      <point x="722.0" y="494.3125"/>
      <point x="797.6875" y="538.625"/>
      <point x="852.75" y="587.375" type="curve"/>
      <point x="787.4166666666666" y="683.6875" type="line"/>
      <point x="740.3125" y="640.5833333333334"/>
      <point x="686.75" y="614.2708333333334"/>
      <point x="614.7916666666666" y="614.2708333333334" type="curve" smooth="yes"/>
      <point x="503.7291666666667" y="614.2708333333334"/>
      <point x="427.0625" y="696.625"/>
      <point x="427.0625" y="872.5833333333334" type="curve" smooth="yes"/>
      <point x="427.0625" y="1061.1041666666667"/>
      <point x="510.2708333333333" y="1136.75"/>
      <point x="614.7916666666666" y="1136.75" type="curve" smooth="yes"/>
      <point x="668.2708333333334" y="1136.75"/>
      <point x="720.3125" y="1119.2083333333333"/>
      <point x="771.7291666666666" y="1077.1041666666667" type="curve"/>
      <point x="842.75" y="1172.8958333333333" type="line"/>
      <point x="772.5833333333334" y="1224.7916666666667"/>
      <point x="711.0625" y="1250.9375"/>
    </contour>
    <contour>
      <point x="602.0" y="1393.4166666666667" type="curve" smooth="yes"/>
      <point x="889.6875" y="1393.4166666666667"/>
      <point x="1031.1041666666667" y="1160.2708333333333"/>
      <point x="1031.1041666666667" y="870.5833333333334" type="curve" smooth="yes"/>
      <point x="1031.1041666666667" y="582.8958333333334"/>
      <point x="890.0" y="350.75"/>
      <point x="602.0" y="350.75" type="curve" smooth="yes"/>
      <point x="312.0" y="350.75"/>
      <point x="170.89583333333334" y="582.8958333333334"/>
      <point x="170.89583333333334" y="870.5833333333334" type="curve" smooth="yes"/>
      <point x="170.89583333333334" y="1160.2708333333333"/>
      <point x="312.0" y="1393.4166666666667"/>
    </contour>
  </outline>
</glyph>
<glyph name="ordfeminine" format="2">
  <advance width="1200.0"/>
  <unicode hex="00AA"/>
  <outline>
    <contour>
      <point x="579.6875" y="1497.7291666666667" type="curve" smooth="yes"/>
      <point x="490.0" y="1497.7291666666667"/>
      <point x="386.5833333333333" y="1482.5833333333333"/>
      <point x="269.2083333333333" y="1438.2708333333333" type="curve"/>
      <point x="314.9375" y="1321.25" type="line"/>
      <point x="411.25" y="1354.7916666666667"/>
      <point x="501.25" y="1368.7916666666667"/>
      <point x="557.4166666666666" y="1368.7916666666667" type="curve" smooth="yes"/>
      <point x="682.5833333333334" y="1368.7916666666667"/>
      <point x="754.7916666666666" y="1325.2083333333333"/>
      <point x="754.7916666666666" y="1213.25" type="curve" smooth="yes"/>
      <point x="754.7916666666666" y="1152.7916666666667" type="line"/>
      <point x="638.0" y="1152.7916666666667" type="line" smooth="yes"/>
      <point x="366.9375" y="1152.7916666666667"/>
      <point x="204.0" y="1057.2083333333333"/>
      <point x="204.0" y="879.0625" type="curve" smooth="yes"/>
      <point x="204.0" y="719.6875"/>
      <point x="326.0" y="614.9375"/>
      <point x="507.6875" y="614.9375" type="curve" smooth="yes"/>
      <point x="609.0625" y="614.9375"/>
      <point x="709.6875" y="656.9375"/>
      <point x="775.6875" y="732.625" type="curve"/>
      <point x="804.8958333333334" y="658.3125"/>
      <point x="858.7916666666666" y="624.0"/>
      <point x="941.4166666666666" y="614.3125" type="curve"/>
      <point x="978.75" y="723.25" type="line"/>
      <point x="935.2083333333334" y="737.25"/>
      <point x="912.5833333333334" y="762.7916666666666"/>
      <point x="912.5833333333334" y="823.1041666666666" type="curve" smooth="yes"/>
      <point x="912.5833333333334" y="1218.9375" type="line" smooth="yes"/>
      <point x="912.5833333333334" y="1392.2708333333333"/>
      <point x="804.2708333333334" y="1497.7291666666667"/>
    </contour>
    <contour>
      <point x="996.9375" y="151.25" type="line"/>
      <point x="210.79166666666666" y="151.25" type="line"/>
      <point x="210.79166666666666" y="0.0" type="line"/>
      <point x="996.9375" y="0.0" type="line"/>
    </contour>
    <contour>
      <point x="754.7916666666666" y="1041.2083333333333" type="line"/>
      <point x="754.7916666666666" y="845.0625" type="line"/>
      <point x="703.6875" y="776.2708333333334"/>
      <point x="625.4166666666666" y="733.1041666666666"/>
      <point x="545.0625" y="733.1041666666666" type="curve" smooth="yes"/>
      <point x="436.8958333333333" y="733.1041666666666"/>
      <point x="373.375" y="785.0625"/>
      <point x="373.375" y="886.75" type="curve" smooth="yes"/>
      <point x="373.375" y="985.25"/>
      <point x="452.5833333333333" y="1041.2083333333333"/>
      <point x="639.375" y="1041.2083333333333" type="curve" smooth="yes"/>
    </contour>
  </outline>
</glyph>
<glyph name="guillemetleft" format="2">
  <advance width="1200.0"/>
  <unicode hex="00AB"/>
  <outline>
    <contour>
      <point x="616.75" y="175.20833333333334" type="line"/>
      <point x="347.2083333333333" y="587.1041666666666" type="line"/>
      <point x="616.75" y="1000.3125" type="line"/>
      <point x="515.6875" y="1065.2083333333333" type="line"/>
      <point x="164.89583333333334" y="646.7916666666666" type="line"/>
      <point x="164.89583333333334" y="525.4166666666666" type="line"/>
      <point x="515.6875" y="110.3125" type="line"/>
    </contour>
    <contour>
      <point x="1032.7916666666667" y="175.20833333333334" type="line"/>
      <point x="763.25" y="587.1041666666666" type="line"/>
      <point x="1032.7916666666667" y="1000.3125" type="line"/>
      <point x="931.7291666666666" y="1065.2083333333333" type="line"/>
      <point x="578.9375" y="646.7916666666666" type="line"/>
      <point x="578.9375" y="525.4166666666666" type="line"/>
      <point x="931.7291666666666" y="110.3125" type="line"/>
    </contour>
  </outline>
</glyph>
<glyph name="logicalnot" format="2">
  <advance width="1200.0"/>
  <unicode hex="00AC"/>
  <outline>
    <contour>
      <point x="969.25" y="694.7916666666666" type="line"/>
      <point x="230.75" y="694.7916666666666" type="line"/>
      <point x="230.75" y="552.0" type="line"/>
      <point x="814.625" y="552.0" type="line"/>
      <point x="814.625" y="268.8958333333333" type="line"/>
      <point x="969.25" y="268.8958333333333" type="line"/>
    </contour>
  </outline>
</glyph>
<glyph name="registered" format="2">
  <advance width="1200.0"/>
  <unicode hex="00AE"/>
  <outline>
    <contour>
      <point x="599.6875" y="1493.1041666666667" type="curve" smooth="yes"/>
      <point x="319.375" y="1493.1041666666667"/>
      <point x="92.9375" y="1264.5833333333333"/>
      <point x="92.9375" y="983.4166666666666" type="curve" smooth="yes"/>
      <point x="92.9375" y="702.9375"/>
      <point x="319.375" y="477.7291666666667"/>
      <point x="599.6875" y="477.7291666666667" type="curve" smooth="yes"/>
      <point x="880.625" y="477.7291666666667"/>
      <point x="1105.0625" y="702.9375"/>
      <point x="1105.0625" y="983.4166666666666" type="curve" smooth="yes"/>
      <point x="1105.0625" y="1264.5833333333333"/>
      <point x="880.625" y="1493.1041666666667"/>
    </contour>
    <contour>
      <point x="599.6875" y="1399.4166666666667" type="curve" smooth="yes"/>
      <point x="830.0" y="1399.4166666666667"/>
      <point x="1000.9375" y="1213.25"/>
      <point x="1000.9375" y="983.4166666666666" type="curve" smooth="yes"/>
      <point x="1000.9375" y="754.2708333333334"/>
      <point x="830.0" y="571.1041666666666"/>
      <point x="599.6875" y="571.1041666666666" type="curve" smooth="yes"/>
      <point x="369.6875" y="571.1041666666666"/>
      <point x="197.0625" y="754.2708333333334"/>
      <point x="197.0625" y="983.4166666666666" type="curve" smooth="yes"/>
      <point x="197.0625" y="1213.25"/>
      <point x="369.6875" y="1399.4166666666667"/>
    </contour>
    <contour>
      <point x="570.7916666666666" y="1272.3125" type="curve" smooth="yes"/>
      <point x="401.4166666666667" y="1272.3125" type="line"/>
      <point x="401.4166666666667" y="708.9375" type="line"/>
      <point x="514.5833333333334" y="708.9375" type="line"/>
      <point x="514.5833333333334" y="925.7291666666666" type="line"/>
      <point x="571.375" y="925.7291666666666" type="line"/>
      <point x="722.5833333333334" y="708.9375" type="line"/>
      <point x="855.2083333333334" y="708.9375" type="line"/>
      <point x="683.25" y="944.9375" type="line"/>
      <point x="759.7291666666666" y="966.3125"/>
      <point x="817.2083333333334" y="1018.0"/>
      <point x="817.2083333333334" y="1103.25" type="curve" smooth="yes"/>
      <point x="817.2083333333334" y="1214.0"/>
      <point x="735.6875" y="1272.3125"/>
    </contour>
    <contour>
      <point x="574.0" y="1184.5833333333333" type="line" smooth="yes"/>
      <point x="661.1041666666666" y="1184.5833333333333"/>
      <point x="700.2708333333334" y="1155.4166666666667"/>
      <point x="700.2708333333334" y="1102.625" type="curve" smooth="yes"/>
      <point x="700.2708333333334" y="1036.75"/>
      <point x="655.1041666666666" y="1013.2083333333334"/>
      <point x="578.3125" y="1013.2083333333334" type="curve" smooth="yes"/>
      <point x="514.5833333333334" y="1013.2083333333334" type="line"/>
      <point x="514.5833333333334" y="1184.5833333333333" type="line"/>
    </contour>
  </outline>
</glyph>
<glyph name="degree" format="2">
  <advance width="1200.0"/>
  <unicode hex="00B0"/>
  <outline>
    <contour>
      <point x="455.0625" y="1497.7291666666667" type="curve" smooth="yes"/>
      <point x="290.625" y="1497.7291666666667"/>
      <point x="131.20833333333334" y="1384.75"/>
      <point x="131.20833333333334" y="1186.9375" type="curve" smooth="yes"/>
      <point x="131.20833333333334" y="983.7291666666666"/>
      <point x="290.625" y="871.375"/>
      <point x="455.0625" y="871.375" type="curve" smooth="yes"/>
      <point x="622.5833333333334" y="871.375"/>
      <point x="779.6875" y="983.7291666666666"/>
      <point x="779.6875" y="1184.625" type="curve" smooth="yes"/>
      <point x="779.6875" y="1384.75"/>
      <point x="622.5833333333334" y="1497.7291666666667"/>
    </contour>
    <contour>
      <point x="455.0625" y="1378.9375" type="curve" smooth="yes"/>
      <point x="548.3125" y="1378.9375"/>
      <point x="633.375" y="1316.625"/>
      <point x="633.375" y="1184.625" type="curve" smooth="yes"/>
      <point x="633.375" y="1052.625"/>
      <point x="548.3125" y="990.625"/>
      <point x="455.0625" y="990.625" type="curve" smooth="yes"/>
      <point x="364.8958333333333" y="990.625"/>
      <point x="276.75" y="1052.625"/>
      <point x="276.75" y="1186.9375" type="curve" smooth="yes"/>
      <point x="276.75" y="1318.9375"/>
      <point x="364.8958333333333" y="1378.9375"/>
    </contour>
  </outline>
</glyph>
<glyph name="plusminus" format="2">
  <advance width="1200.0"/>
  <unicode hex="00B1"/>
  <outline>
    <contour>
      <point x="680.5833333333334" y="1075.375" type="line"/>
      <point x="519.4166666666666" y="1075.375" type="line"/>
      <point x="519.4166666666666" y="776.7916666666666" type="line"/>
      <point x="230.75" y="776.7916666666666" type="line"/>
      <point x="230.75" y="635.6875" type="line"/>
      <point x="519.4166666666666" y="635.6875" type="line"/>
      <point x="519.4166666666666" y="325.1041666666667" type="line"/>
      <point x="680.5833333333334" y="325.1041666666667" type="line"/>
      <point x="680.5833333333334" y="635.6875" type="line"/>
      <point x="969.25" y="635.6875" type="line"/>
      <point x="969.25" y="776.7916666666666" type="line"/>
      <point x="680.5833333333334" y="776.7916666666666" type="line"/>
    </contour>
    <contour>
      <point x="969.25" y="145.72916666666666" type="line"/>
      <point x="230.75" y="145.72916666666666" type="line"/>
      <point x="230.75" y="0.0" type="line"/>
      <point x="969.25" y="0.0" type="line"/>
    </contour>
  </outline>
</glyph>
<glyph name="acute" format="2">
  <advance width="1200.0"/>
  <unicode hex="00B4"/>
  <anchor x="600.0" y="1052.75" name="_top"/>
  <outline>
    <contour>
      <point x="767.4166666666666" y="1593.6875" type="line"/>
      <point x="374.5833333333333" y="1370.3125" type="line"/>
      <point x="426.8958333333333" y="1279.6875" type="line"/>
      <point x="844.9375" y="1449.7291666666667" type="line"/>
    </contour>
  </outline>
</glyph>
<glyph name="micro" format="2">
  <advance width="1200.0"/>
  <unicode hex="00B5"/>
  <outline>
    <contour>
      <point x="967.0625" y="1052.75" type="line"/>
      <point x="799.0625" y="1052.75" type="line"/>
      <point x="799.0625" y="284.625" type="line"/>
      <point x="739.4166666666666" y="201.20833333333334"/>
      <point x="648.5833333333334" y="125.375"/>
      <point x="522.3125" y="125.375" type="curve" smooth="yes"/>
      <point x="362.2708333333333" y="125.375"/>
      <point x="345.25" y="252.0"/>
      <point x="345.25" y="462.625" type="curve" smooth="yes"/>
      <point x="345.25" y="1052.75" type="line"/>
      <point x="176.9375" y="1052.75" type="line"/>
      <point x="176.9375" y="-424.2708333333333" type="line"/>
      <point x="344.8958333333333" y="-403.0625" type="line"/>
      <point x="344.8958333333333" y="-97.41666666666666" type="line" smooth="yes"/>
      <point x="344.8958333333333" y="-54.75"/>
      <point x="336.625" y="5.6875"/>
      <point x="326.625" y="76.79166666666667" type="curve"/>
      <point x="377.6875" y="2.791666666666667"/>
      <point x="426.9375" y="-23.0625"/>
      <point x="534.3125" y="-23.0625" type="curve" smooth="yes"/>
      <point x="639.1041666666666" y="-23.0625"/>
      <point x="753.1041666666666" y="42.791666666666664"/>
      <point x="815.7291666666666" y="146.27083333333334" type="curve"/>
      <point x="821.7291666666666" y="95.0625"/>
      <point x="842.75" y="12.3125"/>
      <point x="864.3125" y="-23.375" type="curve"/>
      <point x="1022.8958333333334" y="0.0" type="line"/>
      <point x="997.1041666666666" y="80.3125"/>
      <point x="967.0625" y="197.0625"/>
      <point x="967.0625" y="335.375" type="curve" smooth="yes"/>
    </contour>
  </outline>
</glyph>
<glyph name="paragraph" format="2">
  <advance width="1200.0"/>
  <unicode hex="00B6"/>
  <outline>
    <contour>
      <point x="1112.8958333333333" y="1376.75" type="line"/>
      <point x="593.4166666666666" y="1376.75" type="line" smooth="yes"/>
      <point x="259.4166666666667" y="1376.75"/>
      <point x="84.79166666666667" y="1199.0625"/>
      <point x="84.79166666666667" y="973.7291666666666" type="curve" smooth="yes"/>
      <point x="84.79166666666667" y="754.9375"/>
      <point x="251.375" y="578.8958333333334"/>
      <point x="580.3125" y="576.7916666666666" type="curve"/>
      <point x="580.3125" y="-424.2708333333333" type="line"/>
      <point x="734.3125" y="-402.2708333333333" type="line"/>
      <point x="734.3125" y="1236.75" type="line"/>
      <point x="958.8958333333334" y="1236.75" type="line"/>
      <point x="958.8958333333334" y="-424.2708333333333" type="line"/>
      <point x="1112.8958333333333" y="-402.2708333333333" type="line"/>
    </contour>
  </outline>
</glyph>
<glyph name="cedilla" format="2">
  <advance width="1200.0"/>
  <unicode hex="00B8"/>
  <anchor x="600.0" y="0.0" name="_bottom"/>
  <outline>
    <contour>
      <point x="680.625" y="-280.75" type="curve" smooth="yes"/>
      <point x="680.625" y="-340.625"/>
      <point x="631.375" y="-362.7916666666667"/>
      <point x="561.2083333333334" y="-362.7916666666667" type="curve" smooth="yes"/>
      <point x="517.2083333333334" y="-362.7916666666667"/>
      <point x="463.7291666666667" y="-351.1041666666667"/>
      <point x="426.2708333333333" y="-331.1041666666667" type="curve"/>
      <point x="372.3125" y="-428.3125" type="line"/>
      <point x="424.0" y="-458.0"/>
      <point x="500.75" y="-477.2083333333333"/>
      <point x="581.1041666666666" y="-477.2083333333333" type="curve" smooth="yes"/>
      <point x="709.6875" y="-477.2083333333333"/>
      <point x="825.375" y="-412.2708333333333"/>
      <point x="825.375" y="-280.8958333333333" type="curve" smooth="yes"/>
      <point x="825.375" y="-201.41666666666666"/>
      <point x="771.25" y="-125.10416666666667"/>
      <point x="639.7291666666666" y="-113.72916666666667" type="curve"/>
      <point x="639.7291666666666" y="32.0" type="line"/>
      <point x="524.625" y="32.0" type="line"/>
      <point x="507.4166666666667" y="-195.25" type="line"/>
      <point x="614.0" y="-195.25"/>
      <point x="680.625" y="-209.25"/>
    </contour>
  </outline>
</glyph>
<glyph name="ordmasculine" format="2">
  <advance width="1200.0"/>
  <unicode hex="00BA"/>
  <outline>
    <contour>
      <point x="600.0" y="1497.7291666666667" type="curve" smooth="yes"/>
      <point x="352.75" y="1497.7291666666667"/>
      <point x="191.6875" y="1317.375"/>
      <point x="191.6875" y="1057.0625" type="curve" smooth="yes"/>
      <point x="191.6875" y="789.6875"/>
      <point x="350.75" y="614.9375"/>
      <point x="600.0" y="614.9375" type="curve" smooth="yes"/>
      <point x="847.25" y="614.9375"/>
      <point x="1006.0" y="796.3125"/>
      <point x="1006.0" y="1057.0625" type="curve" smooth="yes"/>
      <point x="1006.0" y="1326.3125"/>
      <point x="848.7916666666666" y="1497.7291666666667"/>
    </contour>
    <contour>
      <point x="993.7291666666666" y="151.25" type="line"/>
      <point x="208.58333333333334" y="151.25" type="line"/>
      <point x="208.58333333333334" y="0.0" type="line"/>
      <point x="993.7291666666666" y="0.0" type="line"/>
    </contour>
    <contour>
      <point x="600.0" y="1368.7916666666667" type="curve" smooth="yes"/>
      <point x="746.9375" y="1368.7916666666667"/>
      <point x="837.6875" y="1270.5833333333333"/>
      <point x="837.6875" y="1057.0625" type="curve" smooth="yes"/>
      <point x="837.6875" y="842.3125"/>
      <point x="746.9375" y="742.7916666666666"/>
      <point x="600.0" y="742.7916666666666" type="curve" smooth="yes"/>
      <point x="453.0625" y="742.7916666666666"/>
      <point x="360.0" y="842.3125"/>
      <point x="360.0" y="1057.0625" type="curve" smooth="yes"/>
      <point x="360.0" y="1270.5833333333333"/>
      <point x="453.0625" y="1368.7916666666667"/>
    </contour>
  </outline>
</glyph>
<glyph name="questiondown" format="2">
  <advance width="1200.0"/>
  <unicode hex="00BF"/>
  <outline>
    <contour>
      <point x="647.1041666666666" y="996.7916666666666" type="curve" smooth="yes"/>
      <point x="572.3125" y="996.7916666666666"/>
      <point x="514.8958333333334" y="937.6875"/>
      <point x="514.8958333333334" y="862.5833333333334" type="curve" smooth="yes"/>
      <point x="514.8958333333334" y="789.25"/>
      <point x="572.3125" y="729.0625"/>
      <point x="647.1041666666666" y="729.0625" type="curve" smooth="yes"/>
      <point x="723.2083333333334" y="729.0625"/>
      <point x="782.625" y="789.25"/>
      <point x="782.625" y="862.5833333333334" type="curve" smooth="yes"/>
      <point x="782.625" y="937.6875"/>
      <point x="723.2083333333334" y="996.7916666666666"/>
    </contour>
    <contour>
      <point x="739.375" y="520.625" type="line"/>
      <point x="570.3125" y="520.625" type="line"/>
      <point x="570.3125" y="451.1041666666667" type="line" smooth="yes"/>
      <point x="570.3125" y="170.95833333333334"/>
      <point x="209.875" y="200.58333333333334"/>
      <point x="209.875" y="-118.79166666666667" type="curve" smooth="yes"/>
      <point x="209.875" y="-276.75"/>
      <point x="358.9375" y="-427.5833333333333"/>
      <point x="604.125" y="-427.5833333333333" type="curve" smooth="yes"/>
      <point x="765.5625" y="-427.5833333333333"/>
      <point x="908.1458333333334" y="-365.8541666666667"/>
      <point x="1024.4583333333333" y="-229.54166666666666" type="curve"/>
      <point x="904.1666666666666" y="-141.83333333333334" type="line"/>
      <point x="821.375" y="-243.41666666666666"/>
      <point x="715.875" y="-287.2708333333333"/>
      <point x="621.25" y="-287.2708333333333" type="curve" smooth="yes"/>
      <point x="486.1666666666667" y="-287.2708333333333"/>
      <point x="384.9375" y="-223.375"/>
      <point x="384.9375" y="-108.75" type="curve" smooth="yes"/>
      <point x="384.9375" y="109.66666666666667"/>
      <point x="739.375" y="114.625"/>
      <point x="739.375" y="438.125" type="curve" smooth="yes"/>
    </contour>
  </outline>
</glyph>
<glyph name="AE" format="2">
  <advance width="1200.0"/>
  <unicode hex="00C6"/>
  <anchor x="600.0" y="0.0" name="bottom"/>
  <anchor x="722.5833333333334" y="1376.75" name="top"/>
  <outline>
    <contour>
      <point x="659.375" y="351.25" type="line"/>
      <point x="732.2708333333334" y="0.0" type="line"/>
      <point x="1215.25" y="0.0" type="line"/>
      <point x="1215.25" y="141.0625" type="line"/>
      <point x="872.0" y="141.0625" type="line"/>
      <point x="768.625" y="628.0" type="line"/>
      <point x="1114.3125" y="628.0" type="line"/>
      <point x="1114.3125" y="769.0625" type="line"/>
      <point x="741.7291666666666" y="769.0625" type="line"/>
      <point x="640.2708333333334" y="1235.6875" type="line"/>
      <point x="1111.4166666666667" y="1235.6875" type="line"/>
      <point x="1132.3125" y="1376.75" type="line"/>
      <point x="379.7291666666667" y="1376.75" type="line"/>
      <point x="-24.0" y="0.0" type="line"/>
      <point x="152.79166666666666" y="0.0" type="line"/>
      <point x="251.72916666666666" y="351.25" type="line"/>
    </contour>
    <contour>
      <point x="297.2083333333333" y="496.625" type="line"/>
      <point x="480.75" y="1240.0" type="line"/>
      <point x="627.6875" y="496.625" type="line"/>
    </contour>
  </outline>
</glyph>
<glyph name="Eth" format="2">
  <advance width="1200.0"/>
  <unicode hex="00D0"/>
  <anchor x="619.0625" y="0.0" name="bottom"/>
  <anchor x="619.0625" y="689.375" name="center"/>
  <anchor x="586.125" y="1376.75" name="top"/>
  <outline>
    <contour>
      <point x="675.4166666666666" y="772.625" type="line"/>
      <point x="40.583333333333336" y="772.625" type="line"/>
      <point x="40.583333333333336" y="639.375" type="line"/>
      <point x="675.4166666666666" y="639.375" type="line"/>
    </contour>
    <component base="D" xOffset="19.0625"/>
  </outline>
</glyph>
<glyph name="multiply" format="2">
  <advance width="1200.0"/>
  <unicode hex="00D7"/>
  <outline>
    <contour>
      <point x="845.4166666666666" y="966.5833333333334" type="line"/>
      <point x="600.0" y="719.25" type="line"/>
      <point x="354.5833333333333" y="966.5833333333334" type="line"/>
      <point x="249.72916666666666" y="859.4166666666666" type="line"/>
      <point x="494.75" y="614.0" type="line"/>
      <point x="249.72916666666666" y="368.5833333333333" type="line"/>
      <point x="354.5833333333333" y="263.7291666666667" type="line"/>
      <point x="600.0" y="508.75" type="line"/>
      <point x="845.4166666666666" y="263.7291666666667" type="line"/>
      <point x="950.2708333333334" y="368.5833333333333" type="line"/>
      <point x="705.25" y="614.0" type="line"/>
      <point x="950.2708333333334" y="859.4166666666666" type="line"/>
    </contour>
  </outline>
</glyph>
<glyph name="Oslash" format="2">
  <advance width="1200.0"/>
  <unicode hex="00D8"/>
  <anchor x="600.0" y="0.0" name="bottom"/>
  <anchor x="600.0" y="1376.75" name="top"/>
  <outline>
    <contour>
      <point x="600.0" y="1399.4166666666667" type="curve" smooth="yes"/>
      <point x="264.75" y="1399.4166666666667"/>
      <point x="92.79166666666667" y="1102.9375"/>
      <point x="92.79166666666667" y="684.75" type="curve" smooth="yes"/>
      <point x="92.79166666666667" y="259.4166666666667"/>
      <point x="266.7916666666667" y="-23.208333333333332"/>
      <point x="600.0" y="-23.208333333333332" type="curve" smooth="yes"/>
      <point x="935.25" y="-23.208333333333332"/>
      <point x="1107.2083333333333" y="269.4166666666667"/>
      <point x="1107.2083333333333" y="687.0625" type="curve" smooth="yes"/>
      <point x="1107.2083333333333" y="1112.9375"/>
      <point x="933.2083333333334" y="1399.4166666666667"/>
    </contour>
    <contour>
      <point x="793.375" y="1606.0" type="line"/>
      <point x="727.375" y="1376.75" type="line"/>
      <point x="704.8958333333334" y="1267.375" type="line"/>
      <point x="386.7916666666667" y="166.75" type="line"/>
      <point x="337.6875" y="70.27083333333333" type="line"/>
      <point x="258.625" y="-180.75" type="line"/>
      <point x="408.9375" y="-220.3125" type="line"/>
      <point x="478.7916666666667" y="10.3125" type="line"/>
      <point x="492.75" y="102.79166666666666" type="line"/>
      <point x="816.2708333333334" y="1222.8958333333333" type="line"/>
      <point x="865.375" y="1313.1041666666667" type="line"/>
      <point x="943.6875" y="1567.2083333333333" type="line"/>
    </contour>
    <contour>
      <point x="600.0" y="1252.75" type="curve" smooth="yes"/>
      <point x="831.2083333333334" y="1252.75"/>
      <point x="924.2708333333334" y="1098.2708333333333"/>
      <point x="924.2708333333334" y="687.0625" type="curve" smooth="yes"/>
      <point x="924.2708333333334" y="320.9375"/>
      <point x="831.2083333333334" y="123.6875"/>
      <point x="600.0" y="123.6875" type="curve" smooth="yes"/>
      <point x="375.4166666666667" y="123.6875"/>
      <point x="275.7291666666667" y="274.3125"/>
      <point x="275.7291666666667" y="684.75" type="curve" smooth="yes"/>
      <point x="275.7291666666667" y="1050.7916666666667"/>
      <point x="368.9375" y="1252.75"/>
    </contour>
  </outline>
</glyph>
<glyph name="Thorn" format="2">
  <advance width="1200.0"/>
  <unicode hex="00DE"/>
  <anchor x="600.0" y="0.0" name="bottom"/>
  <anchor x="600.0" y="1376.75" name="top"/>
  <outline>
    <contour>
      <point x="387.1041666666667" y="1376.75" type="line"/>
      <point x="214.58333333333334" y="1376.75" type="line"/>
      <point x="214.58333333333334" y="0.0" type="line"/>
      <point x="387.1041666666667" y="0.0" type="line"/>
      <point x="387.1041666666667" y="256.8958333333333" type="line"/>
      <point x="584.2708333333334" y="256.8958333333333" type="line" smooth="yes"/>
      <point x="892.5833333333334" y="256.8958333333333"/>
      <point x="1111.375" y="388.9375"/>
      <point x="1111.375" y="710.3125" type="curve" smooth="yes"/>
      <point x="1111.375" y="1007.0625"/>
      <point x="916.2708333333334" y="1144.2708333333333"/>
      <point x="585.2083333333334" y="1144.2708333333333" type="curve" smooth="yes"/>
      <point x="387.1041666666667" y="1144.2708333333333" type="line"/>
    </contour>
    <contour>
      <point x="606.3125" y="1006.625" type="line" smooth="yes"/>
      <point x="797.6875" y="1006.625"/>
      <point x="928.9375" y="920.5833333333334"/>
      <point x="928.9375" y="706.0" type="curve" smooth="yes"/>
      <point x="928.9375" y="464.9375"/>
      <point x="795.6875" y="396.0"/>
      <point x="607.2083333333334" y="396.0" type="curve" smooth="yes"/>
      <point x="387.1041666666667" y="396.0" type="line"/>
      <point x="387.1041666666667" y="1006.625" type="line"/>
    </contour>
  </outline>
</glyph>
<glyph name="germandbls" format="2">
  <advance width="1200.0"/>
  <unicode hex="00DF"/>
  <outline>
    <contour>
      <point x="592.7916666666666" y="1497.7291666666667" type="curve" smooth="yes"/>
      <point x="342.75" y="1497.7291666666667"/>
      <point x="191.6875" y="1350.3125"/>
      <point x="191.6875" y="1066.625" type="curve" smooth="yes"/>
      <point x="191.6875" y="0.0" type="line"/>
      <point x="359.6875" y="0.0" type="line"/>
      <point x="359.6875" y="1078.3125" type="line" smooth="yes"/>
      <point x="359.6875" y="1284.8958333333333"/>
      <point x="442.625" y="1363.0625"/>
      <point x="591.7291666666666" y="1363.0625" type="curve" smooth="yes"/>
      <point x="736.5833333333334" y="1363.0625"/>
      <point x="781.2083333333334" y="1267.25"/>
      <point x="781.2083333333334" y="1194.3125" type="curve" smooth="yes"/>
      <point x="781.2083333333334" y="1045.6875"/>
      <point x="547.7291666666666" y="1028.3125"/>
      <point x="547.7291666666666" y="836.75" type="curve" smooth="yes"/>
      <point x="547.7291666666666" y="574.75"/>
      <point x="944.625" y="580.75"/>
      <point x="944.625" y="324.75" type="curve" smooth="yes"/>
      <point x="944.625" y="182.3125"/>
      <point x="861.6875" y="113.41666666666666"/>
      <point x="727.4166666666666" y="113.41666666666666" type="curve" smooth="yes"/>
      <point x="669.0625" y="113.41666666666666"/>
      <point x="602.0" y="132.89583333333334"/>
      <point x="552.75" y="161.375" type="curve"/>
      <point x="484.8958333333333" y="45.729166666666664" type="line"/>
      <point x="554.8958333333334" y="0.791666666666667"/>
      <point x="636.8958333333334" y="-23.208333333333332"/>
      <point x="742.75" y="-23.208333333333332" type="curve" smooth="yes"/>
      <point x="943.6875" y="-23.208333333333332"/>
      <point x="1115.6875" y="102.3125"/>
      <point x="1115.6875" y="333.6875" type="curve" smooth="yes"/>
      <point x="1115.6875" y="670.8958333333334"/>
      <point x="714.2708333333334" y="683.25"/>
      <point x="714.2708333333334" y="857.0625" type="curve" smooth="yes"/>
      <point x="714.2708333333334" y="981.375"/>
      <point x="940.75" y="1014.75"/>
      <point x="940.75" y="1210.625" type="curve" smooth="yes"/>
      <point x="940.75" y="1380.0"/>
      <point x="799.375" y="1497.7291666666667"/>
    </contour>
  </outline>
</glyph>
<glyph name="ae" format="2">
  <advance width="1200.0"/>
  <unicode hex="00E6"/>
  <anchor x="617.1041666666666" y="1052.75" name="top"/>
  <outline>
    <contour>
      <point x="869.1041666666666" y="1075.4166666666667" type="curve" smooth="yes"/>
      <point x="737.5416666666666" y="1075.4166666666667"/>
      <point x="648.1458333333334" y="1008.625"/>
      <point x="607.0833333333334" y="899.7291666666666" type="curve"/>
      <point x="568.1041666666666" y="1006.3125"/>
      <point x="495.0416666666667" y="1075.4166666666667"/>
      <point x="341.1041666666667" y="1075.4166666666667" type="curve" smooth="yes"/>
      <point x="255.375" y="1075.4166666666667"/>
      <point x="159.72916666666666" y="1049.4166666666667"/>
      <point x="71.375" y="1008.2708333333334" type="curve"/>
      <point x="116.9375" y="880.75" type="line"/>
      <point x="203.10416666666666" y="918.75"/>
      <point x="254.58333333333334" y="935.375"/>
      <point x="324.75" y="935.375" type="curve" smooth="yes"/>
      <point x="441.0625" y="935.375"/>
      <point x="507.375" y="874.0"/>
      <point x="507.375" y="727.2083333333334" type="curve" smooth="yes"/>
      <point x="507.375" y="640.8958333333334" type="line"/>
      <point x="416.8958333333333" y="640.8958333333334" type="line" smooth="yes"/>
      <point x="135.72916666666666" y="640.8958333333334"/>
      <point x="-12.0" y="520.75"/>
      <point x="-12.0" y="301.6875" type="curve" smooth="yes"/>
      <point x="-12.0" y="106.0"/>
      <point x="106.9375" y="-23.208333333333332"/>
      <point x="292.9375" y="-23.208333333333332" type="curve" smooth="yes"/>
      <point x="426.625" y="-23.208333333333332"/>
      <point x="503.5625" y="29.25"/>
      <point x="586.7291666666666" y="168.91666666666666" type="curve"/>
      <point x="660.8958333333334" y="38.791666666666664"/>
      <point x="753.1041666666666" y="-23.208333333333332"/>
      <point x="894.9375" y="-23.208333333333332" type="curve" smooth="yes"/>
      <point x="1008.8958333333334" y="-23.208333333333332"/>
      <point x="1093.25" y="18.625"/>
      <point x="1172.7916666666667" y="82.3125" type="curve"/>
      <point x="1095.4166666666667" y="197.375" type="line"/>
      <point x="1028.9375" y="146.89583333333334"/>
      <point x="974.625" y="117.72916666666666"/>
      <point x="896.75" y="117.72916666666666" type="curve" smooth="yes"/>
      <point x="756.0" y="117.72916666666666"/>
      <point x="689.375" y="226.0"/>
      <point x="671.375" y="465.1041666666667" type="curve"/>
      <point x="1209.4166666666667" y="465.1041666666667" type="line"/>
      <point x="1211.875" y="490.9375"/>
      <point x="1213.1041666666667" y="522.9375"/>
      <point x="1213.1041666666667" y="558.9375" type="curve" smooth="yes"/>
      <point x="1213.1041666666667" y="879.1041666666666"/>
      <point x="1108.3125" y="1075.4166666666667"/>
    </contour>
    <contour>
      <point x="507.375" y="524.625" type="line"/>
      <point x="507.375" y="442.2708333333333"/>
      <point x="516.3125" y="365.25"/>
      <point x="531.5625" y="293.6875" type="curve"/>
      <point x="466.8958333333333" y="171.0625"/>
      <point x="406.9375" y="107.25"/>
      <point x="316.7916666666667" y="107.25" type="curve" smooth="yes"/>
      <point x="227.72916666666666" y="107.25"/>
      <point x="168.75" y="176.89583333333334"/>
      <point x="168.75" y="311.0625" type="curve" smooth="yes"/>
      <point x="168.75" y="439.7291666666667"/>
      <point x="230.625" y="524.625"/>
      <point x="422.75" y="524.625" type="curve" smooth="yes"/>
    </contour>
    <contour>
      <point x="864.2708333333334" y="936.0" type="curve" smooth="yes"/>
      <point x="1001.2083333333334" y="936.0"/>
      <point x="1044.7916666666667" y="818.9375"/>
      <point x="1049.1041666666667" y="596.7916666666666" type="curve"/>
      <point x="671.375" y="596.7916666666666" type="line"/>
      <point x="688.625" y="847.4166666666666"/>
      <point x="744.2708333333334" y="936.0"/>
    </contour>
  </outline>
</glyph>
<glyph name="eth" format="2">
  <advance width="1200.0"/>
  <unicode hex="00F0"/>
  <outline>
    <contour>
      <point x="339.1041666666667" y="1124.2708333333333" type="line"/>
      <point x="458.9375" y="1063.1041666666667" type="line"/>
      <point x="615.4166666666666" y="1224.8958333333333" type="line"/>
      <point x="742.7916666666666" y="1132.0"/>
      <point x="837.375" y="993.0625"/>
      <point x="874.8958333333334" y="823.6875" type="curve"/>
      <point x="798.2708333333334" y="912.2708333333334"/>
      <point x="695.0625" y="961.6875"/>
      <point x="559.1041666666666" y="961.6875" type="curve" smooth="yes"/>
      <point x="331.4166666666667" y="961.6875"/>
      <point x="133.72916666666666" y="766.3125"/>
      <point x="133.72916666666666" y="470.3125" type="curve" smooth="yes"/>
      <point x="133.72916666666666" y="154.625"/>
      <point x="338.0" y="-23.208333333333332"/>
      <point x="590.3125" y="-23.208333333333332" type="curve" smooth="yes"/>
      <point x="876.8958333333334" y="-23.208333333333332"/>
      <point x="1065.2083333333333" y="190.3125"/>
      <point x="1065.2083333333333" y="526.7916666666666" type="curve" smooth="yes"/>
      <point x="1065.2083333333333" y="909.6875"/>
      <point x="957.0625" y="1166.8958333333333"/>
      <point x="719.4166666666666" y="1330.5833333333333" type="curve"/>
      <point x="843.375" y="1458.625" type="line"/>
      <point x="742.2708333333334" y="1547.2083333333333" type="line"/>
      <point x="603.2083333333334" y="1399.0625" type="line"/>
      <point x="520.75" y="1442.625"/>
      <point x="421.2083333333333" y="1472.7916666666667"/>
      <point x="304.2708333333333" y="1498.2708333333333" type="curve"/>
      <point x="266.9375" y="1366.2708333333333" type="line"/>
      <point x="359.375" y="1347.1041666666667"/>
      <point x="434.7916666666667" y="1324.9375"/>
      <point x="500.5833333333333" y="1293.0625" type="curve"/>
    </contour>
    <contour>
      <point x="894.75" y="534.5833333333334" type="curve" smooth="yes"/>
      <point x="894.75" y="257.375"/>
      <point x="774.9375" y="112.75"/>
      <point x="587.0625" y="112.75" type="curve" smooth="yes"/>
      <point x="422.2708333333333" y="112.75"/>
      <point x="305.4166666666667" y="240.0"/>
      <point x="305.4166666666667" y="478.9375" type="curve" smooth="yes"/>
      <point x="305.4166666666667" y="720.75"/>
      <point x="435.375" y="826.7916666666666"/>
      <point x="581.2083333333334" y="826.7916666666666" type="curve" smooth="yes"/>
      <point x="710.3125" y="826.7916666666666"/>
      <point x="820.9375" y="770.5833333333334"/>
      <point x="888.8958333333334" y="665.25" type="curve"/>
      <point x="893.2083333333334" y="623.1041666666666"/>
      <point x="894.75" y="582.2708333333334"/>
    </contour>
  </outline>
</glyph>
<glyph name="divide" format="2">
  <advance width="1200.0"/>
  <unicode hex="00F7"/>
  <outline>
    <contour>
      <point x="969.25" y="694.7916666666666" type="line"/>
      <point x="230.75" y="694.7916666666666" type="line"/>
      <point x="230.75" y="552.0" type="line"/>
      <point x="969.25" y="552.0" type="line"/>
    </contour>
    <contour>
      <point x="600.0" y="365.1041666666667" type="curve" smooth="yes"/>
      <point x="525.2083333333334" y="365.1041666666667"/>
      <point x="465.25" y="305.6875"/>
      <point x="465.25" y="232.89583333333334" type="curve" smooth="yes"/>
      <point x="465.25" y="156.79166666666666"/>
      <point x="525.2083333333334" y="97.375"/>
      <point x="600.0" y="97.375" type="curve" smooth="yes"/>
      <point x="674.7916666666666" y="97.375"/>
      <point x="734.75" y="156.79166666666666"/>
      <point x="734.75" y="232.89583333333334" type="curve" smooth="yes"/>
      <point x="734.75" y="305.6875"/>
      <point x="674.7916666666666" y="365.1041666666667"/>
    </contour>
    <contour>
      <point x="600.0" y="1149.4166666666667" type="curve" smooth="yes"/>
      <point x="525.2083333333334" y="1149.4166666666667"/>
      <point x="465.25" y="1090.0"/>
      <point x="465.25" y="1017.2083333333334" type="curve" smooth="yes"/>
      <point x="465.25" y="940.7916666666666"/>
      <point x="525.2083333333334" y="883.6875"/>
      <point x="600.0" y="883.6875" type="curve" smooth="yes"/>
      <point x="674.7916666666666" y="883.6875"/>
      <point x="734.75" y="940.7916666666666"/>
      <point x="734.75" y="1017.2083333333334" type="curve" smooth="yes"/>
      <point x="734.75" y="1090.0"/>
      <point x="674.7916666666666" y="1149.4166666666667"/>
    </contour>
  </outline>
</glyph>
<glyph name="oslash" format="2">
  <advance width="1200.0"/>
  <unicode hex="00F8"/>
  <anchor x="600.0" y="1052.75" name="top"/>
  <outline>
    <contour>
      <point x="602.3125" y="1075.4166666666667" type="curve" smooth="yes"/>
      <point x="305.0625" y="1075.4166666666667"/>
      <point x="147.20833333333334" y="849.7291666666666"/>
      <point x="147.20833333333334" y="525.0625" type="curve" smooth="yes"/>
      <point x="147.20833333333334" y="194.27083333333334"/>
      <point x="314.3125" y="-23.208333333333332"/>
      <point x="600.0" y="-23.208333333333332" type="curve" smooth="yes"/>
      <point x="894.9375" y="-23.208333333333332"/>
      <point x="1052.7916666666667" y="205.20833333333334"/>
      <point x="1052.7916666666667" y="527.0625" type="curve" smooth="yes"/>
      <point x="1052.7916666666667" y="860.8958333333334"/>
      <point x="887.6875" y="1075.4166666666667"/>
    </contour>
    <contour>
      <point x="776.0" y="1308.2708333333333" type="line"/>
      <point x="696.3125" y="1055.4166666666667" type="line"/>
      <point x="680.0" y="971.0625" type="line"/>
      <point x="427.375" y="154.58333333333334" type="line"/>
      <point x="378.2708333333333" y="61.375" type="line"/>
      <point x="285.7291666666667" y="-219.10416666666666" type="line"/>
      <point x="426.0" y="-260.8958333333333" type="line"/>
      <point x="503.6875" y="1.416666666666667" type="line"/>
      <point x="530.9375" y="110.75" type="line"/>
      <point x="783.4166666666666" y="926.7916666666666" type="line"/>
      <point x="828.2708333333334" y="1000.3125" type="line"/>
      <point x="916.5833333333334" y="1267.25" type="line"/>
    </contour>
    <contour>
      <point x="602.3125" y="937.0625" type="curve" smooth="yes"/>
      <point x="778.8958333333334" y="937.0625"/>
      <point x="872.3125" y="826.0"/>
      <point x="872.3125" y="527.0625" type="curve" smooth="yes"/>
      <point x="872.3125" y="247.0625"/>
      <point x="781.25" y="115.6875"/>
      <point x="600.0" y="115.6875" type="curve" smooth="yes"/>
      <point x="421.1041666666667" y="115.6875"/>
      <point x="327.6875" y="227.0625"/>
      <point x="327.6875" y="525.0625" type="curve" smooth="yes"/>
      <point x="327.6875" y="806.0"/>
      <point x="421.0625" y="937.0625"/>
    </contour>
  </outline>
</glyph>
<glyph name="thorn" format="2">
  <advance width="1200.0"/>
  <unicode hex="00FE"/>
  <anchor x="600.0" y="-399.0625" name="bottom"/>
  <anchor x="600.0" y="1477.0625" name="top"/>
  <outline>
    <contour>
      <point x="368.8958333333333" y="1497.7291666666667" type="line"/>
      <point x="200.89583333333334" y="1477.0625" type="line"/>
      <point x="200.89583333333334" y="-423.7291666666667" type="line"/>
      <point x="368.8958333333333" y="-403.0625" type="line"/>
      <point x="368.8958333333333" y="98.58333333333333" type="line"/>
      <point x="439.0625" y="17.104166666666668"/>
      <point x="532.3125" y="-23.208333333333332"/>
      <point x="647.1041666666666" y="-23.208333333333332" type="curve" smooth="yes"/>
      <point x="920.75" y="-23.208333333333332"/>
      <point x="1052.7916666666667" y="208.3125"/>
      <point x="1052.7916666666667" y="527.0625" type="curve" smooth="yes"/>
      <point x="1052.7916666666667" y="857.4166666666666"/>
      <point x="952.5833333333334" y="1075.4166666666667"/>
      <point x="671.7291666666666" y="1075.4166666666667" type="curve" smooth="yes"/>
      <point x="552.7916666666666" y="1075.4166666666667"/>
      <point x="446.0" y="1021.1041666666666"/>
      <point x="368.8958333333333" y="922.625" type="curve"/>
    </contour>
    <contour>
      <point x="632.3125" y="940.3125" type="curve" smooth="yes"/>
      <point x="797.0625" y="940.3125"/>
      <point x="873.25" y="803.25"/>
      <point x="873.25" y="527.6875" type="curve" smooth="yes"/>
      <point x="873.25" y="247.0625"/>
      <point x="784.8958333333334" y="117.0625"/>
      <point x="609.6875" y="117.0625" type="curve" smooth="yes"/>
      <point x="510.3125" y="117.0625"/>
      <point x="423.6875" y="167.10416666666666"/>
      <point x="368.8958333333333" y="249.0625" type="curve"/>
      <point x="368.8958333333333" y="771.0625" type="line"/>
      <point x="425.6875" y="856.3125"/>
      <point x="515.375" y="940.3125"/>
    </contour>
  </outline>
</glyph>
<glyph name="dcroat" format="2">
  <advance width="1200.0"/>
  <unicode hex="0111"/>
  <anchor x="604.625" y="0.0" name="bottom"/>
  <anchor x="604.625" y="527.375" name="center"/>
  <anchor x="604.625" y="1477.0625" name="top"/>
  <anchor x="1066.3125" y="1477.0625" name="topright"/>
  <outline>
    <contour>
      <point x="1003.7291666666666" y="1329.375" type="line"/>
      <point x="493.0625" y="1329.375" type="line"/>
      <point x="493.0625" y="1195.25" type="line"/>
      <point x="835.7291666666666" y="1195.25" type="line"/>
      <point x="1161.4166666666667" y="1195.25" type="line"/>
      <point x="1161.4166666666667" y="1329.375" type="line"/>
    </contour>
    <component base="d" xOffset="4.625"/>
  </outline>
</glyph>
<glyph name="Hbar" format="2">
  <advance width="1200.0"/>
  <unicode hex="0126"/>
  <outline>
    <contour>
      <point x="1034.5833333333333" y="1376.75" type="line"/>
      <point x="860.75" y="1376.75" type="line"/>
      <point x="860.75" y="796.5833333333334" type="line"/>
      <point x="339.25" y="796.5833333333334" type="line"/>
      <point x="339.25" y="1376.75" type="line"/>
      <point x="165.41666666666666" y="1376.75" type="line"/>
      <point x="165.41666666666666" y="0.0" type="line"/>
      <point x="339.25" y="0.0" type="line"/>
      <point x="339.25" y="652.5833333333334" type="line"/>
      <point x="860.75" y="652.5833333333334" type="line"/>
      <point x="860.75" y="0.0" type="line"/>
      <point x="1034.5833333333333" y="0.0" type="line"/>
    </contour>
    <contour>
      <point x="1196.0" y="1150.625" type="line"/>
      <point x="4.0" y="1150.625" type="line"/>
      <point x="4.0" y="1017.7291666666666" type="line"/>
      <point x="1196.0" y="1017.7291666666666" type="line"/>
    </contour>
  </outline>
</glyph>
<glyph name="hbar" format="2">
  <advance width="1200.0"/>
  <unicode hex="0127"/>
  <anchor x="600.0" y="0.0" name="bottom"/>
  <anchor x="600.0" y="527.375" name="center"/>
  <anchor x="600.0" y="1477.0625" name="top"/>
  <outline>
    <contour>
      <point x="706.9375" y="1329.375" type="line"/>
      <point x="200.89583333333334" y="1329.375" type="line"/>
      <point x="38.583333333333336" y="1329.375" type="line"/>
      <point x="38.583333333333336" y="1195.25" type="line"/>
      <point x="368.8958333333333" y="1195.25" type="line"/>
      <point x="706.9375" y="1195.25" type="line"/>
    </contour>
    <component base="h"/>
  </outline>
</glyph>
<glyph name="dotlessi" format="2">
  <advance width="1200.0"/>
  <unicode hex="0131"/>
  <anchor x="754.2708333333334" y="0.0" name="ogonek"/>
  <anchor x="602.625" y="1052.75" name="top"/>
  <outline>
    <contour>
      <point x="734.2708333333334" y="1052.75" type="line"/>
      <point x="251.375" y="1052.75" type="line"/>
      <point x="251.375" y="920.0" type="line"/>
      <point x="566.2708333333334" y="920.0" type="line"/>
      <point x="566.2708333333334" y="132.75" type="line"/>
      <point x="241.375" y="132.75" type="line"/>
      <point x="241.375" y="0.0" type="line"/>
      <point x="1031.25" y="0.0" type="line"/>
      <point x="1031.25" y="132.75" type="line"/>
      <point x="734.2708333333334" y="132.75" type="line"/>
    </contour>
  </outline>
</glyph>
<glyph name="IJ" format="2">
  <advance width="1200.0"/>
  <unicode hex="0132"/>
  <outline>
    <contour>
      <point x="389.2083333333333" y="-141.6875" type="curve"/>
      <point x="409.25" y="-271.7291666666667" type="line"/>
      <point x="941.4166666666666" y="-223.72916666666666"/>
      <point x="1065.2083333333333" y="65.20833333333334"/>
      <point x="1065.2083333333333" y="375.6875" type="curve" smooth="yes"/>
      <point x="1065.2083333333333" y="1376.75" type="line"/>
      <point x="22.9375" y="1376.75" type="line"/>
      <point x="22.9375" y="1233.1041666666667" type="line"/>
      <point x="222.89583333333334" y="1233.1041666666667" type="line"/>
      <point x="222.89583333333334" y="143.10416666666666" type="line"/>
      <point x="22.9375" y="143.10416666666666" type="line"/>
      <point x="22.9375" y="0.0" type="line"/>
      <point x="560.75" y="0.0" type="line"/>
      <point x="560.75" y="143.10416666666666" type="line"/>
      <point x="400.7916666666667" y="143.10416666666666" type="line"/>
      <point x="400.7916666666667" y="1233.1041666666667" type="line"/>
      <point x="890.2708333333334" y="1233.1041666666667" type="line"/>
      <point x="890.2708333333334" y="386.5833333333333" type="line" smooth="yes"/>
      <point x="890.2708333333334" y="89.0625"/>
      <point x="794.75" y="-102.58333333333333"/>
    </contour>
  </outline>
</glyph>
<glyph name="ij" format="2">
  <advance width="1200.0"/>
  <unicode hex="0133"/>
  <outline>
    <contour>
      <point x="1000.5833333333334" y="1052.75" type="line"/>
      <point x="107.20833333333333" y="1052.75" type="line"/>
      <point x="107.20833333333333" y="924.3125" type="line"/>
      <point x="284.3125" y="924.3125" type="line"/>
      <point x="284.3125" y="132.75" type="line"/>
      <point x="97.20833333333333" y="132.75" type="line"/>
      <point x="97.20833333333333" y="0.0" type="line"/>
      <point x="637.1041666666666" y="0.0" type="line"/>
      <point x="637.1041666666666" y="132.75" type="line"/>
      <point x="446.0" y="132.75" type="line"/>
      <point x="446.0" y="924.3125" type="line"/>
      <point x="836.8958333333334" y="924.3125" type="line"/>
      <point x="836.8958333333334" y="99.0625" type="line" smooth="yes"/>
      <point x="836.8958333333334" y="-122.0"/>
      <point x="630.5833333333334" y="-219.41666666666666"/>
      <point x="439.7291666666667" y="-293.25" type="curve"/>
      <point x="490.0" y="-423.7291666666667" type="line"/>
      <point x="770.7916666666666" y="-332.625"/>
      <point x="1000.5833333333334" y="-181.25"/>
      <point x="1000.5833333333334" y="109.10416666666666" type="curve" smooth="yes"/>
    </contour>
    <contour>
      <point x="368.625" y="1546.3125" type="curve" smooth="yes"/>
      <point x="296.625" y="1546.3125"/>
      <point x="247.375" y="1494.75"/>
      <point x="247.375" y="1429.2083333333333" type="curve" smooth="yes"/>
      <point x="247.375" y="1360.5833333333333"/>
      <point x="296.625" y="1308.7916666666667"/>
      <point x="368.625" y="1308.7916666666667" type="curve" smooth="yes"/>
      <point x="440.3125" y="1308.7916666666667"/>
      <point x="490.7916666666667" y="1360.5833333333333"/>
      <point x="490.7916666666667" y="1429.2083333333333" type="curve" smooth="yes"/>
      <point x="490.7916666666667" y="1494.75"/>
      <point x="440.3125" y="1546.3125"/>
    </contour>
    <contour>
      <point x="896.5833333333334" y="1546.3125" type="curve" smooth="yes"/>
      <point x="824.5833333333334" y="1546.3125"/>
      <point x="775.4166666666666" y="1494.75"/>
      <point x="775.4166666666666" y="1429.2083333333333" type="curve" smooth="yes"/>
      <point x="775.4166666666666" y="1360.5833333333333"/>
      <point x="824.5833333333334" y="1308.7916666666667"/>
      <point x="896.5833333333334" y="1308.7916666666667" type="curve" smooth="yes"/>
      <point x="968.5833333333334" y="1308.7916666666667"/>
      <point x="1019.0625" y="1360.5833333333333"/>
      <point x="1019.0625" y="1429.2083333333333" type="curve" smooth="yes"/>
      <point x="1019.0625" y="1494.75"/>
      <point x="968.5833333333334" y="1546.3125"/>
    </contour>
  </outline>
</glyph>
<glyph name="kgreenlandic" format="2">
  <advance width="1200.0"/>
  <unicode hex="0138"/>
  <anchor x="600.0" y="0.0" name="bottom"/>
  <anchor x="600.0" y="1052.75" name="top"/>
  <outline>
    <contour>
      <point x="1071.6875" y="1052.75" type="line"/>
      <point x="854.0" y="1052.75" type="line"/>
      <point x="387.0625" y="565.1041666666666" type="line"/>
      <point x="905.4166666666666" y="0.0" type="line"/>
      <point x="1126.8958333333333" y="0.0" type="line"/>
      <point x="594.2708333333334" y="576.3125" type="line"/>
    </contour>
    <contour>
      <point x="368.8958333333333" y="1052.75" type="line"/>
      <point x="200.89583333333334" y="1052.75" type="line"/>
      <point x="200.89583333333334" y="0.0" type="line"/>
      <point x="368.8958333333333" y="0.0" type="line"/>
    </contour>
  </outline>
</glyph>
<glyph name="Lslash" format="2">
  <advance width="1200.0"/>
  <unicode hex="0141"/>
  <anchor x="659.375" y="0.0" name="bottom"/>
  <anchor x="939.4166666666666" y="759.2083333333334" name="center"/>
  <anchor x="355.875" y="1376.75" name="top"/>
  <anchor x="541.25" y="1376.75" name="topright"/>
  <outline>
    <contour>
      <point x="152.75" y="465.2083333333333" type="line"/>
      <point x="843.7291666666666" y="893.25" type="line"/>
      <point x="769.4166666666666" y="1004.8958333333334" type="line"/>
      <point x="81.20833333333334" y="578.3125" type="line"/>
    </contour>
    <component base="L" xOffset="-3.375"/>
  </outline>
</glyph>
<glyph name="lslash" format="2">
  <advance width="1200.0"/>
  <unicode hex="0142"/>
  <anchor x="720.7916666666666" y="0.0" name="bottom"/>
  <anchor x="1120.5833333333333" y="766.0" name="center"/>
  <anchor x="529.7291666666666" y="1477.0625" name="top"/>
  <anchor x="693.1041666666666" y="1477.0625" name="topright"/>
  <outline>
    <contour>
      <point x="442.75" y="762.3125" type="line"/>
      <point x="236.58333333333334" y="638.0" type="line"/>
      <point x="308.2708333333333" y="529.0625" type="line"/>
      <point x="610.75" y="714.9375" type="line"/>
      <point x="862.0" y="869.1041666666666" type="line"/>
      <point x="790.625" y="977.7291666666666" type="line"/>
    </contour>
    <component base="l"/>
  </outline>
</glyph>
<glyph name="napostrophe" format="2">
  <advance width="1200.0"/>
  <unicode hex="0149"/>
  <anchor x="619.4166666666666" y="0.0" name="bottom"/>
  <anchor x="617.1041666666666" y="1052.75" name="top"/>
  <outline>
    <contour>
      <point x="127.25" y="1503.1041666666667" type="curve" smooth="yes"/>
      <point x="65.6875" y="1503.1041666666667"/>
      <point x="15.104166666666668" y="1458.0"/>
      <point x="15.104166666666668" y="1395.7291666666667" type="curve" smooth="yes"/>
      <point x="15.104166666666668" y="1360.3125"/>
      <point x="34.625" y="1328.7916666666667"/>
      <point x="61.375" y="1305.4166666666667" type="curve"/>
      <point x="1.416666666666667" y="1067.6875" type="line"/>
      <point x="101.375" y="1067.6875" type="line"/>
      <point x="183.375" y="1240.7916666666667" type="line" smooth="yes"/>
      <point x="227.25" y="1332.9375"/>
      <point x="236.3125" y="1364.0"/>
      <point x="236.3125" y="1395.7291666666667" type="curve" smooth="yes"/>
      <point x="236.3125" y="1457.0625"/>
      <point x="188.27083333333334" y="1503.1041666666667"/>
    </contour>
    <component base="n" xOffset="17.416666666666664"/>
  </outline>
</glyph>
<glyph name="eng" format="2">
  <advance width="1200.0"/>
  <unicode hex="014B"/>
  <outline>
    <contour>
      <point x="1001.4166666666666" y="56.791666666666664" type="curve" smooth="yes"/>
      <point x="1001.4166666666666" y="764.5833333333334" type="line" smooth="yes"/>
      <point x="1001.4166666666666" y="959.4166666666666"/>
      <point x="910.75" y="1075.4166666666667"/>
      <point x="704.7916666666666" y="1075.4166666666667" type="curve" smooth="yes"/>
      <point x="581.1041666666666" y="1075.4166666666667"/>
      <point x="442.5833333333333" y="1014.9375"/>
      <point x="357.0625" y="906.625" type="curve"/>
      <point x="344.3125" y="1052.75" type="line"/>
      <point x="200.89583333333334" y="1052.75" type="line"/>
      <point x="200.89583333333334" y="0.0" type="line"/>
      <point x="368.8958333333333" y="0.0" type="line"/>
      <point x="368.8958333333333" y="767.375" type="line"/>
      <point x="424.2708333333333" y="849.6875"/>
      <point x="531.0625" y="942.625"/>
      <point x="651.25" y="942.625" type="curve" smooth="yes"/>
      <point x="813.7291666666666" y="942.625"/>
      <point x="833.4166666666666" y="856.0"/>
      <point x="833.4166666666666" y="641.2083333333334" type="curve" smooth="yes"/>
      <point x="833.4166666666666" y="46.27083333333333" type="line" smooth="yes"/>
      <point x="833.4166666666666" y="-183.72916666666666"/>
      <point x="766.75" y="-235.25"/>
      <point x="628.75" y="-299.1041666666667" type="curve"/>
      <point x="691.7291666666666" y="-421.4166666666667" type="line"/>
      <point x="898.9375" y="-329.2083333333333"/>
      <point x="1001.4166666666666" y="-241.10416666666666"/>
    </contour>
  </outline>
</glyph>
